<svg xmlns="http://www.w3.org/2000/svg" height="1024" preserveAspectRatio="none" style="display: block;" version="1.1" viewBox="0 0 2048 2048" width="1024">
<path d="M 0 0 L 211.991 0 L 269.955 0 L 283.496 0 L 297.587 0 L 527.979 0 L 547.794 0 L 629.918 0 L 647.111 0 L 666.263 0 L 879.96 0 L 896.408 0 L 942.315 0 L 1052.13 0 L 1280.19 0 L 1300 0 L 1328.14 0 L 1331.33 0 L 1545.94 0 L 1558.8 0 L 1589.47 0 L 1598.18 0 L 1600.16 0 L 1828.12 0 L 1850.67 0 L 1882.02 0 L 1913.11 0 L 2048 0 L 2048 305.942 L 2048 327.805 L 2048 530.684 L 2048 598.97 L 2048 615.897 L 2048 941.314 L 2048 965.849 L 2048 1242.52 L 2048 1276.97 L 2048 1367.96 L 2048 2048 L 1094.06 2048 L 1074.06 2048 L 1026.13 2048 L 971.792 2048 L 0 2048 L 0 1328.7 L 0 1256.26 L 0 1234.91 L 0 950.782 L 0 926.247 L 0 573.77 L 0 550.172 L 0 515.808 L 0 494.812 L 0 286.015 L 0 267.078 L 0 242.19 L 0 0 z" fill="rgb(115,52,103)" transform="translate(0,0)"></path>
<path d="M 1052.13 0 L 1280.19 0 L 1300 0 L 1328.14 0 L 1331.33 0 L 1545.94 0 L 1558.8 0 L 1589.47 0 L 1598.18 0 L 1600.16 0 L 1828.12 0 L 1850.67 0 L 1882.02 0 L 1913.11 0 L 2048 0 L 2048 305.942 L 2048 327.805 L 2048 530.684 L 2048 598.97 L 2048 615.897 L 2048 941.314 L 2048 965.849 L 2048 1242.52 L 2048 1276.97 L 2048 1367.96 L 2048 2048 L 1094.06 2048 L 1074.06 2048 C 1078.46 2045.24 1082.9 2042.33 1087.35 2039.66 C 1115.79 2022.65 1141.41 2002.02 1168.34 1982.76 L 1286.92 1899.08 L 1438.61 1792.44 C 1460.7 1776.73 1488.84 1760.13 1507.88 1740.89 C 1492.76 1732.6 1475.99 1717.6 1461.42 1707.59 C 1422.86 1681.09 1388.11 1650.62 1350.06 1623.4 C 1339.1 1615.56 1327.61 1605.3 1315.91 1596.79 C 1313.23 1595.25 1310.18 1593.07 1306.96 1593.76 C 1295.77 1596.13 1114.58 1733.58 1090.14 1751.8 C 1072.92 1764.64 1053.72 1776.74 1037.6 1790.75 C 1028.29 1786.07 1011.58 1777.31 1002.05 1774.11 C 1003.47 1767.1 1003.13 1758.23 1003.13 1750.92 C 1004.28 1745.22 1004.41 1713.39 1004.6 1705.06 L 1007.03 1603.68 L 1016.12 1231.62 L 1043.5 291.857 C 1047.14 194.595 1050.02 97.3066 1052.13 -1.7053e-13 z" fill="rgb(115,52,103)" transform="translate(0,0)"></path>
<path d="M 1328.14 0 L 1331.33 0 L 1545.94 0 L 1558.8 0 L 1589.47 0 L 1598.18 0 L 1600.16 0 L 1828.12 0 L 1850.67 0 L 1882.02 0 L 1913.11 0 L 2048 0 L 2048 305.942 L 2048 327.805 L 2048 530.684 L 2048 598.97 L 2048 615.897 L 2048 941.314 C 1796.53 1123.68 1546.5 1308 1297.91 1494.28 C 1297.01 1482.65 1298.93 1449.84 1299.41 1436.98 L 1302.98 1329.16 L 1310.02 1001.89 C 1310.76 969.681 1312.42 937.389 1312.06 905.092 C 1311.92 892.972 1313.08 871.178 1310.89 859.832 C 1310.75 782.471 1318.06 700.94 1317.03 622.89 C 1318.89 614.079 1319.13 581.018 1319.1 570.576 C 1320.42 493.114 1321.73 415.357 1325.06 337.972 C 1328.88 249.43 1329.54 161.594 1330.01 72.9911 C 1330.24 66.1256 1330.38 61.1849 1329.91 54.3513 C 1327.51 49.0027 1328.24 32.8555 1327.88 25.6594 L 1328.14 0 z" fill="rgb(125,173,246)" transform="translate(0,0)"></path>
<path d="M 1545.94 0 L 1558.8 0 L 1589.47 0 L 1598.18 0 L 1600.16 0 L 1828.12 0 L 1850.67 0 L 1882.02 0 L 1913.11 0 L 2048 0 L 2048 305.942 L 2048 327.805 L 2048 530.684 L 2048 598.97 L 2048 615.897 C 2033.29 626.453 2017.45 639.893 2003.1 651.078 L 1915.83 718.252 C 1905.18 726.461 1894.19 736.098 1883.44 743.791 C 1842.11 773.362 1801.07 802.246 1762.24 835.161 C 1746.45 848.546 1727.05 859.992 1711.05 873.456 C 1704.7 878.801 1695.82 883.186 1689.17 888.381 C 1642.93 924.48 1593.54 956.842 1546.71 992.117 C 1539.56 984.952 1522.44 974.418 1512.08 964.697 C 1514.16 933.826 1514.16 890.889 1514.95 858.974 L 1519.3 727.103 L 1528.8 347.783 C 1529 334.83 1529.05 321.831 1529.14 308.873 C 1529.48 258.09 1532.9 207.36 1534.63 156.585 L 1536.57 81.729 C 1537.03 59.059 1535.86 38.682 1542.37 16.915 C 1543.87 11.9005 1544.92 5.16012 1545.94 0 z" fill="rgb(66,133,244)" transform="translate(0,0)"></path>
<path d="M 1828.12 0 L 1850.67 0 L 1882.02 0 L 1913.11 0 L 2048 0 L 2048 305.942 L 2048 327.805 L 2048 530.684 L 2048 598.97 C 2024.04 614.202 1999.96 631.303 1977.12 648.188 C 1961.13 660.004 1945.89 673.073 1929.89 685.027 L 1705.22 852.935 C 1659.62 887.054 1611.7 920.71 1565.82 954.708 C 1559.41 959.461 1544.88 968.325 1536.77 967.89 L 1534.34 966.487 C 1532.15 958.226 1539.11 954.173 1544.8 949.314 C 1559.08 937.918 1578.46 925.102 1590.85 914.376 C 1594.87 912.209 1610.63 899.942 1615.14 896.535 C 1630.66 884.727 1646.27 873.044 1661.97 861.486 C 1696.28 836.252 1730.53 811.073 1765.35 786.558 C 1769.57 783.175 1774.21 779.882 1778.29 776.354 C 1801.56 756.263 1827.47 739.203 1851.36 720.121 C 1848.06 702.174 1849.57 679.201 1849.78 660.74 L 1850.99 569.687 C 1825.7 550.585 1797.22 535.105 1770.21 518.562 C 1764.07 514.799 1757.27 511.241 1752.02 506.343 C 1750.95 415.489 1755.42 327.698 1758.23 236.993 L 1761.77 145.761 C 1762.81 111.191 1762.62 80.8895 1767.27 46.5428 C 1779.06 32.3738 1812.1 10.2663 1828.12 0 z" fill="rgb(115,52,103)" transform="translate(0,0)"></path>
<path d="M 1913.11 0 L 2048 0 L 2048 305.942 C 2032.87 316.154 2017.32 329.265 2002.4 340.331 L 1876.18 434.137 C 1858.24 447.408 1837.23 464.143 1819.19 476.336 C 1819.08 468.675 1819.15 423.061 1822.51 420.203 C 1827.7 415.816 1832.79 411.302 1837.76 406.663 C 1841.34 403.821 1850.11 392.675 1853.52 388.525 C 1846.73 392.738 1836.79 400.61 1830.16 405.62 L 1821.02 411.788 C 1822.92 390.164 1822.76 366.479 1823.17 344.638 L 1825.21 250.048 C 1826.17 213.079 1826.81 176.102 1827.15 139.122 C 1827.64 112.854 1829.11 92.1477 1827.86 65.4407 C 1833.71 59.6336 1847.66 50.3274 1854.94 44.6939 C 1874.23 29.7669 1894.08 15.2971 1913.11 0 z" fill="rgb(125,173,246)" transform="translate(0,0)"></path>
<path d="M 2048 327.805 L 2048 530.684 C 2027.17 547.311 1997.27 568.196 1979.3 585.271 C 1964.45 574.384 1949.68 566.847 1934.83 556.819 C 1900.1 533.381 1864.17 513.463 1828 492.534 C 1837.41 482.621 1876.33 455.32 1888.97 445.869 C 1942.2 406.815 1995.21 367.46 2048 327.805 z" fill="rgb(66,133,244)" transform="translate(0,0)"></path>
<path d="M 1850.67 0 L 1882.02 0 C 1868.79 10.281 1815.54 50.2556 1808.77 60.1284 C 1811.73 124.878 1804.66 197.727 1804.71 260.64 C 1804.73 283.762 1795.93 492.768 1800.9 502.562 C 1820.05 513.375 1839.21 524.263 1858.05 535.592 C 1902.32 562.201 1947.34 586.214 1988.81 617.226 C 1984.09 620.081 1979.19 623.134 1974.44 625.891 C 1970.35 622.858 1964.45 618.082 1960.16 615.73 C 1934.29 601.54 1909.13 582.633 1881.97 571.36 C 1881.19 571.545 1879.88 571.796 1879.2 572.098 C 1876.1 582.023 1878.23 591.335 1876.91 599.552 C 1878.81 614.564 1877.99 639.065 1878.09 655.032 C 1878.17 668.106 1878.56 694.221 1876.77 706.385 C 1874.63 709.152 1875.94 708.193 1872.75 709.437 L 1871.32 708.56 C 1867.87 701.141 1871.49 614.585 1872.99 600.659 C 1873.05 589.102 1872.7 576.282 1873.46 564.878 C 1873.18 562.039 1872.86 561.656 1871.81 558.95 C 1863.73 551.209 1839.97 538.291 1829.1 530.352 C 1826.91 529.491 1814.77 521.807 1811.96 520.076 L 1770.72 494.561 C 1770.68 457.146 1772.18 421.98 1773.06 384.805 C 1775.52 303.114 1776.76 221.39 1776.78 139.662 C 1776.61 118.3 1779.08 74.8657 1775.11 56.0471 C 1795.1 37.5172 1831.54 17.6841 1850.67 0 z" fill="rgb(66,133,244)" transform="translate(0,0)"></path>
<path d="M 1558.8 0 L 1589.47 0 L 1598.18 0 L 1600.16 0 C 1600.21 15.2826 1601.95 29.8965 1601.99 45.2283 C 1601.51 127.677 1600.06 210.118 1597.64 292.533 C 1597.25 312.231 1597.5 331.721 1597.83 351.412 C 1597.98 360.911 1595.43 373.066 1595.4 382.186 C 1595.31 406.701 1593.52 430.777 1592.69 455.197 C 1590.58 533.287 1588.91 611.389 1587.68 689.498 C 1586.92 736.478 1585.3 783.439 1582.82 830.358 C 1581.57 856.495 1578.15 892.121 1580.24 917.751 C 1574.26 923.001 1546.39 943.463 1539.49 946.863 C 1535.74 937.144 1540.72 818.819 1541 802.844 C 1544.51 577.988 1549.91 353.166 1557.19 128.401 C 1557.92 100.401 1557.82 72.0601 1558.51 43.998 C 1558.88 29.2742 1558.05 15.0324 1558.8 0 z" fill="rgb(115,52,103)" transform="translate(0,0)"></path>
<path d="M 1589.47 0 L 1598.18 0 C 1588.94 51.6301 1592.48 106.659 1588.77 159.04 C 1588.51 162.778 1588.2 169.887 1586.26 172.928 C 1582.66 161.509 1588.89 22.5567 1589.47 0 z" fill="rgb(66,133,244)" transform="translate(0,0)"></path>
<path d="M 1579.93 332.143 C 1579.73 321.481 1581.97 231.378 1584.19 228.503 L 1585.49 229.526 C 1586.37 233.641 1585.32 241.424 1585.29 246.479 C 1585.13 274.969 1583.29 303.533 1581.96 331.995 L 1579.93 332.143 z" fill="rgb(66,133,244)" transform="translate(0,0)"></path>
<path d="M 1328.14 0 L 1331.33 0 C 1331.06 18.1218 1330.59 36.2401 1329.91 54.3513 C 1327.51 49.0027 1328.24 32.8555 1327.88 25.6594 L 1328.14 0 z" fill="rgb(71,45,54)" transform="translate(0,0)"></path>
<path d="M 1525.52 256.25 C 1526.35 268.965 1525.13 316.848 1522.38 329.229 C 1518.1 319.64 1524.92 270.185 1525.52 256.25 z" fill="rgb(66,133,244)" transform="translate(0,0)"></path>
<path d="M 1052.13 0 L 1280.19 0 L 1262.67 841.7 L 1256.53 1076.07 C 1255.69 1107.79 1254.57 1139.73 1253.66 1171.45 C 1253.6 1173.61 1253.98 1175.46 1255.38 1177.12 L 1256.83 1176.85 C 1257.87 1174.14 1258.52 1170.69 1259.38 1168.51 L 1258.92 1169.99 L 1259.71 1170.95 C 1259.95 1182.6 1259.1 1196 1258.85 1207.88 L 1256.08 1309.92 L 1251.79 1477.81 C 1251.34 1495.86 1251.57 1514.78 1250.93 1532.52 C 1259.95 1541.38 1318.59 1586.4 1320.67 1589.71 C 1324.24 1594.69 1343.59 1606.95 1349.81 1611.17 C 1374.33 1627.81 1398.97 1644.26 1423.74 1660.53 C 1436.07 1668.47 1450.98 1676.45 1462.63 1684.79 C 1478.82 1696.38 1495.23 1710.57 1511.2 1722.77 C 1516.9 1727.13 1525.06 1734.46 1530.73 1737.85 C 1523.41 1745.29 1513.74 1751.88 1505.42 1758.31 C 1442.96 1806.57 1373.98 1845.26 1311.29 1893.32 C 1312.67 1890.91 1317.17 1882.69 1319 1881.21 C 1351.82 1854.68 1391.3 1831.78 1424.12 1805.75 C 1438.62 1794.25 1505.27 1751.97 1508.95 1741.15 C 1507.9 1737.59 1475.99 1716.02 1469.85 1711.46 L 1352.26 1622.41 C 1344.11 1616.26 1324.82 1598.27 1315.91 1596.79 C 1313.23 1595.25 1310.18 1593.07 1306.96 1593.76 C 1295.77 1596.13 1114.58 1733.58 1090.14 1751.8 C 1072.92 1764.64 1053.72 1776.74 1037.6 1790.75 C 1028.29 1786.07 1011.58 1777.31 1002.05 1774.11 C 1003.47 1767.1 1003.13 1758.23 1003.13 1750.92 C 1004.28 1745.22 1004.41 1713.39 1004.6 1705.06 L 1007.03 1603.68 L 1016.12 1231.62 L 1043.5 291.857 C 1047.14 194.595 1050.02 97.3066 1052.13 -1.7053e-13 z" fill="rgb(125,173,246)" transform="translate(0,0)"></path>
<path d="M 2048 965.849 L 2048 1242.52 C 2039.12 1248.22 2026.53 1258 2017.68 1264.4 L 1962.47 1304.12 L 1749.81 1460.48 L 1574.2 1589.99 C 1540.81 1614.86 1514.45 1633.08 1481.68 1660.39 C 1473.88 1656.37 1456.59 1644.81 1448.59 1639.52 C 1419.39 1620.23 1388.85 1599.95 1360.18 1580.24 C 1340.92 1567 1298.39 1542.47 1283.58 1526.96 C 1295.89 1516.27 1309.75 1506.78 1322.85 1497.04 L 1391.38 1446.47 L 1549.16 1329.63 L 1780.04 1160.97 C 1868.43 1094.66 1957.76 1029.62 2048 965.849 z" fill="rgb(66,133,244)" transform="translate(0,0)"></path>
<path d="M 2048 1276.97 L 2048 1367.96 C 2031.47 1379.38 2013.62 1393.19 1997.24 1405.26 L 1861.12 1507.36 L 1569.47 1723.48 C 1547.07 1706 1524.82 1691.17 1502.44 1672.89 C 1519.38 1657.68 1556.45 1632.22 1576.61 1617.18 C 1639.53 1570.45 1702.95 1524.38 1766.85 1478.99 L 1940.93 1354.2 C 1963.82 1337.31 1986.83 1320.59 2009.96 1304.03 C 2022.58 1294.87 2034.81 1285.27 2048 1276.97 z" fill="rgb(66,133,244)" transform="translate(0,0)"></path>
<path d="M 1300 0 L 1328.14 0 L 1327.88 25.6594 C 1328.24 32.8555 1327.51 49.0027 1329.91 54.3513 C 1330.38 61.1849 1330.24 66.1256 1330.01 72.9911 C 1329.54 161.594 1328.88 249.43 1325.06 337.972 C 1321.73 415.357 1320.42 493.114 1319.1 570.576 C 1319.13 581.018 1318.89 614.079 1317.03 622.89 C 1318.06 700.94 1310.75 782.471 1310.89 859.832 C 1313.08 871.178 1311.92 892.972 1312.06 905.092 C 1312.42 937.389 1310.76 969.681 1310.02 1001.89 L 1302.98 1329.16 L 1299.41 1436.98 C 1298.93 1449.84 1297.01 1482.65 1297.91 1494.28 C 1291.55 1499.42 1278.2 1510.68 1271.68 1514.31 L 1270.37 1513.58 C 1267.15 1499.94 1270.55 1478.98 1271.01 1464.1 L 1274.29 1363.15 C 1274.99 1343.57 1274.73 1324.39 1275.25 1304.97 L 1278.75 1173.38 L 1286.23 656.844 C 1292.57 437.936 1297.16 218.981 1300 2.27374e-13 z" fill="rgb(66,133,244)" transform="translate(0,0)"></path>
<path d="M 1325.76 63.9001 C 1327.31 51.0168 1326.5 38.5228 1327.88 25.6594 C 1328.24 32.8555 1327.51 49.0027 1329.91 54.3513 C 1330.38 61.1849 1330.24 66.1256 1330.01 72.9911 C 1329.54 161.594 1328.88 249.43 1325.06 337.972 C 1321.73 415.357 1320.42 493.114 1319.1 570.576 C 1311.23 551.378 1312.71 533.296 1312.11 512.62 C 1311.04 475.995 1311.38 439.342 1313.12 402.742 C 1314.4 378.311 1317.34 352.984 1317.68 328.681 C 1318.54 266.531 1318.08 204.811 1321.61 142.698 C 1323.14 115.772 1322.87 90.9511 1325.76 63.9001 z" fill="rgb(115,52,103)" transform="translate(0,0)"></path>
<path d="M 1317.03 622.89 C 1318.06 700.94 1310.75 782.471 1310.89 859.832 C 1309.03 864.922 1308.88 867.055 1308.11 872.334 L 1307.91 874.232 C 1306.74 886.187 1308.9 906.055 1307.61 913.639 L 1307.93 912.923 L 1307.64 913.708 L 1307.27 912.662 L 1308.19 912.511 L 1306.96 911.198 C 1305.8 903.238 1301.78 885.488 1301.97 879.294 C 1300.75 870.825 1301.03 857.454 1300.99 848.726 C 1300.84 807.308 1301.87 765.048 1302.95 723.712 C 1303.6 698.7 1303.8 644.344 1317.03 622.89 z" fill="rgb(115,52,103)" transform="translate(0,0)"></path>
<path d="M 1320.67 1589.71 C 1338.35 1597.92 1367.61 1621.07 1385.23 1632.68 C 1425.69 1659.36 1467.38 1683.26 1504.41 1714.63 C 1513.6 1722.41 1524.7 1729.91 1533.26 1738.32 C 1525.07 1746.7 1514.39 1754.05 1505.04 1761.19 C 1442.41 1809.06 1373.66 1848.14 1310.92 1895.93 C 1283.32 1916.63 1256.58 1938.13 1229.11 1958.93 C 1225.5 1961.66 1223.41 1964.92 1219.25 1965.76 L 1218.23 1964.79 C 1223.21 1959.11 1236.83 1952.21 1241.61 1946.85 C 1251.73 1935.5 1300.92 1903.51 1305.41 1894.32 L 1301.6 1894.86 C 1296 1899.56 1287.72 1904.39 1281.36 1908.7 C 1268.08 1917.74 1254.87 1926.87 1241.71 1936.08 C 1197.51 1967.17 1156.66 2002.41 1112.96 2034.11 C 1107.15 2038.33 1099.29 2043.37 1094.06 2048 L 1074.06 2048 C 1078.46 2045.24 1082.9 2042.33 1087.35 2039.66 C 1115.79 2022.65 1141.41 2002.02 1168.34 1982.76 L 1286.92 1899.08 L 1438.61 1792.44 C 1460.7 1776.73 1488.84 1760.13 1507.88 1740.89 C 1492.76 1732.6 1475.99 1717.6 1461.42 1707.59 C 1422.86 1681.09 1388.11 1650.62 1350.06 1623.4 C 1339.1 1615.56 1327.61 1605.3 1315.91 1596.79 C 1324.82 1598.27 1344.11 1616.26 1352.26 1622.41 L 1469.85 1711.46 C 1475.99 1716.02 1507.9 1737.59 1508.95 1741.15 C 1505.27 1751.97 1438.62 1794.25 1424.12 1805.75 C 1391.3 1831.78 1351.82 1854.68 1319 1881.21 C 1317.17 1882.69 1312.67 1890.91 1311.29 1893.32 C 1373.98 1845.26 1442.96 1806.57 1505.42 1758.31 C 1513.74 1751.88 1523.41 1745.29 1530.73 1737.85 C 1525.06 1734.46 1516.9 1727.13 1511.2 1722.77 C 1495.23 1710.57 1478.82 1696.38 1462.63 1684.79 C 1450.98 1676.45 1436.07 1668.47 1423.74 1660.53 C 1398.97 1644.26 1374.33 1627.81 1349.81 1611.17 C 1343.59 1606.95 1324.24 1594.69 1320.67 1589.71 z" fill="rgb(66,133,244)" transform="translate(0,0)"></path>
<path d="M 0 0 L 211.991 0 L 269.955 0 L 283.496 0 L 297.587 0 L 527.979 0 L 547.794 0 L 629.918 0 L 647.111 0 L 666.263 0 L 879.96 0 L 896.408 0 C 890.484 274.387 882.4 548.724 872.154 822.984 L 866.446 971.192 C 866.097 980.782 865.377 1026.36 863.454 1033.23 C 861.666 1046.05 861.428 1069.7 860.991 1083.23 L 858.677 1184.72 C 857.02 1261.9 853.486 1339.96 851.309 1417.24 C 850.698 1441.76 849.909 1466.29 848.941 1490.81 C 848.68 1497.94 848.495 1518.54 847.568 1524.68 L 845.985 1525.05 C 846.735 1528.94 847.413 1528.74 845.942 1531.45 C 842.685 1531.13 838.794 1527.05 835.833 1524.83 C 825.849 1517.83 816.062 1510.56 806.486 1503.01 C 802.584 1499.9 793.812 1491.93 790.133 1489.95 C 760.731 1474.19 735.088 1452.51 708.226 1432.62 L 616.755 1366.02 C 573.467 1334.42 523.589 1300.92 482.124 1268.66 C 474.63 1263.54 467.004 1257.68 459.65 1252.3 C 434.735 1234.06 408.732 1217.01 384.04 1198.49 C 381.213 1197.26 362.555 1183.79 358.857 1181.35 C 329.541 1162.02 301.774 1141.15 273.378 1120.67 C 208.757 1073.86 143.687 1027.68 78.1767 982.12 C 52.1859 963.827 26.1855 943.931 0 926.247 L 0 573.77 L 0 550.172 L 0 515.808 L 0 494.812 L 0 286.015 L 0 267.078 L 0 242.19 L 0 0 z" fill="rgb(125,173,246)" transform="translate(0,0)"></path>
<path d="M 0 0 L 211.991 0 L 269.955 0 L 283.496 0 L 297.587 0 L 527.979 0 L 547.794 0 L 629.918 0 L 647.111 0 L 666.263 0 C 665.783 56.7204 663.081 114.966 661.882 172.052 L 657.152 481.012 L 654.18 658.992 C 653.969 676.889 653.687 694.391 653.236 712.275 C 652.928 724.507 654.452 735.454 653.584 748.475 L 653.379 745.236 C 651.711 762.369 651.376 779.914 650.355 797.192 C 648.917 803.499 647.507 848.918 648.015 856.13 L 649.073 857.152 C 651.483 854.037 650.996 821.803 653.2 820.594 C 654.396 825.939 654.663 827.68 654.877 833.143 C 658.013 869.82 654.182 908.429 655.367 945.229 C 655.659 954.28 658.333 967.045 655.721 975.822 L 654.296 975.402 C 653.279 969.228 654.845 961.138 653.187 957.463 L 652.328 958.021 C 652.135 961.965 652.039 966.301 651.474 970.176 C 649.473 958.311 650.838 961.292 651.427 950.031 L 650.693 950.054 C 647.861 953.66 649.547 952.812 646.034 953.926 L 644.88 954.674 C 643.429 952.994 643.818 948.358 643.716 945.56 C 641.939 956.904 641.837 1008.45 642.438 1021.31 C 648.05 1026.73 659.907 1035.44 666.431 1040.54 L 662.174 1049.08 L 650.842 1051.88 C 623.368 1031.11 596.167 1012.33 567.997 992.55 C 553.57 982.267 540.017 970.226 525.543 960.068 C 499.454 941.759 473.836 922.872 448.198 903.934 L 271.935 772.634 C 235.558 745.481 199.879 718.593 162.623 692.61 C 140.559 677.222 119.521 659.397 97.366 643.802 L 40.6748 603.247 C 26.3075 593.103 13.3012 585.441 0 573.77 L 0 550.172 L 0 515.808 L 0 494.812 L 0 286.015 L 0 267.078 L 0 242.19 L 0 0 z" fill="rgb(115,52,103)" transform="translate(0,0)"></path>
<path d="M 297.587 0 L 527.979 0 L 506.686 682.666 C 504.066 749.211 504.097 815.887 501.548 882.448 C 501.15 892.856 500.707 903.111 499.903 913.498 C 482.999 903.937 466.835 891.424 451.235 879.795 L 389.018 833.348 L 306.02 772.714 C 289.329 760.574 270.402 747.586 254.758 734.537 C 255.842 701.125 257.832 667.181 258.738 633.594 C 259.319 612.038 258.276 586.867 260.078 566.095 C 289.584 544.467 341.925 525.281 362.381 496.026 C 362.748 495.501 363.141 494.996 363.501 494.467 C 365.982 490.815 366.54 487.854 366.767 483.538 C 367.635 467.035 366.738 450.377 367.084 433.851 L 370.317 261.677 C 371.205 225.895 374.063 190.711 374.204 154.609 C 374.307 128.129 377.081 105.156 372.517 77.9294 C 366.243 40.5087 327.553 20.2052 297.587 0 z" fill="rgb(66,133,244)" transform="translate(0,0)"></path>
<path d="M 0 0 L 211.991 0 C 220.131 8.10473 228.787 11.5916 236.864 17.9542 C 254.573 31.9035 287.055 52.393 301.71 67.0513 C 298.809 84.8185 298.826 103.727 298.281 121.807 C 297.463 148.258 296.781 174.712 296.235 201.17 L 290.011 444.64 C 284.952 441.478 280.697 437.759 274.958 434.317 C 267.884 428.458 255.682 419.029 248.181 414.004 C 246.815 411.735 240.618 407.654 238.087 406.494 C 234.359 402.982 221.93 394.951 217.158 392.05 C 215.726 389.786 205.269 382.798 202.16 381.509 C 199.105 378.632 185.805 369.419 182.149 367.077 C 179.59 362.564 88.4022 301.619 75.9023 291.827 C 57.6844 277.556 21.0598 255.798 0 242.19 L 0 0 z" fill="rgb(125,173,246)" transform="translate(0,0)"></path>
<path d="M 547.794 0 L 629.918 0 C 629.306 40.7952 626.884 81.343 625.213 122.007 L 619.12 287.513 L 608.373 631.202 C 605.867 706.799 603.148 782.497 600.203 858.08 C 600.035 862.389 599.71 867.474 599.973 871.685 C 598.513 882.28 598.941 898.381 599.113 909.459 C 598.276 935.004 597.123 961.64 596.686 987.075 C 582.03 976.271 567.493 965.307 553.077 954.185 C 545.539 948.284 528.676 933.957 521.23 930.153 C 520.477 891.487 523.156 843.897 524.397 804.577 L 530.539 593.479 L 547.794 0 z" fill="rgb(125,173,246)" transform="translate(0,0)"></path>
<path d="M 0 286.015 C 14.8832 295.138 31.0342 307.739 45.227 318.288 C 61.66 330.477 78.2594 342.44 95.0204 354.174 C 150.041 393.08 203.705 433.544 259.101 471.896 C 268.247 478.228 277.401 484.302 286.258 491.066 C 256.055 511.561 225.345 530.896 194.283 550.045 C 177.244 560.549 149.149 580.446 131.57 588.344 C 115.966 580.062 96.5692 565.333 82.265 554.724 C 62.2955 539.663 42.1142 524.884 21.7272 510.393 C 15.9738 506.306 5.43969 498.006 0 494.812 L 0 286.015 z" fill="rgb(66,133,244)" transform="translate(0,0)"></path>
<path d="M 629.918 0 L 647.111 0 L 623.175 671.524 L 616.268 883.037 L 614.34 946.629 C 614.044 960.532 613.789 986.857 612.119 999.812 C 606.82 995.728 601.409 991.803 596.686 987.075 C 597.123 961.64 598.276 935.004 599.113 909.459 C 598.941 898.381 598.513 882.28 599.973 871.685 C 599.71 867.474 600.035 862.389 600.203 858.08 C 603.148 782.497 605.867 706.799 608.373 631.202 L 619.12 287.513 L 625.213 122.007 C 626.884 81.343 629.306 40.7952 629.918 0 z" fill="rgb(66,133,244)" transform="translate(0,0)"></path>
<path d="M 0 242.19 C 21.0598 255.798 57.6844 277.556 75.9023 291.827 C 88.4022 301.619 179.59 362.564 182.149 367.077 C 185.805 369.419 199.105 378.632 202.16 381.509 C 205.269 382.798 215.726 389.786 217.158 392.05 C 221.93 394.951 234.359 402.982 238.087 406.494 C 240.618 407.654 246.815 411.735 248.181 414.004 C 255.682 419.029 267.884 428.458 274.958 434.317 C 280.697 437.759 284.952 441.478 290.011 444.64 C 290.101 451.208 291.261 466.111 287.739 470.765 C 284.203 470.757 268.813 457.473 264.482 454.429 C 257.364 449.426 249.72 443.749 242.554 438.669 C 201.016 409.815 159.894 380.366 119.201 350.331 C 84.5871 324.804 36.4631 287.996 0 267.078 L 0 242.19 z" fill="rgb(66,133,244)" transform="translate(0,0)"></path>
<path d="M 0 515.808 C 44.2551 550.924 92.51 583.101 137.777 616.994 C 170.497 641.493 203.046 667.897 237.256 690.371 C 237.271 701.143 237.22 711.915 237.105 722.687 L 72.4845 602.048 C 48.7164 584.577 23.3521 567.986 0 550.172 L 0 515.808 z" fill="rgb(66,133,244)" transform="translate(0,0)"></path>
<path d="M 269.955 0 L 283.496 0 C 290.571 5.4641 320.991 28.6197 323.618 34.5863 C 318.042 33.9144 277.823 5.10404 269.955 0 z" fill="rgb(66,133,244)" transform="translate(0,0)"></path>
<path d="M 643.716 945.56 C 644.124 942.231 645.003 924.612 645.335 924.336 C 650.238 943.473 645.892 939.414 646.034 953.926 L 644.88 954.674 C 643.429 952.994 643.818 948.358 643.716 945.56 z" fill="rgb(66,133,244)" transform="translate(0,0)"></path>
<path d="M 269.676 529.939 C 260.905 538.839 255.47 540.263 246.645 546.871 C 243.475 563.079 240.479 577.274 238.881 593.761 C 236.323 620.142 237.608 647.66 235.068 673.776 C 231.445 656.004 236.43 595.314 237.371 574.505 C 237.623 568.913 242.056 555.676 241.534 549.057 C 220.066 569.73 169.805 598.644 142.411 611.771 C 153.135 599.884 185.633 581.306 200.267 571.598 C 213.677 562.703 229.096 552.585 242.686 543.98 C 248.674 539.67 262.52 533.378 269.676 529.939 z" fill="rgb(66,133,244)" transform="translate(0,0)"></path>
<path d="M 879.96 0 L 896.408 0 C 890.484 274.387 882.4 548.724 872.154 822.984 L 866.446 971.192 C 866.097 980.782 865.377 1026.36 863.454 1033.23 L 859.505 1033.81 C 844.534 1024.62 850.849 963.352 851.574 946.636 L 854.707 858.127 L 865.638 534.302 C 867.527 490.884 868.295 446.522 869.655 403.007 L 879.96 0 z" fill="rgb(66,133,244)" transform="translate(0,0)"></path>
<path d="M 384.04 1198.49 C 394.393 1200.49 399.981 1209.41 408.796 1213.44 L 408.122 1213.32 L 407.887 1211.73 C 404.543 1207.95 397.896 1203.69 393.431 1201.17 L 393.603 1200.2 C 397.84 1202.32 438.344 1229.45 440.219 1232.05 C 454.895 1241.04 470.735 1252.84 485.076 1262.78 L 577.848 1327.07 C 638.062 1367.51 697.174 1409.55 755.119 1453.17 C 781.16 1472.56 816.179 1497.46 839.646 1518.98 C 841.476 1520.69 844.432 1523.28 845.985 1525.05 C 846.735 1528.94 847.413 1528.74 845.942 1531.45 C 842.685 1531.13 838.794 1527.05 835.833 1524.83 C 825.849 1517.83 816.062 1510.56 806.486 1503.01 C 802.584 1499.9 793.812 1491.93 790.133 1489.95 C 760.731 1474.19 735.088 1452.51 708.226 1432.62 L 616.755 1366.02 C 573.467 1334.42 523.589 1300.92 482.124 1268.66 C 474.63 1263.54 467.004 1257.68 459.65 1252.3 C 434.735 1234.06 408.732 1217.01 384.04 1198.49 z" fill="rgb(66,133,244)" transform="translate(0,0)"></path>
<path d="M 650.355 797.192 L 650.87 800.8 L 651.938 800.193 C 654.075 788.469 652.985 758.41 654.255 752.976 L 655.106 753.583 C 656.017 762.201 655.54 782.12 655.346 791.681 C 655.095 804.114 655.644 821.091 654.877 833.143 C 654.663 827.68 654.396 825.939 653.2 820.594 C 650.996 821.803 651.483 854.037 649.073 857.152 L 648.015 856.13 C 647.507 848.918 648.917 803.499 650.355 797.192 z" fill="rgb(83,93,160)" transform="translate(0,0)"></path>
<path d="M 0 950.782 L 529.289 1327.8 L 720.665 1464.65 C 739.755 1478.24 758.801 1492.22 777.705 1506.1 C 792.15 1516.7 815.369 1531.51 828.279 1542.78 C 806.57 1559.72 779.907 1576.01 756.919 1591.55 L 627.213 1679.62 C 617.141 1669.56 602.724 1659.93 591.019 1651.54 L 534.125 1611.43 L 382.474 1503.82 C 345.808 1477.85 308.729 1449.3 272.007 1422.72 C 208.069 1376.94 143.496 1332.04 78.3054 1288.06 C 56.4515 1273.5 34.2124 1259.49 12.9122 1244.15 C 8.94776 1241.3 4.18358 1237.3 0 1234.91 L 0 950.782 z" fill="rgb(66,133,244)" transform="translate(0,0)"></path>
<path d="M 942.315 0 L 1052.13 0 C 1050.02 97.3066 1047.14 194.595 1043.5 291.857 L 1016.12 1231.62 L 1007.03 1603.68 L 1004.6 1705.06 C 1004.41 1713.39 1004.28 1745.22 1003.13 1750.92 C 1003.13 1758.23 1003.47 1767.1 1002.05 1774.11 L 1000.55 1773.31 C 976.036 1764.19 943.134 1740.84 919.994 1727.44 C 906.17 1719.43 890.667 1705.75 876.913 1696.61 C 852.362 1679.74 827.971 1662.59 803.712 1645.31 C 797.518 1640.89 794.558 1640.19 793.594 1632.66 L 792.083 1632.61 C 782.258 1638.48 773.123 1644.04 763.654 1650.57 C 757.113 1656.09 741.889 1665.43 734.127 1670.41 C 713.791 1683.35 693.344 1696.12 672.789 1708.71 C 663.37 1714.51 634.124 1733.45 625.649 1737.49 C 619.837 1733.67 615.482 1730.28 610.692 1725.14 C 643.948 1701.12 685.367 1684.59 722.551 1667.08 C 729.226 1663.94 751.309 1653.23 757.32 1651.47 C 767.036 1644.9 776.857 1638.49 786.78 1632.23 L 793.03 1627.92 C 799.814 1622.51 805.602 1617.92 812.772 1613.04 C 815.855 1610.18 830.959 1599.54 834.685 1599.22 C 832.702 1603.13 818.764 1612.18 813.145 1617.77 L 812.496 1620.52 C 833.859 1608.89 865.101 1584.58 883.775 1569.71 C 888.141 1573.87 893.155 1576.9 898.189 1580.22 L 905.162 1575.3 C 904.819 1566.01 904.421 1523.07 907.248 1516.72 C 911.135 1519.55 910.119 1519.81 913.575 1519.3 C 917.886 1515.28 921.021 1517.46 918.642 1507.31 C 916.241 1504.34 917.706 1505.22 914.311 1504.25 C 910.776 1505.29 909.453 1507.81 907.084 1510.8 C 903.93 1504.2 908.474 1393.05 908.833 1375.64 C 912.434 1157.91 917.513 940.196 924.07 722.527 C 928.902 587.469 935.995 452.544 937.82 317.363 C 937.882 312.785 940.051 307.504 939.928 303.547 C 937.608 228.835 945.122 153.586 947.772 78.8738 C 948.257 65.1413 944.513 49.3297 943.32 35.4741 C 942.268 23.2607 942.274 12.1817 942.315 0 z" fill="rgb(66,133,244)" transform="translate(0,0)"></path>
<path d="M 0 1256.26 C 38.0881 1284.49 79.1588 1309.17 116.991 1338.02 C 132.714 1350.01 151.96 1361.02 168.401 1372.19 C 194.28 1389.9 219.908 1407.97 245.277 1426.4 L 453.705 1577.58 C 500.301 1610.89 548.247 1642.52 594.344 1676.6 C 600.149 1680.9 606.474 1685.4 612.46 1689.37 C 598.714 1699.07 580.963 1714.65 568.422 1722.2 L 367.008 1585.13 C 283.712 1527.42 202.507 1466.72 117.492 1411.35 C 89.4706 1393.1 62.5824 1371.58 34.239 1353.52 C 23.615 1346.46 10.1205 1334.98 0 1328.7 L 0 1256.26 z" fill="rgb(66,133,244)" transform="translate(0,0)"></path>
<path d="M 21.8555 1307.84 C 45.0645 1314.3 168.893 1410.43 196.14 1429.55 C 235.842 1456.92 274.099 1486.23 313.818 1513.58 C 319.647 1518.06 325.663 1522.57 331.353 1527.22 C 357.476 1548.61 386.043 1567.89 411.228 1590.3 C 399.694 1587.11 334.822 1537.69 320.933 1527.72 L 139.215 1395.25 C 99.8341 1366.26 60.4522 1338.03 21.8555 1307.84 z" fill="rgb(115,52,103)" transform="translate(0,0)"></path>
<path d="M 438.752 1609.78 C 448.052 1611.38 559.503 1689.16 571.243 1698.68 C 572.097 1701.35 571.406 1701.12 569.671 1704.57 C 568.652 1705.34 567.544 1706 566.465 1706.69 C 561.286 1705.16 544.952 1690.32 539.342 1686.02 C 517.21 1669.08 494.458 1653 472.135 1636.38 C 460.211 1627.51 451.98 1618.79 438.752 1609.78 z" fill="rgb(115,52,103)" transform="translate(0,0)"></path>
<path d="M 563.282 1743.12 C 571.094 1739.85 580.005 1735.88 587.893 1733.09 C 603.057 1743.98 613.554 1754.88 627.32 1766.17 C 647.276 1782.58 667.803 1798.28 688.863 1813.24 C 800.282 1892.83 915.467 1967.44 1026.13 2048 L 971.792 2048 C 953.876 2033.52 935.939 2018.75 918.193 2004.07 C 856.577 1953.1 789.587 1908.41 724.803 1861.55 C 710.02 1850.86 695.973 1839.16 681.302 1828.33 C 659.208 1812.31 636.929 1796.55 614.47 1781.05 C 594.827 1767.39 581.473 1758.8 563.282 1743.12 z" fill="rgb(66,133,244)" transform="translate(0,0)"></path>
<path d="M 1301.57 1620.84 C 1307.25 1623.12 1326.56 1638.06 1332.91 1642.34 L 1437.23 1713.75 C 1450.85 1723.26 1463.03 1733.14 1477.01 1742.41 C 1463.57 1752.58 1447.89 1762.8 1433.95 1772.61 C 1400.14 1796.84 1366.02 1820.62 1331.6 1843.97 L 1181.22 1949.78 C 1156.19 1967.33 1131.38 1985.2 1106.8 2003.38 C 1085.35 2019.09 1071.71 2030.18 1048.34 2043.35 C 1042.7 2039.62 1033.37 2031.65 1027.32 2027.14 L 970.403 1985.2 C 919.534 1948.88 868.195 1913.23 816.401 1878.24 L 694.606 1792.49 C 681.8 1783.39 649.965 1758.67 638.076 1752.51 C 675.413 1727.48 713.537 1703.64 752.39 1681.03 C 764.99 1673.6 775.363 1666.18 788.448 1659.34 C 839.598 1693.9 888.566 1732.87 938.284 1769.28 C 957.445 1783.31 997.533 1814.85 1016.23 1824.81 C 1031.01 1816.46 1059.42 1794.29 1075.06 1783.24 C 1128.14 1745.79 1180.76 1707.69 1232.91 1668.95 C 1250.39 1656.22 1284.29 1629.2 1301.57 1620.84 z" fill="rgb(66,133,244)" transform="translate(0,0)"></path>
<metadata><recraft-signature>{"signed_by": "recraft", "signature_b64": "DSuJ8TaOkWIAhVSUmFWhFGpWVWeoFIgKBLyXpuSVXBAQTzYqQfL8UzEn3Z6C4Gge0sqU5ud0NZEHbAymfZUPDw==", "signing_algo": "Ed25519", "generation_timestamp": 1777675922, "identifier": "3add57a7-e358-426f-ba30-e8a92d272a15"}</recraft-signature></metadata></svg>