<svg xmlns="http://www.w3.org/2000/svg" height="1024" preserveAspectRatio="none" style="display: block;" version="1.1" viewBox="0 0 2048 2048" width="1024">
<defs>
	<linearGradient gradientUnits="userSpaceOnUse" id="Gradient1" x1="982.908" x2="989.783" y1="1248.11" y2="1264.16">
		<stop class="stop0" offset="0" stop-color="rgb(199,182,232)" stop-opacity="1"></stop>
		<stop class="stop1" offset="1" stop-color="rgb(222,214,244)" stop-opacity="1"></stop>
	</linearGradient>
	<linearGradient gradientUnits="userSpaceOnUse" id="Gradient2" x1="986.561" x2="1032.33" y1="1265.15" y2="646.881">
		<stop class="stop0" offset="0" stop-color="rgb(57,141,255)" stop-opacity="1"></stop>
		<stop class="stop1" offset="1" stop-color="rgb(128,168,254)" stop-opacity="1"></stop>
	</linearGradient>
	<linearGradient gradientUnits="userSpaceOnUse" id="Gradient3" x1="1436.68" x2="1441.8" y1="1347.9" y2="1344.68">
		<stop class="stop0" offset="0" stop-color="rgb(201,178,218)" stop-opacity="1"></stop>
		<stop class="stop1" offset="1" stop-color="rgb(242,204,244)" stop-opacity="1"></stop>
	</linearGradient>
	<linearGradient gradientUnits="userSpaceOnUse" id="Gradient4" x1="306.066" x2="325.856" y1="421.739" y2="434.873">
		<stop class="stop0" offset="0" stop-color="rgb(59,72,168)" stop-opacity="1"></stop>
		<stop class="stop1" offset="1" stop-color="rgb(58,105,203)" stop-opacity="1"></stop>
	</linearGradient>
	<linearGradient gradientUnits="userSpaceOnUse" id="Gradient5" x1="415.07" x2="420.372" y1="336.743" y2="343.835">
		<stop class="stop0" offset="0" stop-color="rgb(49,84,186)" stop-opacity="1"></stop>
		<stop class="stop1" offset="1" stop-color="rgb(56,108,204)" stop-opacity="1"></stop>
	</linearGradient>
</defs>
<path d="M 0 0 L 1668.28 0 L 2048 0 L 2048 853.295 L 2048 1575.83 L 2048 2048 L 1459.58 2048 L 913.543 2048 L 0 2048 L 0 1275.79 L 0 0 z" fill="rgb(66,133,244)" transform="translate(0,0)"></path>
<path d="M 0 0 L 1668.28 0 L 2048 0 L 2048 853.295 C 2031.31 824.292 2017.82 795.741 2001.74 766.764 C 1977.22 721.679 1949.11 678.643 1917.68 638.072 C 1909.92 626.477 1869.89 578.702 1860.04 573.378 C 1849.23 562.915 1835.99 547.639 1825.18 536.285 C 1823.23 538.245 1823.35 537.702 1822.24 540.032 C 1818.95 535.31 1815.59 530.636 1812.16 526.013 L 1812.42 524.648 C 1802.35 512.953 1794.86 498.734 1785.3 486.444 C 1736.55 423.784 1681.89 357.515 1615.8 312.385 C 1559.12 273.688 1498.31 228.62 1434.45 202.757 C 1325.42 156.91 1207.94 125.888 1089.07 121.137 C 1071.98 120.454 1054.92 121.766 1037.84 121.994 C 1016.08 122.285 994.206 120.316 972.465 122.061 C 935.547 124.648 902.227 130.212 866.133 137.403 C 792.084 151.497 719.667 173.113 650.007 201.913 C 601.147 221.833 552.989 245.308 507.704 272.453 C 505.112 274.008 494.303 280.363 492.875 282.285 C 484.034 287.107 466.936 297.597 459.146 303.633 C 431.964 319.774 369.568 368.998 347.857 391.772 C 322.515 414.526 293.154 440.637 272.239 467.845 C 265.678 474.232 258.213 485.224 252.101 492.647 C 237.69 510.148 223.861 528.127 210.923 546.766 C 190.103 572.388 168.289 610.15 152.556 639.416 C 150.86 642.572 144.442 654.392 143.611 656.806 C 139.246 664.605 136.16 670.558 132.455 678.68 C 131.097 681.457 127.057 689.257 126.29 691.77 C 108.872 723.366 94.7205 768.368 83.7539 802.738 C 55.0599 892.666 41.5947 987.067 44.4664 1081.35 C 46.0444 1133.16 52.5035 1173.95 62.1612 1224.84 C 64.3751 1235.58 67.4372 1245.88 70.1504 1256.5 C 72.333 1265.04 73.6693 1274.24 75.9758 1282.67 C 90.0588 1334.13 109.939 1383.81 135.235 1430.78 C 138.032 1435.9 150.363 1457.68 153.354 1461.26 C 169.252 1489.18 185.531 1512.45 204.786 1538.12 C 208.718 1543.36 218.218 1556.63 222.589 1560.97 C 224.44 1564.23 237.14 1580.04 240.071 1582.37 C 246.429 1584.2 275.297 1621.08 283.369 1629.45 C 288.186 1633.8 296.052 1644.35 299.014 1646.32 L 303.467 1650.81 C 313.311 1661.48 329.853 1667.16 337.3 1678.06 C 335.443 1685.4 348.554 1694.22 351.471 1702.67 C 357.776 1708.68 359.431 1710.21 363.571 1718.17 C 366.518 1723.2 389.917 1740.01 396.077 1744.56 C 428.566 1769.16 461.007 1805.1 493.803 1830.61 C 498.76 1834.47 504.231 1840.34 508.567 1843.54 C 519.583 1853.01 530.939 1862.08 542.614 1870.72 C 644.913 1945.58 754.125 2004.83 876.855 2038.39 C 887.439 2041.28 903.982 2043.74 913.543 2048 L 0 2048 L 0 1275.79 L 0 0 z" fill="rgb(250,159,176)" transform="translate(0,0)"></path>
<path d="M 303.467 1650.81 C 313.311 1661.48 329.853 1667.16 337.3 1678.06 C 335.443 1685.4 348.554 1694.22 351.471 1702.67 C 357.776 1708.68 359.431 1710.21 363.571 1718.17 C 347.681 1708.84 313.131 1670.92 301.568 1656.16 L 303.467 1650.81 z" fill="rgb(41,65,160)" transform="translate(0,0)"></path>
<path d="M 240.071 1582.37 C 246.429 1584.2 275.297 1621.08 283.369 1629.45 C 281.249 1629.4 279.343 1628.09 277.25 1627.07 C 264.668 1612.33 252.274 1597.43 240.071 1582.37 z" fill="rgb(14,11,37)" transform="translate(0,0)"></path>
<path d="M 277.25 1627.07 C 279.343 1628.09 281.249 1629.4 283.369 1629.45 C 288.186 1633.8 296.052 1644.35 299.014 1646.32 L 303.467 1650.81 L 301.568 1656.16 C 293.283 1646.62 285.175 1636.91 277.25 1627.07 z" fill="rgb(16,25,105)" transform="translate(0,0)"></path>
<path d="M 1812.42 524.648 C 1815.16 526.602 1823.13 533.74 1825.18 536.285 C 1823.23 538.245 1823.35 537.702 1822.24 540.032 C 1818.95 535.31 1815.59 530.636 1812.16 526.013 L 1812.42 524.648 z" fill="rgb(31,61,166)" transform="translate(0,0)"></path>
<path d="M 1822.24 540.032 C 1823.35 537.702 1823.23 538.245 1825.18 536.285 C 1835.99 547.639 1849.23 562.915 1860.04 573.378 C 1869.89 578.702 1909.92 626.477 1917.68 638.072 C 1949.11 678.643 1977.22 721.679 2001.74 766.764 C 2017.82 795.741 2031.31 824.292 2048 853.295 L 2048 1575.83 L 2048 2048 L 1459.58 2048 L 913.543 2048 C 903.982 2043.74 887.439 2041.28 876.855 2038.39 C 754.125 2004.83 644.913 1945.58 542.614 1870.72 C 542.459 1868.99 542.403 1867.6 542.362 1865.86 L 544.872 1863.66 C 601.037 1894.05 661.256 1924.35 722.027 1944.56 C 740.799 1951.32 763.117 1955.11 782.536 1959.11 C 849.771 1972.96 919.886 1981.38 988.514 1975.81 C 1000.31 1975.04 1012.22 1974.86 1024 1973.98 C 1058.25 1971.41 1093.25 1971.75 1126.92 1964.49 C 1145.25 1960.54 1163.9 1956.63 1182.32 1953.28 C 1200.32 1948.86 1218.99 1946.35 1236.99 1942.03 C 1437.72 1893.82 1625.7 1781.35 1768.23 1632.47 C 1768.8 1630.8 1769.16 1628.67 1769.52 1626.9 C 1784.22 1607.93 1802.06 1589.4 1816.53 1569.92 C 1828.85 1553.34 1838.67 1534.98 1850.04 1517.74 C 1871.07 1485.85 1896.11 1448.5 1913.21 1414.33 C 1921.72 1397.32 1934.36 1363.44 1941.77 1344.49 C 1991.13 1215.49 2009.67 1076.73 1995.91 939.297 C 1991.92 898.482 1989.62 867.529 1973.63 828.705 C 1963.53 803.337 1948.67 779.95 1932.26 758.212 C 1924.16 747.472 1912.59 739.54 1907.31 726.763 C 1902.45 713.599 1898.11 699.983 1893.17 686.892 C 1875.27 639.382 1851.26 581.372 1822.24 540.032 z" fill="rgb(66,133,244)" transform="translate(0,0)"></path>
<path d="M 1459.58 2048 C 1462.62 2046.64 1468.98 2044.67 1472.31 2043.59 C 1625.42 1993.99 1764.84 1915.64 1878.7 1801.16 C 1921.28 1759.16 1962.38 1713.18 1994.78 1662.76 C 2012.25 1635.57 2033.01 1604.41 2048 1575.83 L 2048 2048 L 1459.58 2048 z" fill="rgb(250,159,176)" transform="translate(0,0)"></path>
<path d="M 1822.24 540.032 C 1823.35 537.702 1823.23 538.245 1825.18 536.285 C 1835.99 547.639 1849.23 562.915 1860.04 573.378 C 1865.71 582.094 1888.25 617.237 1894.37 622.93 C 1910.55 646.236 1925.5 670.009 1937.9 695.679 C 1946.33 713.132 1952.05 731.13 1959.59 749.325 C 2038.7 940.276 2020.28 1159.47 1949.57 1349.92 C 1942.43 1369.17 1928.95 1388.77 1920.82 1407.91 C 1913.2 1424.44 1906.29 1442.39 1897.99 1458.4 C 1864.14 1522.87 1820.35 1581.62 1768.23 1632.47 C 1768.8 1630.8 1769.16 1628.67 1769.52 1626.9 C 1784.22 1607.93 1802.06 1589.4 1816.53 1569.92 C 1828.85 1553.34 1838.67 1534.98 1850.04 1517.74 C 1871.07 1485.85 1896.11 1448.5 1913.21 1414.33 C 1921.72 1397.32 1934.36 1363.44 1941.77 1344.49 C 1991.13 1215.49 2009.67 1076.73 1995.91 939.297 C 1991.92 898.482 1989.62 867.529 1973.63 828.705 C 1963.53 803.337 1948.67 779.95 1932.26 758.212 C 1924.16 747.472 1912.59 739.54 1907.31 726.763 C 1902.45 713.599 1898.11 699.983 1893.17 686.892 C 1875.27 639.382 1851.26 581.372 1822.24 540.032 z" fill="rgb(31,61,166)" transform="translate(0,0)"></path>
<path d="M 492.875 282.285 C 494.303 280.363 505.112 274.008 507.704 272.453 C 552.989 245.308 601.147 221.833 650.007 201.913 C 719.667 173.113 792.084 151.497 866.133 137.403 C 902.227 130.212 935.547 124.648 972.465 122.061 C 994.206 120.316 1016.08 122.285 1037.84 121.994 C 1054.92 121.766 1071.98 120.454 1089.07 121.137 C 1207.94 125.888 1325.42 156.91 1434.45 202.757 C 1498.31 228.62 1559.12 273.688 1615.8 312.385 C 1681.89 357.515 1736.55 423.784 1785.3 486.444 C 1794.86 498.734 1802.35 512.953 1812.42 524.648 L 1812.16 526.013 C 1815.59 530.636 1818.95 535.31 1822.24 540.032 C 1851.26 581.372 1875.27 639.382 1893.17 686.892 C 1898.11 699.983 1902.45 713.599 1907.31 726.763 L 1905.45 728.794 C 1924.32 800.477 1931.96 859.273 1932.78 933.274 C 1933.56 1003.15 1930.21 1067.53 1909.82 1135.32 C 1903.2 1158.59 1895.04 1183.9 1887.58 1207.11 C 1881.6 1225.74 1871.48 1248.39 1866.36 1266.95 L 1865.56 1265.76 L 1865.28 1262.94 C 1861.73 1267.61 1856.89 1280.1 1854.16 1286.1 C 1832.41 1322.2 1811.5 1368.93 1788.05 1402.82 C 1776.33 1419.74 1719.87 1510.61 1707.48 1518.5 C 1699.92 1521.95 1670.64 1561.92 1663.47 1571.26 C 1656.1 1580.87 1604.02 1621.68 1603.34 1624.5 C 1600.95 1626.44 1600.43 1627.05 1597.69 1628.53 L 1593.71 1627.72 C 1619.14 1599.59 1648.81 1573.45 1672.41 1543.77 C 1739.75 1457.83 1809.01 1367.41 1850.2 1265.55 C 1859.12 1243.5 1868.11 1223.99 1874.94 1200.79 C 1911.7 1075.33 1924.71 938.764 1905.43 809.055 C 1896.89 751.63 1876.31 692.605 1852.08 640.131 C 1837.65 608.885 1825.19 578.104 1807.33 548.109 C 1770.02 485.421 1721.78 430.144 1672.41 376.753 C 1639.54 343.082 1589.21 308.183 1551.86 278.965 C 1532.12 263.523 1497 246.321 1474.78 234.628 C 1330.83 159.101 1168.79 124.871 1006.59 135.725 C 997.137 136.337 939.298 140.228 934.096 141.843 C 906.738 143.511 876.423 150.305 849.437 155.632 C 781.998 168.945 716.296 189.512 652.097 213.908 C 632.095 221.509 610.655 232.692 591.137 241.664 C 579.578 246.978 567.824 251.816 556.269 257.142 C 555.85 258.838 555.595 259.388 554.691 261.013 L 551.869 259.75 C 547.578 261.916 542.378 265.631 538.042 268.226 C 532.989 271.25 524.843 274.373 520.402 277.527 C 513 272.649 507.319 278.325 501.43 279.779 C 498.597 281.122 496.058 282.572 492.875 282.285 z" fill="rgb(50,74,171)" transform="translate(0,0)"></path>
<path d="M 1812.16 526.013 C 1815.59 530.636 1818.95 535.31 1822.24 540.032 C 1851.26 581.372 1875.27 639.382 1893.17 686.892 C 1898.11 699.983 1902.45 713.599 1907.31 726.763 L 1905.45 728.794 C 1900 713.358 1894.75 697.852 1889.29 682.409 C 1876.53 646.348 1858.01 612.546 1841.39 578.176 C 1837.85 570.851 1834.19 563.936 1830.18 556.857 C 1824.5 546.82 1816.64 536.546 1812.16 526.013 z" fill="rgb(179,187,243)" transform="translate(0,0)"></path>
<path d="M 143.611 656.806 L 144.457 661.85 C 143.529 666.174 142.642 668.954 143.04 673.412 L 142.669 681.065 C 142.567 682.712 142.415 682.82 143.023 684.368 L 142.184 685.027 L 141.851 684.725 C 140.048 688.348 137.724 694.265 134.584 696.317 L 135.374 697.855 L 134.208 698.959 C 131.815 704.453 125.531 723.741 121.03 726.095 C 120.017 729.026 120.294 729.804 119.029 732.903 C 112.21 749.607 105.556 766.496 99.3583 783.435 C 99.3214 783.487 99.2846 783.539 99.2477 783.591 C 92.4097 810.37 83.6012 841.578 76.0439 868.217 C 72.4457 882.449 70.657 895.735 66.695 910.522 L 68.9816 911.515 C 67.1471 918.114 62.8301 913.9 66.7056 919.927 C 58.6053 956.357 58.0757 998.475 55.8995 1035.62 C 54.8998 1047.15 53.5997 1085.65 56.6218 1095.94 C 55.7822 1128.61 65.0636 1168.51 71.2283 1200.95 C 75.4229 1223.02 82.1499 1245.98 88.0872 1267.72 C 90.954 1278.21 94.2867 1295.68 97.6047 1304.94 C 118.414 1362.6 145.612 1418.28 179.452 1469.44 C 190.589 1486.28 202.8 1508.62 215.229 1524.13 C 234.881 1548.64 256.885 1575.94 278.449 1598.59 C 319.214 1641.11 364.101 1679.47 412.448 1713.12 C 423.926 1721.25 435.462 1730.3 447.215 1737.95 C 475.318 1756.13 505.403 1771.65 535.242 1786.78 C 543.156 1790.79 554.332 1794.51 562.884 1797.68 C 597.916 1810.65 633.54 1824.2 669.599 1834.04 C 690.091 1839.63 712.045 1842.32 732.734 1847.37 C 768.302 1854.16 804.552 1864.14 840.605 1866.89 C 873.25 1869.38 908.704 1865.46 940.803 1866.97 C 1013.13 1870.37 1082.01 1857.97 1153.01 1845.92 C 1165.26 1843.84 1177.98 1839.37 1190.2 1837.26 L 1191.22 1839.53 C 1143.56 1853.35 1089.95 1867.09 1041.08 1875.73 C 1003.47 1882.38 958.262 1879.06 919.567 1879.02 L 859.49 1878.44 C 854.058 1878.44 829.479 1879.09 825.727 1878.68 C 814.838 1877.46 763.832 1870.72 755.885 1867.36 C 747.573 1861.73 700.425 1857.15 687.671 1850.34 C 680.044 1848.68 668.93 1848.27 661.816 1846.03 C 588.032 1822.76 517.967 1797.12 452.297 1755.33 C 444.809 1750.57 399.83 1718.99 395.956 1718.49 C 393.149 1717.47 385.552 1711.13 382.563 1708.88 C 356.821 1689.53 334.006 1666.55 307.409 1648.3 C 303.757 1645.8 302.905 1645.36 299.014 1646.32 C 296.052 1644.35 288.186 1633.8 283.369 1629.45 C 275.297 1621.08 246.429 1584.2 240.071 1582.37 C 237.14 1580.04 224.44 1564.23 222.589 1560.97 C 218.218 1556.63 208.718 1543.36 204.786 1538.12 C 185.531 1512.45 169.252 1489.18 153.354 1461.26 C 150.363 1457.68 138.032 1435.9 135.235 1430.78 C 109.939 1383.81 90.0588 1334.13 75.9758 1282.67 C 73.6693 1274.24 72.333 1265.04 70.1504 1256.5 C 67.4372 1245.88 64.3751 1235.58 62.1612 1224.84 C 52.5035 1173.95 46.0444 1133.16 44.4664 1081.35 C 41.5947 987.067 55.0599 892.666 83.7539 802.738 C 94.7205 768.368 108.872 723.366 126.29 691.77 C 127.057 689.257 131.097 681.457 132.455 678.68 C 136.16 670.558 139.246 664.605 143.611 656.806 z" fill="rgb(50,74,171)" transform="translate(0,0)"></path>
<path d="M 76.0439 868.217 C 75.3081 863.819 80.4042 829.907 82.1789 825.179 C 83.4809 826.851 83.509 827.42 84.2407 829.431 C 86.7641 822.311 86.7394 814.685 88.5214 807.788 C 89.6864 803.278 96.0944 787.085 99.2477 783.591 C 92.4097 810.37 83.6012 841.578 76.0439 868.217 z" fill="rgb(41,65,160)" transform="translate(0,0)"></path>
<path d="M 153.354 1461.26 C 156.568 1462.44 160.171 1469.01 161.966 1471.96 C 177.795 1498.02 195.663 1522.75 214.072 1547.02 C 217.229 1551.18 220.665 1556.11 222.589 1560.97 C 218.218 1556.63 208.718 1543.36 204.786 1538.12 C 185.531 1512.45 169.252 1489.18 153.354 1461.26 z" fill="rgb(16,25,105)" transform="translate(0,0)"></path>
<path d="M 143.04 673.412 L 142.669 681.065 C 142.567 682.712 142.415 682.82 143.023 684.368 L 142.184 685.027 L 141.851 684.725 C 140.048 688.348 137.724 694.265 134.584 696.317 C 133.094 691.76 135.439 683.84 136.116 678.172 C 138.373 673.887 138.607 673.972 143.04 673.412 z" fill="rgb(41,65,160)" transform="translate(0,0)"></path>
<path d="M 125.628 705.76 C 127.522 702.914 128.991 700.776 131.096 698.088 L 134.208 698.959 C 131.815 704.453 125.531 723.741 121.03 726.095 C 121.857 715.358 124.746 714.416 125.628 705.76 z" fill="rgb(41,65,160)" transform="translate(0,0)"></path>
<path d="M 520.402 277.527 C 524.843 274.373 532.989 271.25 538.042 268.226 C 542.378 265.631 547.578 261.916 551.869 259.75 L 554.691 261.013 C 555.595 259.388 555.85 258.838 556.269 257.142 C 567.824 251.816 579.578 246.978 591.137 241.664 C 610.655 232.692 632.095 221.509 652.097 213.908 C 716.296 189.512 781.998 168.945 849.437 155.632 C 876.423 150.305 906.738 143.511 934.096 141.843 C 928.827 144.68 921.764 145.109 915.811 145.977 C 846.05 156.145 778.914 177.916 712.801 202.287 C 608.138 242.017 510.037 297.243 421.78 366.117 C 408.997 376.246 396.064 388.944 383.888 399.701 C 244.465 522.878 136.134 685.96 90.2425 867.239 C 87.3109 878.82 83.1493 890.621 80.5636 902.343 C 75.9868 917.072 75.1824 949.038 70.2456 961.728 C 66.5713 1000.02 58.2046 1037.72 58.5883 1076.78 C 58.6262 1080.63 57.8224 1092.67 56.6218 1095.94 C 53.5997 1085.65 54.8998 1047.15 55.8995 1035.62 C 58.0757 998.475 58.6053 956.357 66.7056 919.927 C 62.8301 913.9 67.1471 918.114 68.9816 911.515 L 66.695 910.522 C 70.657 895.735 72.4457 882.449 76.0439 868.217 C 83.6012 841.578 92.4097 810.37 99.2477 783.591 C 99.2846 783.539 99.3214 783.487 99.3583 783.435 C 105.556 766.496 112.21 749.607 119.029 732.903 C 120.294 729.804 120.017 729.026 121.03 726.095 C 125.531 723.741 131.815 704.453 134.208 698.959 L 135.374 697.855 L 134.584 696.317 C 137.724 694.265 140.048 688.348 141.851 684.725 L 142.184 685.027 L 143.023 684.368 C 142.415 682.82 142.567 682.712 142.669 681.065 L 143.04 673.412 C 142.642 668.954 143.529 666.174 144.457 661.85 L 143.611 656.806 C 144.442 654.392 150.86 642.572 152.556 639.416 C 168.289 610.15 190.103 572.388 210.923 546.766 C 223.861 528.127 237.69 510.148 252.101 492.647 C 258.213 485.224 265.678 474.232 272.239 467.845 C 293.154 440.637 322.515 414.526 347.857 391.772 C 369.568 368.998 431.964 319.774 459.146 303.633 C 466.936 297.597 484.034 287.107 492.875 282.285 C 496.058 282.572 498.597 281.122 501.43 279.779 C 507.319 278.325 513 272.649 520.402 277.527 z" fill="rgb(250,159,176)" transform="translate(0,0)"></path>
<path d="M 210.923 546.766 C 214.233 547.988 216.195 545.129 218.779 543.054 C 218.717 545.811 218.51 547.929 219.12 550.635 C 209.176 565.101 200.182 580.612 190.804 595.472 C 176.533 618.083 159.074 647.315 148.979 672.331 C 147.969 675.221 148.085 676.729 146.076 678.014 L 144.729 676.071 C 143.59 678.255 143.415 678.713 142.669 681.065 L 143.04 673.412 C 142.642 668.954 143.529 666.174 144.457 661.85 L 143.611 656.806 C 144.442 654.392 150.86 642.572 152.556 639.416 C 168.289 610.15 190.103 572.388 210.923 546.766 z" fill="rgb(41,65,160)" transform="translate(0,0)"></path>
<path d="M 144.457 661.85 L 146.507 660.488 L 146.964 664.016 L 147.935 663.506 L 148.375 660.358 L 149.754 660.276 C 150.041 661.652 148.888 669.073 148.979 672.331 C 147.969 675.221 148.085 676.729 146.076 678.014 L 144.729 676.071 C 143.59 678.255 143.415 678.713 142.669 681.065 L 143.04 673.412 C 142.642 668.954 143.529 666.174 144.457 661.85 z" fill="rgb(66,133,244)" transform="translate(0,0)"></path>
<path d="M 459.146 303.633 C 466.015 304.826 466.629 301.262 476.152 299.538 C 476.065 304.076 476.823 302.311 474.842 305.552 L 471.203 305.141 C 470.543 305.891 468.592 309.899 469.699 309.179 C 447.247 323.776 425.663 339.437 404.061 355.229 C 396.33 360.881 384.797 374.001 377.643 378.202 C 370.592 384.909 364.077 390.77 356.778 397.163 C 355.965 396.567 354.397 395.048 353.595 394.313 C 350.71 393.564 350.468 393.198 347.857 391.772 C 369.568 368.998 431.964 319.774 459.146 303.633 z" fill="url(#Gradient5)" transform="translate(0,0)"></path>
<path d="M 353.595 394.313 C 359.208 388.398 363.631 382.696 370.891 379.176 C 371.321 379.608 371.067 379.422 371.669 379.711 C 373.948 379.006 375.302 378.682 377.643 378.202 C 370.592 384.909 364.077 390.77 356.778 397.163 C 355.965 396.567 354.397 395.048 353.595 394.313 z" fill="rgb(66,133,244)" transform="translate(0,0)"></path>
<path d="M 272.239 467.845 C 293.154 440.637 322.515 414.526 347.857 391.772 C 350.468 393.198 350.71 393.564 353.595 394.313 C 354.397 395.048 355.965 396.567 356.778 397.163 C 350.024 403.395 296.548 457.276 293.885 458.577 L 290.903 457.68 L 289.733 458.694 L 290.517 459.673 C 291.708 461.186 291.261 460.593 292.424 462.355 L 288.116 465.458 L 288.025 466.612 C 286.437 468.529 287.426 467.974 285.143 468.418 L 284.064 469.961 C 282.2 466.61 282.914 466.505 280.153 465.528 C 277.588 466.686 276.906 467.083 274.106 467.551 L 272.239 467.845 z" fill="url(#Gradient4)" transform="translate(0,0)"></path>
<path d="M 272.239 467.845 L 274.106 467.551 C 276.906 467.083 277.588 466.686 280.153 465.528 C 282.914 466.505 282.2 466.61 284.064 469.961 L 284.095 472.38 L 280.915 472.216 C 280.303 474.218 280.302 473.153 281.284 475.391 C 277.461 482.258 270.679 481.822 268.467 485.788 L 270.432 486.956 C 269.024 489.696 268.046 489.354 264.917 489.878 C 261.836 494.848 254.69 508.169 249.906 509.603 L 244.655 509.03 L 244.819 510.304 C 246.801 511.024 248.192 511.384 249.996 512.474 C 247.207 515.638 246.066 512.182 243.697 515.437 L 245.597 516.469 L 245.577 518.147 C 240.589 520.23 242.542 515.866 239.935 519.023 C 239.628 523.453 237.834 522.595 237.01 527.245 L 234.933 527.988 L 231.4 528.869 C 224.597 530.345 223.052 538.072 218.779 543.054 C 216.195 545.129 214.233 547.988 210.923 546.766 C 223.861 528.127 237.69 510.148 252.101 492.647 C 258.213 485.224 265.678 474.232 272.239 467.845 z" fill="rgb(50,74,171)" transform="translate(0,0)"></path>
<path d="M 501.43 279.779 C 507.319 278.325 513 272.649 520.402 277.527 C 515.287 280.38 501.377 288.596 496.065 289.792 L 496.136 291.286 C 489.852 293.769 481.38 302.729 476.152 299.538 C 466.629 301.262 466.015 304.826 459.146 303.633 C 466.936 297.597 484.034 287.107 492.875 282.285 C 496.058 282.572 498.597 281.122 501.43 279.779 z" fill="rgb(41,65,160)" transform="translate(0,0)"></path>
<path d="M 218.779 543.054 C 223.052 538.072 224.597 530.345 231.4 528.869 L 234.933 527.988 C 234.447 533.091 222.918 546.038 219.12 550.635 C 218.51 547.929 218.717 545.811 218.779 543.054 z" fill="rgb(66,133,244)" transform="translate(0,0)"></path>
<path d="M 337.3 1678.06 C 339.874 1680.31 343.44 1683.06 345.163 1685.88 C 353.331 1692.3 361.797 1700.79 369.288 1707.98 C 405.049 1742.31 443.009 1775.15 482.731 1804.84 C 487.074 1808.09 492.305 1811.72 496.243 1815.4 C 519.743 1831.61 540.46 1844.41 565.75 1857.83 C 576.191 1863.36 587.745 1870.57 598.294 1875.6 C 624.961 1888.78 656.123 1908.17 683.284 1918.72 C 711.019 1929.49 744.593 1935.25 773.374 1941.83 C 824.686 1953.57 876.205 1961.18 928.86 1963.21 C 955.948 1964.25 988.916 1960.53 1016.7 1960.04 C 1044.33 1959.56 1073.3 1962.75 1100.13 1960.84 C 1125.66 1959.02 1155.05 1953.46 1180.98 1950.01 L 1182.32 1953.28 C 1163.9 1956.63 1145.25 1960.54 1126.92 1964.49 C 1093.25 1971.75 1058.25 1971.41 1024 1973.98 C 1012.22 1974.86 1000.31 1975.04 988.514 1975.81 C 919.886 1981.38 849.771 1972.96 782.536 1959.11 C 763.117 1955.11 740.799 1951.32 722.027 1944.56 C 661.256 1924.35 601.037 1894.05 544.872 1863.66 L 542.362 1865.86 C 542.403 1867.6 542.459 1868.99 542.614 1870.72 C 530.939 1862.08 519.583 1853.01 508.567 1843.54 C 504.231 1840.34 498.76 1834.47 493.803 1830.61 C 461.007 1805.1 428.566 1769.16 396.077 1744.56 C 389.917 1740.01 366.518 1723.2 363.571 1718.17 C 359.431 1710.21 357.776 1708.68 351.471 1702.67 C 348.554 1694.22 335.443 1685.4 337.3 1678.06 z" fill="rgb(31,61,166)" transform="translate(0,0)"></path>
<path d="M 544.665 1863 C 548.082 1862.54 555.072 1866.9 558.288 1868.7 C 600.275 1892.26 644.731 1910.66 688.597 1930.3 C 694.39 1932.89 720.785 1940.89 722.968 1943.18 L 722.027 1944.56 C 661.256 1924.35 601.037 1894.05 544.872 1863.66 L 544.665 1863 z" fill="rgb(16,25,105)" transform="translate(0,0)"></path>
<path d="M 508.567 1843.54 L 507.477 1840.46 C 515.453 1838.41 534.915 1859.43 544.665 1863 L 544.872 1863.66 L 542.362 1865.86 C 542.403 1867.6 542.459 1868.99 542.614 1870.72 C 530.939 1862.08 519.583 1853.01 508.567 1843.54 z" fill="rgb(50,74,171)" transform="translate(0,0)"></path>
<path d="M 496.243 1815.4 C 519.743 1831.61 540.46 1844.41 565.75 1857.83 C 576.191 1863.36 587.745 1870.57 598.294 1875.6 C 588.863 1876.27 498.346 1822.54 496.243 1815.4 z" fill="rgb(18,36,131)" transform="translate(0,0)"></path>
<path d="M 363.571 1718.17 C 366.083 1718.94 368.387 1719.52 370.761 1719.94 C 378.438 1721.31 392.804 1738.23 396.077 1744.56 C 389.917 1740.01 366.518 1723.2 363.571 1718.17 z" fill="rgb(41,65,160)" transform="translate(0,0)"></path>
<path d="M 337.3 1678.06 C 339.874 1680.31 343.44 1683.06 345.163 1685.88 C 349.206 1692.5 363.722 1703.49 365.296 1707.97 C 358.647 1704.76 356.924 1698.17 352.086 1696.24 L 351.447 1696.91 L 355.491 1701.38 L 355.232 1702.67 L 352.236 1701.81 L 351.471 1702.67 C 348.554 1694.22 335.443 1685.4 337.3 1678.06 z" fill="rgb(50,74,171)" transform="translate(0,0)"></path>
<path d="M 1854.16 1286.1 C 1856.89 1280.1 1861.73 1267.61 1865.28 1262.94 L 1865.56 1265.76 C 1862.45 1272.47 1859.55 1279.27 1856.87 1286.16 C 1820.06 1373.07 1775.08 1448.44 1711.88 1519.19 C 1703.76 1528.28 1692.53 1543.1 1683.16 1549.72 C 1690.11 1539.67 1701.3 1528.06 1707.48 1518.5 C 1719.87 1510.61 1776.33 1419.74 1788.05 1402.82 C 1811.5 1368.93 1832.41 1322.2 1854.16 1286.1 z" fill="rgb(66,133,244)" transform="translate(0,0)"></path>
<path d="M 1769.52 1626.9 C 1769.16 1628.67 1768.8 1630.8 1768.23 1632.47 C 1625.7 1781.35 1437.72 1893.82 1236.99 1942.03 C 1218.99 1946.35 1200.32 1948.86 1182.32 1953.28 L 1180.98 1950.01 C 1211.02 1947.53 1264.57 1933.56 1294.35 1924.54 C 1475.83 1868.12 1639.56 1765.57 1769.52 1626.9 z" fill="rgb(18,36,131)" transform="translate(0,0)"></path>
<path d="M 1865.56 1265.76 L 1866.36 1266.95 C 1855.4 1296.4 1824.86 1365.34 1808.62 1391.81 C 1763.13 1465.95 1696.42 1548.24 1629.34 1604.24 C 1621.8 1610.53 1611.2 1619.42 1603.34 1624.5 C 1604.02 1621.68 1656.1 1580.87 1663.47 1571.26 C 1670.64 1561.92 1699.92 1521.95 1707.48 1518.5 C 1701.3 1528.06 1690.11 1539.67 1683.16 1549.72 C 1692.53 1543.1 1703.76 1528.28 1711.88 1519.19 C 1775.08 1448.44 1820.06 1373.07 1856.87 1286.16 C 1859.55 1279.27 1862.45 1272.47 1865.56 1265.76 z" fill="rgb(18,36,131)" transform="translate(0,0)"></path>
<path d="M 395.956 1718.49 C 399.83 1718.99 444.809 1750.57 452.297 1755.33 C 517.967 1797.12 588.032 1822.76 661.816 1846.03 C 668.93 1848.27 680.044 1848.68 687.671 1850.34 C 700.425 1857.15 747.573 1861.73 755.885 1867.36 C 729.623 1862.29 694.507 1856.59 669.306 1850.2 C 570.531 1824.38 477.7 1779.65 395.956 1718.49 z" fill="rgb(16,25,105)" transform="translate(0,0)"></path>
<path d="M 1190.2 1837.26 C 1222.29 1828.79 1260.12 1815.81 1291.98 1805.46 C 1285.28 1809.66 1275.98 1811.98 1268.58 1814.93 C 1244.18 1824.63 1215.45 1830.9 1191.22 1839.53 L 1190.2 1837.26 z" fill="rgb(18,36,131)" transform="translate(0,0)"></path>
<path d="M 1593.71 1627.72 L 1597.69 1628.53 C 1591.52 1633.4 1570.54 1650.88 1565.19 1652.54 C 1570.14 1646.64 1586.03 1635.4 1593.71 1627.72 z" fill="rgb(18,36,131)" transform="translate(0,0)"></path>
<path d="M 294.637 1203.09 C 289.789 1191.67 284.266 1161.49 281.945 1148.36 C 260.556 1027.35 276.077 911.449 320.928 797.444 C 360.937 691.03 435.885 605.241 518.299 529.547 C 565.681 486.029 638.67 442.294 696.514 417.354 C 814.138 366.64 943.741 338.007 1071.75 346.633 C 1110.16 349.222 1145.69 351.289 1183.56 361.865 C 1275.69 379.784 1360.96 412.397 1434.87 471.241 C 1452.53 485.303 1484.89 503.1 1499.76 520.697 C 1550.26 580.489 1610.48 636.042 1638.77 710.858 C 1647.64 734.346 1654.81 753.212 1661.73 776.993 C 1677.67 820.906 1687.76 858.886 1692.85 905.501 C 1701.51 984.692 1702.03 1062.04 1675.15 1138.29 C 1656.86 1190.21 1634.82 1244.27 1604.56 1290.65 C 1587.41 1316.93 1563.37 1341.88 1543.78 1366.58 C 1529.15 1384.49 1518.67 1399.62 1501.8 1415.83 C 1477.12 1440.33 1457.62 1461.14 1428.23 1480.37 C 1395.76 1503.44 1371.97 1524.17 1336.87 1544.48 C 1221.03 1612.45 1089.91 1650.1 955.65 1653.95 C 922.603 1655.17 890.048 1656.22 857.496 1650.59 C 782.934 1637.68 714.161 1627.47 645.283 1593.67 C 633.819 1588.04 618.189 1580.79 607.787 1573.57 C 603.985 1571.59 597.846 1567.67 593.997 1565.36 C 584.046 1560.68 555.974 1542.98 546.269 1536.73 C 541.131 1534.36 537.817 1532.43 533.024 1529.58 C 530.97 1528.88 526.349 1525.55 524.746 1523.82 C 515.769 1518.58 500.794 1506.99 492.897 1500.42 C 486.348 1496.71 447.685 1461.53 441.715 1455.08 C 438.047 1450.96 434.736 1446.8 431.292 1442.52 L 430.712 1441.85 C 414.368 1422.43 400.427 1405.71 385.339 1385.25 C 382.304 1382.65 373.65 1369.13 371.634 1365.25 C 366.205 1356.75 361.26 1347.65 356.305 1338.85 C 355.071 1337.43 349.223 1327.28 347.677 1324.73 C 334.736 1303.3 319.049 1275.75 311.866 1251.7 C 307.708 1244.01 297.157 1211.92 294.637 1203.09 z" fill="rgb(66,133,244)" transform="translate(0,0)"></path>
<path d="M 294.572 962.824 C 296.416 945.247 299.106 927.446 303.961 910.431 C 331.629 813.469 371.597 722.823 435.192 643.676 C 444.529 632.055 455.188 621.168 465.279 610.188 C 485.743 587.921 507.66 565.903 531.196 546.852 C 574.135 512.096 622.72 482.222 670.947 455.417 C 789.747 389.388 951.839 342.078 1088.55 356.975 C 1102.88 358.536 1117.14 361.412 1131.37 363.782 C 1145.98 366.218 1160.96 368.163 1175.32 371.812 C 1203.32 378.933 1231.23 388.388 1259.04 396.34 L 1283.22 405.777 C 1305.29 417.593 1378.9 449.471 1392.58 464.4 L 1389.85 464.257 C 1114.56 348.287 743.15 436.513 537.392 649.772 C 476.045 713.355 428.233 789.047 395.653 871.086 C 390.194 884.83 381.855 898.815 375.953 912.758 C 360.61 949.313 351.009 988.019 347.491 1027.51 C 345.546 1048.54 348.734 1057.01 352.814 1077.37 C 354.674 1086.66 351.563 1108.39 353.13 1117.59 C 356.393 1136.75 354.342 1203.58 360.746 1217.29 C 362.09 1228.79 367.13 1244.6 370.359 1256 C 385.101 1308.08 405.593 1359.64 433.82 1405.95 C 437.85 1412.56 447.629 1429.59 453.217 1434.74 C 455.391 1437.45 457.883 1440.32 459.721 1443.21 L 457.37 1444.19 C 456.277 1442.74 452.322 1438.76 450.882 1437.25 C 410.268 1394.85 369.424 1337.5 345.286 1284 C 322.759 1234.07 309.85 1176.37 303.18 1122.33 C 302.179 1114.22 300.577 1088.09 295.971 1082.91 C 291.748 1072.97 299.055 985.871 299.819 969.442 C 297.987 967.252 296.321 965.076 294.572 962.824 z" fill="rgb(66,133,244)" transform="translate(0,0)"></path>
<path d="M 294.637 1203.09 C 289.789 1191.67 284.266 1161.49 281.945 1148.36 C 260.556 1027.35 276.077 911.449 320.928 797.444 C 360.937 691.03 435.885 605.241 518.299 529.547 C 565.681 486.029 638.67 442.294 696.514 417.354 C 814.138 366.64 943.741 338.007 1071.75 346.633 C 1110.16 349.222 1145.69 351.289 1183.56 361.865 C 1275.69 379.784 1360.96 412.397 1434.87 471.241 C 1452.53 485.303 1484.89 503.1 1499.76 520.697 C 1550.26 580.489 1610.48 636.042 1638.77 710.858 C 1647.64 734.346 1654.81 753.212 1661.73 776.993 C 1677.67 820.906 1687.76 858.886 1692.85 905.501 C 1701.51 984.692 1702.03 1062.04 1675.15 1138.29 C 1656.86 1190.21 1634.82 1244.27 1604.56 1290.65 C 1587.41 1316.93 1563.37 1341.88 1543.78 1366.58 C 1529.15 1384.49 1518.67 1399.62 1501.8 1415.83 L 1499.36 1413.05 C 1502.62 1409.83 1507.94 1403.23 1510.7 1399.41 C 1532.15 1369.68 1559.56 1342.81 1580.22 1312.77 C 1598.96 1285.52 1614.88 1253.53 1630.33 1224.02 C 1659.01 1169.22 1673.37 1105.83 1681.66 1044.92 C 1683.18 1034.49 1682.58 1022.76 1683.81 1012.45 C 1691.21 950.595 1683.5 889.321 1667.03 829.542 C 1663.09 815.251 1660.37 799.894 1655.44 785.926 C 1629.22 711.549 1589.23 643.779 1538.14 583.768 C 1528.1 571.979 1519.12 559.185 1508.27 548.116 C 1486.56 527.491 1460.53 506.364 1434.78 491.048 C 1430.87 488.721 1425.57 486.896 1421.21 484.779 L 1422.12 483.805 C 1419.94 483.168 1414.86 476.188 1410.2 473.854 C 1402.11 469.797 1396.75 470.011 1389.85 464.257 L 1392.58 464.4 C 1378.9 449.471 1305.29 417.593 1283.22 405.777 L 1259.04 396.34 C 1231.23 388.388 1203.32 378.933 1175.32 371.812 C 1160.96 368.163 1145.98 366.218 1131.37 363.782 C 1117.14 361.412 1102.88 358.536 1088.55 356.975 C 951.839 342.078 789.747 389.388 670.947 455.417 C 622.72 482.222 574.135 512.096 531.196 546.852 C 507.66 565.903 485.743 587.921 465.279 610.188 C 455.188 621.168 444.529 632.055 435.192 643.676 C 371.597 722.823 331.629 813.469 303.961 910.431 C 299.106 927.446 296.416 945.247 294.572 962.824 C 296.321 965.076 297.987 967.252 299.819 969.442 C 299.055 985.871 291.748 1072.97 295.971 1082.91 C 300.577 1088.09 302.179 1114.22 303.18 1122.33 C 309.85 1176.37 322.759 1234.07 345.286 1284 C 369.424 1337.5 410.268 1394.85 450.882 1437.25 C 452.322 1438.76 456.277 1442.74 457.37 1444.19 C 457.447 1448.42 461.531 1451.15 465.168 1454.89 C 471.431 1460.21 485.294 1473.27 492.251 1475.81 L 492.436 1477.07 C 496.075 1478.99 496.116 1479.87 499.253 1479.26 L 501.117 1477.35 C 505.551 1482.92 531.393 1503.25 538.061 1508.26 C 539.468 1509.24 546.622 1514.12 547.331 1514.97 C 559.87 1523.15 570.364 1532.91 586.427 1536.07 C 586.181 1536.03 623.229 1558.35 627.739 1560.56 C 664.454 1579.79 696.173 1589.6 735.338 1602.23 C 759.867 1608.91 791.495 1622.52 816.557 1625.66 C 887.742 1634.59 962.224 1649.84 1033.73 1638 C 1059.49 1633.73 1089.68 1630.82 1114.95 1624.5 C 1150.38 1615.64 1186.33 1603.15 1221.03 1591.65 C 1235.22 1586.39 1248.91 1576.71 1262.97 1571.41 C 1323.87 1548.46 1372.74 1517.21 1425.85 1480.49 L 1428.23 1480.37 C 1395.76 1503.44 1371.97 1524.17 1336.87 1544.48 C 1221.03 1612.45 1089.91 1650.1 955.65 1653.95 C 922.603 1655.17 890.048 1656.22 857.496 1650.59 C 782.934 1637.68 714.161 1627.47 645.283 1593.67 C 633.819 1588.04 618.189 1580.79 607.787 1573.57 C 603.985 1571.59 597.846 1567.67 593.997 1565.36 C 584.046 1560.68 555.974 1542.98 546.269 1536.73 C 541.131 1534.36 537.817 1532.43 533.024 1529.58 C 530.97 1528.88 526.349 1525.55 524.746 1523.82 C 515.769 1518.58 500.794 1506.99 492.897 1500.42 C 486.348 1496.71 447.685 1461.53 441.715 1455.08 C 438.047 1450.96 434.736 1446.8 431.292 1442.52 L 430.712 1441.85 C 414.368 1422.43 400.427 1405.71 385.339 1385.25 C 382.304 1382.65 373.65 1369.13 371.634 1365.25 C 366.205 1356.75 361.26 1347.65 356.305 1338.85 C 355.071 1337.43 349.223 1327.28 347.677 1324.73 C 334.736 1303.3 319.049 1275.75 311.866 1251.7 C 307.708 1244.01 297.157 1211.92 294.637 1203.09 z" fill="rgb(50,74,171)" transform="translate(0,0)"></path>
<path d="M 295.971 1082.91 C 300.577 1088.09 302.179 1114.22 303.18 1122.33 C 309.85 1176.37 322.759 1234.07 345.286 1284 C 369.424 1337.5 410.268 1394.85 450.882 1437.25 C 452.322 1438.76 456.277 1442.74 457.37 1444.19 C 457.447 1448.42 461.531 1451.15 465.168 1454.89 C 461.124 1453.98 410.672 1394.87 404.903 1386.23 C 389.295 1361.85 367.729 1334.14 354.548 1308.7 C 327.303 1256.11 309.174 1196.34 302.404 1137.56 C 301.165 1126.8 294.723 1091.9 295.971 1082.91 z" fill="rgb(16,25,105)" transform="translate(0,0)"></path>
<path d="M 627.739 1560.56 L 624.469 1561.36 C 614.733 1557.85 596.752 1547.92 588.375 1541.43 L 589.251 1538.32 L 587.82 1537.2 L 586.313 1537.44 L 586.828 1540.22 L 586.146 1540.92 C 576.936 1536.85 549.593 1524.93 547.331 1514.97 C 559.87 1523.15 570.364 1532.91 586.427 1536.07 C 586.181 1536.03 623.229 1558.35 627.739 1560.56 z" fill="rgb(31,61,166)" transform="translate(0,0)"></path>
<path d="M 501.117 1477.35 C 505.551 1482.92 531.393 1503.25 538.061 1508.26 L 537.16 1509.03 C 533.735 1508.55 519.36 1496.74 514.071 1494.56 C 510.406 1493.05 496.691 1485.99 494.859 1483.44 L 501.659 1486.65 L 502.083 1485.95 C 498.826 1483.05 495.477 1480.19 492.436 1477.07 C 496.075 1478.99 496.116 1479.87 499.253 1479.26 L 501.117 1477.35 z" fill="rgb(31,61,166)" transform="translate(0,0)"></path>
<path d="M 385.339 1385.25 C 392.058 1387.77 409.812 1414.61 416.551 1421.67 C 418.59 1423.81 430.693 1438.39 431.184 1440.72 L 430.712 1441.85 C 414.368 1422.43 400.427 1405.71 385.339 1385.25 z" fill="rgb(18,36,131)" transform="translate(0,0)"></path>
<path d="M 492.897 1500.42 C 495.673 1499.66 498.429 1499.27 500.939 1501.32 C 505.757 1505.24 522.837 1519 524.746 1523.82 C 515.769 1518.58 500.794 1506.99 492.897 1500.42 z" fill="rgb(18,36,131)" transform="translate(0,0)"></path>
<path d="M 294.637 1203.09 L 296.095 1202.98 C 299.498 1211.76 311.74 1243.43 312.507 1250.85 L 311.866 1251.7 C 307.708 1244.01 297.157 1211.92 294.637 1203.09 z" fill="rgb(16,25,105)" transform="translate(0,0)"></path>
<path d="M 356.305 1338.85 L 357.824 1336.69 C 362.019 1339.67 371.7 1359.06 371.634 1365.25 C 366.205 1356.75 361.26 1347.65 356.305 1338.85 z" fill="rgb(18,36,131)" transform="translate(0,0)"></path>
<path d="M 1259.04 396.34 C 1264.05 394.562 1279.47 401.015 1283.4 404.715 L 1283.22 405.777 L 1259.04 396.34 z" fill="rgb(18,36,131)" transform="translate(0,0)"></path>
<path d="M 431.292 1442.52 C 436.272 1442.52 443.517 1448.58 441.715 1455.08 C 438.047 1450.96 434.736 1446.8 431.292 1442.52 z" fill="rgb(18,36,131)" transform="translate(0,0)"></path>
<path d="M 593.997 1565.36 C 599.107 1564.04 607.002 1567.74 607.787 1573.57 C 603.985 1571.59 597.846 1567.67 593.997 1565.36 z" fill="rgb(18,36,131)" transform="translate(0,0)"></path>
<path d="M 533.024 1529.58 C 537.064 1529.57 543.755 1533.21 546.978 1535.73 L 546.269 1536.73 C 541.131 1534.36 537.817 1532.43 533.024 1529.58 z" fill="rgb(18,36,131)" transform="translate(0,0)"></path>
<path d="M 360.746 1217.29 C 354.342 1203.58 356.393 1136.75 353.13 1117.59 C 351.563 1108.39 354.674 1086.66 352.814 1077.37 C 348.734 1057.01 345.546 1048.54 347.491 1027.51 C 351.009 988.019 360.61 949.313 375.953 912.758 C 381.855 898.815 390.194 884.83 395.653 871.086 C 428.233 789.047 476.045 713.355 537.392 649.772 C 743.15 436.513 1114.56 348.287 1389.85 464.257 C 1396.75 470.011 1402.11 469.797 1410.2 473.854 C 1414.86 476.188 1419.94 483.168 1422.12 483.805 L 1421.21 484.779 C 1411.07 483.036 1394.57 473.856 1383.94 470.446 C 1326.19 451.92 1268.75 435.641 1207.94 432.151 C 1134.81 427.954 1063.66 429.572 992.295 446.698 C 972.561 449.029 944.54 457.259 924.352 462.55 C 785.724 499.081 659.479 572.24 558.857 674.356 C 505.836 727.738 468.534 777.609 437.681 846.77 C 432.646 858.056 425.642 869.092 421.27 880.78 C 397.783 941.816 381.006 1013.2 374.618 1078.13 C 372.705 1097.57 372.725 1119.94 372.823 1139.51 C 372.88 1151.03 375.168 1167.93 374.694 1178.23 C 376.456 1193.78 378.43 1205.65 382.365 1221.11 C 384.421 1229.18 387.634 1239 389.343 1246.8 C 394.129 1255.22 397.148 1274.23 401.18 1283.84 C 403.142 1291.63 404.409 1295.73 407.395 1303.22 L 407.497 1304.26 C 410.541 1311.24 413.664 1318.17 416.867 1325.07 C 418.554 1328.07 420.68 1331.52 421.764 1334.71 C 431.717 1352.77 440.961 1371.21 449.475 1389.99 C 450.947 1392.6 451.923 1393.77 452.601 1396.64 L 463.773 1417.75 C 469.295 1426.08 499.322 1471.1 501.117 1477.35 L 499.253 1479.26 C 496.116 1479.87 496.075 1478.99 492.436 1477.07 L 492.251 1475.81 C 485.294 1473.27 471.431 1460.21 465.168 1454.89 C 461.531 1451.15 457.447 1448.42 457.37 1444.19 L 459.721 1443.21 C 457.883 1440.32 455.391 1437.45 453.217 1434.74 C 447.629 1429.59 437.85 1412.56 433.82 1405.95 C 405.593 1359.64 385.101 1308.08 370.359 1256 C 367.13 1244.6 362.09 1228.79 360.746 1217.29 z" fill="rgb(31,61,166)" transform="translate(0,0)"></path>
<path d="M 360.746 1217.29 L 361.433 1216.96 C 363.644 1222.93 364.099 1226.97 365.645 1232.76 C 385.472 1306.93 415.645 1384.37 462.805 1444.52 L 459.721 1443.21 C 457.883 1440.32 455.391 1437.45 453.217 1434.74 C 447.629 1429.59 437.85 1412.56 433.82 1405.95 C 405.593 1359.64 385.101 1308.08 370.359 1256 C 367.13 1244.6 362.09 1228.79 360.746 1217.29 z" fill="rgb(18,36,131)" transform="translate(0,0)"></path>
<path d="M 459.721 1443.21 L 462.805 1444.52 C 471.335 1454.54 481.817 1465.97 492.35 1473.91 L 492.251 1475.81 C 485.294 1473.27 471.431 1460.21 465.168 1454.89 C 461.531 1451.15 457.447 1448.42 457.37 1444.19 L 459.721 1443.21 z" fill="rgb(18,36,131)" transform="translate(0,0)"></path>
<path d="M 374.694 1178.23 C 376.456 1193.78 378.43 1205.65 382.365 1221.11 C 384.421 1229.18 387.634 1239 389.343 1246.8 L 387.866 1246.54 C 382.736 1239.69 370.256 1186.62 374.694 1178.23 z" fill="rgb(18,36,131)" transform="translate(0,0)"></path>
<path d="M 449.475 1389.99 L 447.724 1390.01 C 443.33 1380.79 438.579 1371.95 433.909 1362.9 C 429.493 1354.34 421.25 1344.19 421.764 1334.71 C 431.717 1352.77 440.961 1371.21 449.475 1389.99 z" fill="rgb(16,25,105)" transform="translate(0,0)"></path>
<path d="M 416.867 1325.07 L 415.794 1325.93 C 412.705 1321.99 405.584 1308.67 407.497 1304.26 C 410.541 1311.24 413.664 1318.17 416.867 1325.07 z" fill="rgb(16,25,105)" transform="translate(0,0)"></path>
<path d="M 463.773 1417.75 L 461.913 1417.4 C 457.709 1411.66 452.163 1403.89 452.601 1396.64 L 463.773 1417.75 z" fill="rgb(18,36,131)" transform="translate(0,0)"></path>
<path d="M 837.379 474.486 L 837.862 475.59 C 820.49 482.338 797.311 494.242 779.967 502.463 C 653.027 562.628 540.275 651.591 463.693 770.418 C 448.985 793.241 437.424 817.939 424.329 841.916 C 419.675 854.842 411.915 866.358 407.558 879.772 C 400.315 902.072 392.504 924.023 385.928 946.528 C 385.276 948.761 379.181 960.44 377.658 961.947 C 378.863 958.091 379.324 956.449 380.047 952.538 L 380.729 949.031 C 378.99 947.811 378.008 947.092 376.162 946.037 C 378.368 936.214 387.703 916.662 388.499 911.19 C 391.028 905.738 391.271 904.139 397.222 902.67 C 399.08 898.494 401.233 890.489 403.031 885.803 C 408.533 871.464 415.166 853.447 423.182 840.507 C 433.606 818.245 443.266 796.15 456.022 774.812 C 460.462 767.384 471.939 755.334 474.985 748.569 C 489.905 715.438 513.407 690.67 536.377 663.122 C 546.176 651.348 552.407 640.883 565.787 632.032 C 579.487 622.968 592.214 609.849 605.378 599.848 C 631.469 582.097 657.379 562.578 684.172 546.018 C 693.001 540.561 702.92 534.183 711.829 529.563 C 736.897 516.842 762.421 505.041 788.351 494.183 C 804.677 487.429 821.133 481.556 837.379 474.486 z" fill="rgb(66,133,244)" transform="translate(0,0)"></path>
<path d="M 388.499 911.19 C 391.028 905.738 391.271 904.139 397.222 902.67 C 396.144 906.221 395.435 909.258 393.601 912.492 L 391.718 913.378 C 390.653 912.638 389.58 911.909 388.499 911.19 z" fill="rgb(50,74,171)" transform="translate(0,0)"></path>
<path d="M 356.042 1043.8 C 355.444 1040.72 356.728 1032.94 358.667 1030.47 C 361.975 1029.15 360.474 1029.01 363.322 1029.97 C 363.34 1038.34 352.824 1033.3 364.13 1043.44 C 364.162 1050.33 361.93 1065.86 358.135 1071.55 L 356.649 1071.46 C 355.121 1067.67 354.999 1056 356.956 1052.24 C 355.922 1049.8 356.12 1046.55 356.042 1043.8 z" fill="rgb(50,74,171)" transform="translate(0,0)"></path>
<path d="M 356.042 1043.8 C 358.337 1047.52 358.048 1046.84 356.956 1052.24 C 355.922 1049.8 356.12 1046.55 356.042 1043.8 z" fill="rgb(66,133,244)" transform="translate(0,0)"></path>
<path d="M 372.457 957.407 L 373.697 958.004 C 374.879 960.115 374.699 959.401 374.004 962.594 C 370.131 980.375 361.031 1009.45 361.019 1027.68 L 359.525 1027.68 C 356.915 1022.05 370.008 966.527 372.457 957.407 z" fill="rgb(66,133,244)" transform="translate(0,0)"></path>
<path d="M 837.379 474.486 C 841.604 472.345 845.88 469.648 850.455 469.272 C 849.991 469.257 847.928 469.764 847.386 469.883 L 849.415 470.646 C 845.191 472.8 842.316 473.919 837.862 475.59 L 837.379 474.486 z" fill="rgb(50,74,171)" transform="translate(0,0)"></path>
<path d="M 1499.36 1413.05 L 1501.8 1415.83 C 1477.12 1440.33 1457.62 1461.14 1428.23 1480.37 L 1425.85 1480.49 C 1456.07 1459.36 1475.94 1441.2 1499.36 1413.05 z" fill="rgb(41,65,160)" transform="translate(0,0)"></path>
<path d="M 571.818 770.028 C 611.823 757.947 663.52 736.145 703.975 721.007 C 802.986 683.99 901.601 645.921 999.802 606.806 L 1141.58 551.835 C 1162.14 543.759 1183.37 537.407 1203.02 527.35 L 1204 528.389 L 1203.21 530.465 C 1204.8 532.67 1205.83 534.044 1207.62 536.146 L 1207.33 537.965 C 1202 540.185 1198.7 540.111 1193.23 543.146 L 1192.09 545.521 C 1196.32 544.38 1197.55 543.132 1200.48 544.595 L 1202.9 549.974 C 1210.59 547.92 1211.24 547.125 1217.96 551.396 L 1222.97 552.597 L 1220.28 548.758 C 1228.59 546.746 1242.74 560.059 1245.25 556.57 C 1271.17 573.334 1297.38 587.347 1322.13 606.318 C 1333.03 614.675 1352.59 620.384 1365.22 630.205 L 1368.03 632.12 C 1368.26 634.435 1368.34 634.377 1367.79 636.608 L 1368.54 637.44 C 1367.3 642.601 1367.37 645.361 1367.25 650.568 C 1368.21 655.056 1369.05 660.19 1371.26 664.096 L 1371.24 668.962 C 1376.46 686.622 1376.36 712.936 1382.12 731.282 C 1383.38 745.132 1387.46 758.065 1389.55 771.205 C 1395.37 807.756 1404.76 843.305 1413.32 879.367 C 1432.39 962.381 1452.6 1045.13 1473.95 1127.58 C 1482.98 1162.93 1490.69 1200.14 1499.55 1235.65 C 1504.06 1253.71 1506.86 1270.64 1512.39 1288.74 L 1513.08 1292.97 C 1513.84 1296.22 1513.59 1296.24 1515.85 1298.6 C 1518.42 1298.01 1518.28 1297.91 1520.39 1296.26 C 1521.93 1297.89 1521.54 1297.04 1521.97 1298.6 L 1528.71 1301.75 C 1530.56 1304.65 1530.04 1309.55 1530.2 1313.56 C 1528.15 1316.56 1520.23 1319.3 1516.35 1321.11 C 1510.94 1323.66 1505.51 1326.17 1500.06 1328.65 C 1490.57 1332.5 1481.13 1336.47 1471.74 1340.56 L 1468.44 1341.86 L 1444.51 1351.59 L 1442.1 1352.51 C 1434.58 1355.46 1427.09 1358.47 1419.62 1361.52 C 1407.29 1366.47 1394.27 1371.25 1382.13 1376.33 C 1374.29 1379.32 1355.53 1386 1348.77 1389.61 C 1339.29 1392.84 1327.38 1399.28 1317.99 1399.7 L 1318.67 1401.65 C 1310.96 1406.91 1281.06 1417.21 1270.3 1421.35 L 1160.49 1463.16 C 1139.17 1472.9 1115.72 1481.05 1093.87 1489.68 C 1053.55 1505.61 1011.97 1524.34 970.318 1536.44 C 947.26 1543.13 944.211 1541.5 922.184 1554.97 C 916.637 1551.13 913.22 1548.29 908.788 1543.07 L 908.43 1542.98 C 902.603 1545.84 897.78 1545.09 892.181 1541.54 C 872.271 1528.43 852.663 1514.41 833.373 1500.37 C 813.521 1485.92 791.499 1473.21 771.991 1458.52 C 763.75 1454.75 736.224 1434.9 731.237 1425.96 C 729.53 1414.19 719.334 1388.82 716.032 1372.99 C 697.24 1285.13 676.816 1197.63 654.771 1110.53 C 646.582 1077.02 636.316 1045.92 629.48 1011.2 C 622.724 983.037 615.838 951.857 608.223 924.228 C 601.379 907.018 598.623 890.389 593.438 873.16 C 582.93 838.241 577.589 805.762 571.818 770.028 z" fill="rgb(66,133,244)" transform="translate(0,0)"></path>
<path d="M 1358.27 1176.78 L 1360.43 1176.89 C 1361.05 1178.6 1361.41 1179.83 1361.88 1181.59 C 1364.3 1183.22 1366.94 1183.13 1369.93 1183.44 L 1369.93 1185.01 C 1367.07 1185.18 1366.9 1184.85 1364.55 1186 L 1365.52 1187.89 L 1366.61 1187.83 C 1368.26 1187.75 1367.62 1187.77 1369.41 1187.84 C 1369.97 1191.46 1368.69 1192.78 1369.78 1196.33 C 1374.39 1193.75 1376.97 1192.23 1382.3 1194.17 L 1382.13 1195.73 C 1378.88 1197.89 1377.57 1198 1373.85 1198.96 C 1377.42 1200.72 1382.79 1204.7 1385.89 1205.03 C 1388.42 1203.68 1388.22 1203.36 1389.63 1200.74 L 1391.98 1199.85 C 1393.16 1202.29 1392.71 1201.63 1392.62 1204.75 C 1395.97 1207.35 1398 1206.34 1401.48 1204.8 C 1404.62 1206.24 1404.84 1206.85 1407.19 1209.35 C 1408.45 1217.27 1404.8 1217.59 1402.2 1223.86 C 1408.56 1229.1 1449.93 1261.39 1455.74 1263.55 C 1465.27 1270.6 1474.37 1277.88 1483.71 1284.84 C 1487.62 1288.05 1495.65 1293.47 1500.17 1295.84 L 1503.49 1295.35 C 1508.33 1290.37 1507.63 1289.82 1513.08 1292.97 C 1513.84 1296.22 1513.59 1296.24 1515.85 1298.6 C 1518.42 1298.01 1518.28 1297.91 1520.39 1296.26 C 1521.93 1297.89 1521.54 1297.04 1521.97 1298.6 L 1528.71 1301.75 C 1530.56 1304.65 1530.04 1309.55 1530.2 1313.56 C 1528.15 1316.56 1520.23 1319.3 1516.35 1321.11 C 1510.94 1323.66 1505.51 1326.17 1500.06 1328.65 C 1490.57 1332.5 1481.13 1336.47 1471.74 1340.56 L 1468.44 1341.86 L 1444.51 1351.59 L 1442.1 1352.51 C 1434.58 1355.46 1427.09 1358.47 1419.62 1361.52 C 1407.29 1366.47 1394.27 1371.25 1382.13 1376.33 C 1374.29 1379.32 1355.53 1386 1348.77 1389.61 C 1339.29 1392.84 1327.38 1399.28 1317.99 1399.7 L 1318.67 1401.65 C 1310.96 1406.91 1281.06 1417.21 1270.3 1421.35 L 1160.49 1463.16 C 1139.17 1472.9 1115.72 1481.05 1093.87 1489.68 C 1053.55 1505.61 1011.97 1524.34 970.318 1536.44 C 947.26 1543.13 944.211 1541.5 922.184 1554.97 C 916.637 1551.13 913.22 1548.29 908.788 1543.07 L 908.43 1542.98 C 902.603 1545.84 897.78 1545.09 892.181 1541.54 C 872.271 1528.43 852.663 1514.41 833.373 1500.37 C 813.521 1485.92 791.499 1473.21 771.991 1458.52 C 763.75 1454.75 736.224 1434.9 731.237 1425.96 C 731.986 1425.39 734.773 1424.05 735.764 1423.54 C 729.885 1412.39 738.401 1415.87 739.172 1408.14 C 741.066 1410.19 741.607 1415.87 742.281 1419.16 L 743.805 1418.68 C 746.913 1417.06 748.978 1415.7 751.918 1413.77 C 766.853 1407.3 786.77 1400.94 802.57 1395.22 C 829.394 1385.68 855.98 1375.48 882.305 1364.64 C 898.853 1357.93 915.385 1351.54 931.446 1343.72 C 940.693 1339.22 950.165 1334.61 959.633 1330.63 C 1016.77 1307.16 1074.24 1284.52 1132.02 1262.71 C 1182.79 1243.99 1231.72 1224.48 1282.18 1205.48 L 1333.14 1186.37 C 1339.55 1183.98 1352.91 1179.61 1358.27 1176.78 z" fill="rgb(66,133,244)" transform="translate(0,0)"></path>
<path d="M 903.842 1532.67 L 1465.41 1316.02 C 1468.69 1314.79 1489.36 1307.69 1491.7 1307.97 L 1491.93 1311.43 C 1489.72 1311.17 1489.53 1311.17 1487.39 1311.17 L 1486.63 1313.66 C 1488.87 1316.92 1489.24 1316.23 1493.65 1318.08 C 1489.83 1318.67 1481.05 1320.71 1478.31 1323.35 L 1479.9 1325 L 1480.95 1327.51 L 1477.32 1325.38 L 1476.21 1326.16 C 1475.19 1331.21 1474.54 1331.88 1471.41 1336.04 L 1471.74 1340.56 L 1468.44 1341.86 L 1444.51 1351.59 L 1442.1 1352.51 C 1434.58 1355.46 1427.09 1358.47 1419.62 1361.52 C 1407.29 1366.47 1394.27 1371.25 1382.13 1376.33 C 1374.29 1379.32 1355.53 1386 1348.77 1389.61 C 1339.29 1392.84 1327.38 1399.28 1317.99 1399.7 L 1318.67 1401.65 C 1310.96 1406.91 1281.06 1417.21 1270.3 1421.35 L 1160.49 1463.16 C 1139.17 1472.9 1115.72 1481.05 1093.87 1489.68 C 1053.55 1505.61 1011.97 1524.34 970.318 1536.44 C 947.26 1543.13 944.211 1541.5 922.184 1554.97 C 916.637 1551.13 913.22 1548.29 908.788 1543.07 L 908.43 1542.98 C 906.444 1540.07 905.83 1539.94 902.348 1539.03 L 900.574 1538.58 C 900.665 1535.68 901.62 1535.53 903.842 1532.67 z" fill="rgb(31,61,166)" transform="translate(0,0)"></path>
<path d="M 1310.8 1392.99 C 1313.47 1396.95 1313.77 1397.47 1317.99 1399.7 L 1318.67 1401.65 C 1310.96 1406.91 1281.06 1417.21 1270.3 1421.35 L 1160.49 1463.16 C 1139.17 1472.9 1115.72 1481.05 1093.87 1489.68 C 1053.55 1505.61 1011.97 1524.34 970.318 1536.44 C 947.26 1543.13 944.211 1541.5 922.184 1554.97 C 916.637 1551.13 913.22 1548.29 908.788 1543.07 C 919.892 1538.35 939.547 1531.37 951.137 1528.06 C 960.997 1526.63 969.883 1527.24 979.663 1524.53 C 1005.8 1517.31 1032.55 1501.38 1057.73 1493.25 L 1060.45 1494.96 L 1060.7 1492.85 C 1063.31 1489.41 1140.32 1461.76 1152.1 1456.62 C 1158.67 1454.53 1152.67 1457.43 1158.73 1457.12 L 1157.93 1454.93 C 1163.75 1449.79 1168.68 1452.23 1171.41 1450.87 C 1182.09 1445.55 1193.78 1438.52 1206.13 1438.1 C 1207.69 1439.51 1208.12 1432.89 1210.11 1433.77 C 1215.64 1436.2 1215.78 1431.68 1216.13 1431.55 C 1221.12 1429.7 1226.11 1427.78 1231.06 1425.82 L 1280.8 1406 C 1288.4 1402.96 1304.49 1396.86 1310.8 1392.99 z" fill="rgb(179,187,243)" transform="translate(0,0)"></path>
<path d="M 1357.22 1375.84 L 1357.48 1372.62 L 1359.01 1371.98 C 1361.51 1373.46 1360.52 1373.14 1363.32 1373.68 C 1363.42 1372.68 1363.51 1371.68 1363.61 1370.68 C 1368.8 1368.52 1374.23 1366.08 1379.58 1364.42 L 1382.01 1366.96 L 1383.57 1366.49 C 1383.43 1363.7 1383.1 1364.68 1384.26 1362.4 C 1388.31 1362.35 1386.3 1361.99 1390.33 1364.39 L 1390.98 1363.49 L 1389.89 1360.04 L 1390.98 1358.54 C 1392.55 1359.15 1393.42 1359.43 1395.04 1359.86 C 1395.35 1358.07 1395.07 1359.04 1396.08 1357.03 C 1400.12 1355.46 1408.15 1351.41 1411.67 1353.67 C 1414.44 1355.06 1416.33 1356.02 1418.99 1357.7 C 1419.47 1359.64 1419.55 1359.56 1419.62 1361.52 C 1407.29 1366.47 1394.27 1371.25 1382.13 1376.33 C 1374.29 1379.32 1355.53 1386 1348.77 1389.61 C 1346.38 1386.32 1343.36 1383.38 1340.53 1380.42 C 1344.75 1378.09 1345.58 1380.01 1352.12 1375.98 C 1353.96 1376.18 1355.39 1376.07 1357.22 1375.84 z" fill="rgb(226,197,234)" transform="translate(0,0)"></path>
<path d="M 1357.22 1375.84 C 1360.61 1376.51 1360.79 1377.02 1363.1 1379.36 C 1369.04 1378.88 1373.09 1375.67 1378.93 1374.32 C 1379.99 1374.99 1381.06 1375.66 1382.13 1376.33 C 1374.29 1379.32 1355.53 1386 1348.77 1389.61 C 1346.38 1386.32 1343.36 1383.38 1340.53 1380.42 C 1344.75 1378.09 1345.58 1380.01 1352.12 1375.98 C 1353.96 1376.18 1355.39 1376.07 1357.22 1375.84 z" fill="rgb(217,193,235)" transform="translate(0,0)"></path>
<path d="M 1476.21 1326.16 C 1475.19 1331.21 1474.54 1331.88 1471.41 1336.04 L 1471.74 1340.56 L 1468.44 1341.86 L 1444.51 1351.59 L 1442.1 1352.51 C 1437.45 1351.05 1437.95 1349.13 1436.82 1344.86 L 1437.71 1340.27 C 1444.81 1339.16 1452.72 1333.95 1458.55 1334.3 L 1460.99 1331.88 C 1465.89 1330.59 1469.98 1328.49 1474.76 1326.77 L 1476.21 1326.16 z" fill="rgb(226,197,234)" transform="translate(0,0)"></path>
<path d="M 1437.71 1340.27 C 1442.02 1344.23 1443.29 1345.87 1444.51 1351.59 L 1442.1 1352.51 C 1437.45 1351.05 1437.95 1349.13 1436.82 1344.86 L 1437.71 1340.27 z" fill="url(#Gradient3)" transform="translate(0,0)"></path>
<path d="M 1340.53 1380.42 C 1343.36 1383.38 1346.38 1386.32 1348.77 1389.61 C 1339.29 1392.84 1327.38 1399.28 1317.99 1399.7 C 1313.77 1397.47 1313.47 1396.95 1310.8 1392.99 C 1314.42 1390.61 1322.41 1389.74 1326.71 1389.53 L 1325.26 1387.87 C 1326.16 1385.89 1337.28 1381.84 1340.53 1380.42 z" fill="rgb(230,202,233)" transform="translate(0,0)"></path>
<path d="M 1411.67 1353.67 C 1413.3 1350.59 1412.17 1351.73 1415.07 1350.01 C 1417.92 1351.3 1416.89 1351.35 1419.63 1351.12 C 1420.65 1345.51 1424.39 1347.11 1430.11 1345.67 L 1431.37 1342.71 L 1433.36 1342.21 L 1436.82 1344.86 C 1437.95 1349.13 1437.45 1351.05 1442.1 1352.51 C 1434.58 1355.46 1427.09 1358.47 1419.62 1361.52 C 1419.55 1359.56 1419.47 1359.64 1418.99 1357.7 C 1416.33 1356.02 1414.44 1355.06 1411.67 1353.67 z" fill="rgb(230,202,233)" transform="translate(0,0)"></path>
<path d="M 1358.27 1176.78 L 1360.43 1176.89 C 1361.05 1178.6 1361.41 1179.83 1361.88 1181.59 C 1364.3 1183.22 1366.94 1183.13 1369.93 1183.44 L 1369.93 1185.01 C 1367.07 1185.18 1366.9 1184.85 1364.55 1186 L 1365.52 1187.89 L 1366.61 1187.83 C 1368.26 1187.75 1367.62 1187.77 1369.41 1187.84 C 1369.97 1191.46 1368.69 1192.78 1369.78 1196.33 C 1374.39 1193.75 1376.97 1192.23 1382.3 1194.17 L 1382.13 1195.73 C 1378.88 1197.89 1377.57 1198 1373.85 1198.96 C 1377.42 1200.72 1382.79 1204.7 1385.89 1205.03 C 1388.42 1203.68 1388.22 1203.36 1389.63 1200.74 L 1391.98 1199.85 C 1393.16 1202.29 1392.71 1201.63 1392.62 1204.75 C 1395.97 1207.35 1398 1206.34 1401.48 1204.8 C 1404.62 1206.24 1404.84 1206.85 1407.19 1209.35 C 1408.45 1217.27 1404.8 1217.59 1402.2 1223.86 C 1388.84 1213.53 1375.23 1203.53 1361.38 1193.86 C 1293.8 1225.57 1218.4 1248.98 1149.13 1277.72 C 1144.91 1279.47 1139.14 1282.23 1134.91 1283.49 C 1124.4 1288.26 1115.06 1291.57 1104.17 1295.32 C 1094.88 1299.87 1081.45 1304.76 1071.44 1308.79 L 1001.83 1336.29 L 817.738 1410.64 C 810.07 1413.77 771.622 1428.25 768.556 1431.62 C 768.668 1434.82 770.331 1435.92 772.976 1438.72 L 767.219 1438.37 C 761.842 1433.28 750.576 1424.6 743.805 1418.68 C 746.913 1417.06 748.978 1415.7 751.918 1413.77 C 766.853 1407.3 786.77 1400.94 802.57 1395.22 C 829.394 1385.68 855.98 1375.48 882.305 1364.64 C 898.853 1357.93 915.385 1351.54 931.446 1343.72 C 940.693 1339.22 950.165 1334.61 959.633 1330.63 C 1016.77 1307.16 1074.24 1284.52 1132.02 1262.71 C 1182.79 1243.99 1231.72 1224.48 1282.18 1205.48 L 1333.14 1186.37 C 1339.55 1183.98 1352.91 1179.61 1358.27 1176.78 z" fill="rgb(41,65,160)" transform="translate(0,0)"></path>
<path d="M 1104.17 1295.32 L 1104.36 1294.27 C 1107.49 1289.92 1129.33 1281.63 1134.91 1283.49 C 1124.4 1288.26 1115.06 1291.57 1104.17 1295.32 z" fill="rgb(18,36,131)" transform="translate(0,0)"></path>
<path d="M 958.325 1348.14 L 959.509 1348.29 L 960.108 1349.37 C 956.346 1352.3 926.509 1364.26 920.253 1366.55 C 918.843 1366.93 919.654 1366.89 917.84 1366.22 L 918.639 1364.66 C 926.495 1360.14 949.386 1350.6 958.325 1348.14 z" fill="rgb(31,61,166)" transform="translate(0,0)"></path>
<path d="M 1115.43 1281.61 L 1117.59 1282.15 L 1117.39 1283.27 L 1110.44 1285.88 L 1109.1 1285.71 L 1109.37 1284.68 L 1115.43 1281.61 z" fill="rgb(18,36,131)" transform="translate(0,0)"></path>
<path d="M 1500.17 1295.84 L 1503.49 1295.35 C 1508.33 1290.37 1507.63 1289.82 1513.08 1292.97 C 1513.84 1296.22 1513.59 1296.24 1515.85 1298.6 C 1518.42 1298.01 1518.28 1297.91 1520.39 1296.26 C 1521.93 1297.89 1521.54 1297.04 1521.97 1298.6 L 1528.71 1301.75 C 1530.56 1304.65 1530.04 1309.55 1530.2 1313.56 C 1528.15 1316.56 1520.23 1319.3 1516.35 1321.11 C 1510.94 1323.66 1505.51 1326.17 1500.06 1328.65 C 1490.57 1332.5 1481.13 1336.47 1471.74 1340.56 L 1471.41 1336.04 C 1474.54 1331.88 1475.19 1331.21 1476.21 1326.16 L 1477.32 1325.38 L 1480.95 1327.51 L 1479.9 1325 L 1478.31 1323.35 C 1481.05 1320.71 1489.83 1318.67 1493.65 1318.08 C 1489.24 1316.23 1488.87 1316.92 1486.63 1313.66 L 1487.39 1311.17 C 1489.53 1311.17 1489.72 1311.17 1491.93 1311.43 L 1491.7 1307.97 C 1489.36 1307.69 1468.69 1314.79 1465.41 1316.02 L 903.842 1532.67 C 901.62 1535.53 900.665 1535.68 900.574 1538.58 L 902.348 1539.03 C 905.83 1539.94 906.444 1540.07 908.43 1542.98 C 902.603 1545.84 897.78 1545.09 892.181 1541.54 C 872.271 1528.43 852.663 1514.41 833.373 1500.37 C 813.521 1485.92 791.499 1473.21 771.991 1458.52 C 780.661 1457.34 799.148 1472.19 808.545 1475.92 C 814.946 1478.46 824.952 1481.37 829.792 1485.28 L 832.357 1484.1 C 853.617 1502.39 871.942 1516.99 895.297 1532.99 C 934.514 1518.52 974.164 1502.62 1013.36 1487.92 C 1028.1 1482.4 1042.66 1475.04 1057.19 1469.48 L 1209.5 1411.43 C 1231.69 1403.1 1253.57 1396.22 1275.81 1387.32 C 1330.27 1365.42 1384.96 1344.08 1439.87 1323.31 C 1454.83 1317.66 1484.18 1304.55 1498.16 1301.25 L 1502.39 1300.23 L 1503.87 1299.89 L 1504.18 1298.64 L 1500.17 1295.84 z" fill="rgb(18,36,131)" transform="translate(0,0)"></path>
<path d="M 771.991 1458.52 C 780.661 1457.34 799.148 1472.19 808.545 1475.92 C 814.946 1478.46 824.952 1481.37 829.792 1485.28 C 841.124 1495.2 881.45 1529.52 897.009 1533.93 C 897.922 1534.19 902.478 1533.03 903.842 1532.67 C 901.62 1535.53 900.665 1535.68 900.574 1538.58 L 902.348 1539.03 C 905.83 1539.94 906.444 1540.07 908.43 1542.98 C 902.603 1545.84 897.78 1545.09 892.181 1541.54 C 872.271 1528.43 852.663 1514.41 833.373 1500.37 C 813.521 1485.92 791.499 1473.21 771.991 1458.52 z" fill="rgb(50,74,171)" transform="translate(0,0)"></path>
<path d="M 1489.59 1324 L 1489.85 1320.98 L 1491.47 1319.72 C 1494.12 1320.56 1495.61 1320.96 1498.33 1321.53 C 1497.8 1320.53 1498.11 1321.04 1497.18 1319.86 L 1496.41 1318.9 L 1497.36 1317.32 C 1502.27 1316.3 1500.32 1316.25 1505.42 1318.59 C 1505.23 1316.99 1505.2 1316.23 1505.14 1314.64 L 1507.02 1313.95 L 1513.49 1317.38 L 1516.35 1321.11 C 1510.94 1323.66 1505.51 1326.17 1500.06 1328.65 C 1490.57 1332.5 1481.13 1336.47 1471.74 1340.56 L 1471.41 1336.04 C 1474.54 1331.88 1475.19 1331.21 1476.21 1326.16 L 1477.32 1325.38 L 1480.95 1327.51 L 1479.9 1325 C 1481.44 1322.91 1480.87 1323.64 1483.37 1322.26 C 1487.62 1322.2 1485.59 1321.77 1489.59 1324 z" fill="rgb(230,202,233)" transform="translate(0,0)"></path>
<path d="M 1513.49 1317.38 L 1511.32 1315.19 L 1511.44 1313.42 C 1514.3 1311.23 1520.09 1310.8 1523.57 1311 L 1530.2 1313.56 C 1528.15 1316.56 1520.23 1319.3 1516.35 1321.11 L 1513.49 1317.38 z" fill="rgb(226,197,234)" transform="translate(0,0)"></path>
<path d="M 1521.97 1298.6 L 1528.71 1301.75 C 1530.56 1304.65 1530.04 1309.55 1530.2 1313.56 L 1523.57 1311 C 1524.92 1308.39 1525.56 1307.89 1525.19 1305.01 C 1523.25 1302.46 1522.6 1301.86 1521.97 1298.6 z" fill="rgb(230,202,233)" transform="translate(0,0)"></path>
<path d="M 1505.99 1300.58 C 1509.23 1301.81 1510.61 1300.92 1514.03 1301.33 C 1517.08 1303.18 1517.32 1303.03 1519.04 1306.26 L 1518.25 1306.99 C 1514.37 1304.78 1514.2 1304.79 1509.66 1304.44 L 1509.43 1305.82 L 1508.47 1308.43 C 1503.77 1309.76 1501.81 1310.75 1497.72 1308.69 L 1497.63 1306.76 C 1499.86 1302.97 1501.81 1302.6 1505.99 1300.58 z" fill="rgb(66,133,244)" transform="translate(0,0)"></path>
<path d="M 735.764 1423.54 C 729.885 1412.39 738.401 1415.87 739.172 1408.14 C 741.066 1410.19 741.607 1415.87 742.281 1419.16 L 743.805 1418.68 C 750.576 1424.6 761.842 1433.28 767.219 1438.37 L 772.976 1438.72 C 786.012 1448.6 798.992 1458.57 811.916 1468.6 C 818.135 1472.48 826.595 1479.28 832.357 1484.1 L 829.792 1485.28 C 824.952 1481.37 814.946 1478.46 808.545 1475.92 C 799.148 1472.19 780.661 1457.34 771.991 1458.52 C 763.75 1454.75 736.224 1434.9 731.237 1425.96 C 731.986 1425.39 734.773 1424.05 735.764 1423.54 z" fill="rgb(41,65,160)" transform="translate(0,0)"></path>
<path d="M 772.976 1438.72 C 786.012 1448.6 798.992 1458.57 811.916 1468.6 C 801.034 1470.23 778.13 1446.4 765.966 1439.34 L 767.219 1438.37 L 772.976 1438.72 z" fill="rgb(18,36,131)" transform="translate(0,0)"></path>
<path d="M 735.764 1423.54 C 729.885 1412.39 738.401 1415.87 739.172 1408.14 C 741.066 1410.19 741.607 1415.87 742.281 1419.16 L 743.805 1418.68 C 750.576 1424.6 761.842 1433.28 767.219 1438.37 L 765.966 1439.34 C 759.426 1437.49 748.796 1426.77 743.449 1422.56 C 742.643 1421.92 740.62 1425.03 735.764 1423.54 z" fill="rgb(18,36,131)" transform="translate(0,0)"></path>
<path d="M 1222.97 552.597 L 1220.28 548.758 C 1228.59 546.746 1242.74 560.059 1245.25 556.57 C 1271.17 573.334 1297.38 587.347 1322.13 606.318 C 1333.03 614.675 1352.59 620.384 1365.22 630.205 L 1368.03 632.12 C 1368.26 634.435 1368.34 634.377 1367.79 636.608 L 1368.54 637.44 C 1367.3 642.601 1367.37 645.361 1367.25 650.568 C 1368.21 655.056 1369.05 660.19 1371.26 664.096 L 1371.24 668.962 C 1376.46 686.622 1376.36 712.936 1382.12 731.282 C 1383.38 745.132 1387.46 758.065 1389.55 771.205 C 1395.37 807.756 1404.76 843.305 1413.32 879.367 C 1432.39 962.381 1452.6 1045.13 1473.95 1127.58 C 1482.98 1162.93 1490.69 1200.14 1499.55 1235.65 C 1504.06 1253.71 1506.86 1270.64 1512.39 1288.74 L 1513.08 1292.97 C 1507.63 1289.82 1508.33 1290.37 1503.49 1295.35 L 1500.17 1295.84 C 1495.65 1293.47 1487.62 1288.05 1483.71 1284.84 C 1474.37 1277.88 1465.27 1270.6 1455.74 1263.55 C 1449.93 1261.39 1408.56 1229.1 1402.2 1223.86 C 1404.8 1217.59 1408.45 1217.27 1407.19 1209.35 C 1404.84 1206.85 1404.62 1206.24 1401.48 1204.8 C 1398 1206.34 1395.97 1207.35 1392.62 1204.75 C 1392.71 1201.63 1393.16 1202.29 1391.98 1199.85 L 1389.63 1200.74 C 1388.22 1203.36 1388.42 1203.68 1385.89 1205.03 C 1382.79 1204.7 1377.42 1200.72 1373.85 1198.96 C 1377.57 1198 1378.88 1197.89 1382.13 1195.73 L 1382.3 1194.17 C 1376.97 1192.23 1374.39 1193.75 1369.78 1196.33 C 1368.69 1192.78 1369.97 1191.46 1369.41 1187.84 C 1367.62 1187.77 1368.26 1187.75 1366.61 1187.83 L 1365.52 1187.89 L 1364.55 1186 C 1366.9 1184.85 1367.07 1185.18 1369.93 1185.01 L 1369.93 1183.44 C 1366.94 1183.13 1364.3 1183.22 1361.88 1181.59 C 1361.41 1179.83 1361.05 1178.6 1360.43 1176.89 L 1358.27 1176.78 C 1351.82 1165.36 1335.54 1085.85 1331.31 1068.05 C 1329.45 1060.93 1327.81 1053.75 1326.39 1046.52 C 1312.05 981.917 1294.36 917.557 1278.3 853.321 C 1276.07 844.401 1273.23 836.379 1271.65 827.2 C 1270.57 824.851 1267.99 811.995 1267.03 808.499 C 1260.31 783.951 1256.86 758.189 1251.36 733.7 C 1242.67 694.954 1231.61 656.152 1220.81 617.961 C 1214.81 596.729 1210.22 571.622 1203.24 550.947 L 1202.9 549.974 C 1210.59 547.92 1211.24 547.125 1217.96 551.396 L 1222.97 552.597 z" fill="rgb(66,133,244)" transform="translate(0,0)"></path>
<path d="M 1202.9 549.974 C 1210.59 547.92 1211.24 547.125 1217.96 551.396 L 1217.56 552.52 C 1215.39 557.806 1236.06 622.817 1237.58 634.694 C 1242.82 655.499 1249.35 676.299 1254.46 696.751 C 1261.73 714.156 1265.99 741.236 1271.42 759.999 C 1278.92 785.922 1287.85 811.714 1293.97 837.911 C 1294.8 841.457 1297.41 852.163 1297.61 855.24 C 1306.19 897.583 1321.12 946.033 1331.24 988.755 C 1335.6 999.607 1341.81 1032.93 1343.58 1045.14 C 1348.73 1073.39 1354.2 1100.48 1362.5 1128.04 C 1363.75 1132.17 1365.33 1137.34 1366.27 1141.49 C 1369.82 1150.49 1372.36 1160.1 1375.66 1169.29 C 1402.47 1195.1 1436.58 1218.13 1464.6 1243.12 C 1471.8 1249.55 1481.06 1256.51 1487.56 1263.41 C 1490.47 1266.08 1495.21 1271.31 1498.31 1272.5 C 1500.07 1275.45 1500.4 1276.96 1503.05 1278.69 L 1502.8 1278.02 C 1506.15 1281.63 1509.22 1284.95 1512.39 1288.74 L 1513.08 1292.97 C 1507.63 1289.82 1508.33 1290.37 1503.49 1295.35 L 1500.17 1295.84 C 1495.65 1293.47 1487.62 1288.05 1483.71 1284.84 C 1474.37 1277.88 1465.27 1270.6 1455.74 1263.55 C 1449.93 1261.39 1408.56 1229.1 1402.2 1223.86 C 1404.8 1217.59 1408.45 1217.27 1407.19 1209.35 C 1404.84 1206.85 1404.62 1206.24 1401.48 1204.8 C 1398 1206.34 1395.97 1207.35 1392.62 1204.75 C 1392.71 1201.63 1393.16 1202.29 1391.98 1199.85 L 1389.63 1200.74 C 1388.22 1203.36 1388.42 1203.68 1385.89 1205.03 C 1382.79 1204.7 1377.42 1200.72 1373.85 1198.96 C 1377.57 1198 1378.88 1197.89 1382.13 1195.73 L 1382.3 1194.17 C 1376.97 1192.23 1374.39 1193.75 1369.78 1196.33 C 1368.69 1192.78 1369.97 1191.46 1369.41 1187.84 C 1367.62 1187.77 1368.26 1187.75 1366.61 1187.83 L 1365.52 1187.89 L 1364.55 1186 C 1366.9 1184.85 1367.07 1185.18 1369.93 1185.01 L 1369.93 1183.44 C 1366.94 1183.13 1364.3 1183.22 1361.88 1181.59 C 1361.41 1179.83 1361.05 1178.6 1360.43 1176.89 L 1358.27 1176.78 C 1351.82 1165.36 1335.54 1085.85 1331.31 1068.05 C 1329.45 1060.93 1327.81 1053.75 1326.39 1046.52 C 1312.05 981.917 1294.36 917.557 1278.3 853.321 C 1276.07 844.401 1273.23 836.379 1271.65 827.2 C 1270.57 824.851 1267.99 811.995 1267.03 808.499 C 1260.31 783.951 1256.86 758.189 1251.36 733.7 C 1242.67 694.954 1231.61 656.152 1220.81 617.961 C 1214.81 596.729 1210.22 571.622 1203.24 550.947 L 1202.9 549.974 z" fill="rgb(50,74,171)" transform="translate(0,0)"></path>
<path d="M 1271.65 827.2 C 1278.44 830.878 1311.03 974.296 1317.08 996.08 C 1319.46 1004.64 1327.41 1036.59 1328.74 1046.14 L 1326.39 1046.52 C 1312.05 981.917 1294.36 917.557 1278.3 853.321 C 1276.07 844.401 1273.23 836.379 1271.65 827.2 z" fill="rgb(16,25,105)" transform="translate(0,0)"></path>
<path d="M 1487.56 1263.41 C 1486.98 1263.27 1486.37 1263.19 1485.81 1262.99 C 1478.69 1260.48 1374.54 1174.89 1371.44 1167.94 L 1375.66 1169.29 C 1402.47 1195.1 1436.58 1218.13 1464.6 1243.12 C 1471.8 1249.55 1481.06 1256.51 1487.56 1263.41 z" fill="rgb(18,36,131)" transform="translate(0,0)"></path>
<path d="M 1297.61 855.24 C 1306.19 897.583 1321.12 946.033 1331.24 988.755 C 1323.5 979.77 1310.49 909.924 1305.04 894.921 C 1302.98 889.235 1295.27 860.169 1297.61 855.24 z" fill="rgb(18,36,131)" transform="translate(0,0)"></path>
<path d="M 1366.27 1141.49 C 1360.51 1137.15 1340.4 1053 1343.58 1045.14 C 1348.73 1073.39 1354.2 1100.48 1362.5 1128.04 C 1363.75 1132.17 1365.33 1137.34 1366.27 1141.49 z" fill="rgb(18,36,131)" transform="translate(0,0)"></path>
<path d="M 1254.46 696.751 L 1252.53 695.555 C 1249.17 687.689 1235.73 641.672 1237.58 634.694 C 1242.82 655.499 1249.35 676.299 1254.46 696.751 z" fill="rgb(18,36,131)" transform="translate(0,0)"></path>
<path d="M 1326.39 1046.52 L 1328.74 1046.14 C 1328.6 1052.84 1334.5 1053.97 1335.09 1063.73 C 1333.95 1066.4 1333.69 1066.25 1331.31 1068.05 C 1329.45 1060.93 1327.81 1053.75 1326.39 1046.52 z" fill="rgb(41,65,160)" transform="translate(0,0)"></path>
<path d="M 1455.74 1263.55 C 1462.48 1262.97 1464.88 1266.49 1470.27 1270.86 C 1473.66 1273.6 1482.81 1281.07 1483.71 1284.84 C 1474.37 1277.88 1465.27 1270.6 1455.74 1263.55 z" fill="rgb(18,36,131)" transform="translate(0,0)"></path>
<path d="M 1365.91 673.01 C 1365.66 670.748 1364.98 666.611 1366.74 665.021 L 1369.48 666.184 L 1370.03 668.035 L 1371.24 668.962 C 1376.46 686.622 1376.36 712.936 1382.12 731.282 C 1383.38 745.132 1387.46 758.065 1389.55 771.205 C 1395.37 807.756 1404.76 843.305 1413.32 879.367 C 1432.39 962.381 1452.6 1045.13 1473.95 1127.58 C 1482.98 1162.93 1490.69 1200.14 1499.55 1235.65 C 1504.06 1253.71 1506.86 1270.64 1512.39 1288.74 C 1509.22 1284.95 1506.15 1281.63 1502.8 1278.02 L 1503.05 1278.69 C 1500.4 1276.96 1500.07 1275.45 1498.31 1272.5 C 1494.53 1260.99 1492.76 1247.47 1489.98 1235.5 C 1482.53 1203.42 1476.64 1170.99 1468.65 1139.01 L 1410.52 896.735 C 1404.19 869.442 1396.39 842.696 1390.35 815.472 C 1380.36 768.319 1372.21 720.796 1365.91 673.01 z" fill="rgb(31,61,166)" transform="translate(0,0)"></path>
<path d="M 1222.97 552.597 L 1220.28 548.758 C 1228.59 546.746 1242.74 560.059 1245.25 556.57 C 1271.17 573.334 1297.38 587.347 1322.13 606.318 C 1333.03 614.675 1352.59 620.384 1365.22 630.205 C 1357.59 632.503 1364.57 631.461 1359.06 634.384 C 1315.51 620.19 1273.67 582.94 1233.9 559.968 C 1230.45 557.975 1226.2 554.943 1222.97 552.597 z" fill="rgb(50,74,171)" transform="translate(0,0)"></path>
<path d="M 1217.96 551.396 L 1222.97 552.597 C 1226.2 554.943 1230.45 557.975 1233.9 559.968 C 1273.67 582.94 1315.51 620.19 1359.06 634.384 C 1364.57 631.461 1357.59 632.503 1365.22 630.205 L 1368.03 632.12 C 1368.26 634.435 1368.34 634.377 1367.79 636.608 L 1368.54 637.44 C 1367.3 642.601 1367.37 645.361 1367.25 650.568 C 1368.21 655.056 1369.05 660.19 1371.26 664.096 L 1371.24 668.962 L 1370.03 668.035 L 1369.48 666.184 L 1366.74 665.021 C 1364.98 666.611 1365.66 670.748 1365.91 673.01 C 1365.16 666.721 1358.22 642.273 1356.29 634.853 C 1336.65 624.875 1317.96 619.984 1299.74 605.736 C 1285.84 594.861 1268.88 585.639 1254.07 575.969 C 1242.09 568.146 1229.94 559.623 1217.56 552.52 L 1217.96 551.396 z" fill="rgb(18,36,131)" transform="translate(0,0)"></path>
<path d="M 571.818 770.028 C 611.823 757.947 663.52 736.145 703.975 721.007 C 802.986 683.99 901.601 645.921 999.802 606.806 L 1141.58 551.835 C 1162.14 543.759 1183.37 537.407 1203.02 527.35 L 1204 528.389 L 1203.21 530.465 C 1204.8 532.67 1205.83 534.044 1207.62 536.146 L 1207.33 537.965 C 1202 540.185 1198.7 540.111 1193.23 543.146 L 1192.09 545.521 C 1178.19 552.115 1159.46 558.693 1144.79 564.427 L 1052.7 600.309 L 738.226 722.105 L 626.228 763.905 C 620.966 765.918 591.556 776.376 588.411 778.133 C 587.555 781.42 588.37 783.007 589.303 786.285 C 589.758 787.939 591.341 793.27 591.57 794.69 C 600.268 823.007 614.191 869.37 620.46 897.209 C 623.385 902.45 630.839 929.786 631.661 936.174 C 637.448 958.137 643.351 980.068 649.372 1001.97 C 656.181 1025.84 662.693 1045.82 668.227 1070.55 C 673.182 1082.58 680.159 1116.91 683.577 1130.83 C 689.446 1154.73 695.142 1179.41 701.018 1203.32 C 705.39 1220.7 709.874 1238.06 714.469 1255.39 C 716.622 1263.4 720.605 1276.02 721.781 1283.81 C 724.975 1297.91 728.603 1312.81 731.396 1326.93 C 737.312 1345.57 740.518 1367.9 745.081 1387.02 C 746.522 1393.06 749.447 1408.8 751.918 1413.77 C 748.978 1415.7 746.913 1417.06 743.805 1418.68 L 742.281 1419.16 C 741.607 1415.87 741.066 1410.19 739.172 1408.14 C 738.401 1415.87 729.885 1412.39 735.764 1423.54 C 734.773 1424.05 731.986 1425.39 731.237 1425.96 C 729.53 1414.19 719.334 1388.82 716.032 1372.99 C 697.24 1285.13 676.816 1197.63 654.771 1110.53 C 646.582 1077.02 636.316 1045.92 629.48 1011.2 C 622.724 983.037 615.838 951.857 608.223 924.228 C 601.379 907.018 598.623 890.389 593.438 873.16 C 582.93 838.241 577.589 805.762 571.818 770.028 z" fill="rgb(50,74,171)" transform="translate(0,0)"></path>
<path d="M 668.227 1070.55 C 664.95 1067.91 631.622 949.221 630.403 937.128 L 631.661 936.174 C 637.448 958.137 643.351 980.068 649.372 1001.97 C 656.181 1025.84 662.693 1045.82 668.227 1070.55 z" fill="rgb(16,25,105)" transform="translate(0,0)"></path>
<path d="M 608.223 924.228 L 608.439 920.564 L 609.108 920.102 L 609.214 918.682 C 612.528 934.088 632.142 1000.5 629.48 1011.2 C 622.724 983.037 615.838 951.857 608.223 924.228 z" fill="rgb(18,36,131)" transform="translate(0,0)"></path>
<path d="M 620.46 897.209 C 619.427 896.498 618.368 895.869 618.105 895.022 C 614.63 883.841 590.479 802.532 591.57 794.69 C 600.268 823.007 614.191 869.37 620.46 897.209 z" fill="rgb(18,36,131)" transform="translate(0,0)"></path>
<path d="M 721.781 1283.81 C 724.975 1297.91 728.603 1312.81 731.396 1326.93 C 726.419 1325.51 719.691 1289.89 721.781 1283.81 z" fill="rgb(18,36,131)" transform="translate(0,0)"></path>
<path d="M 1192.09 545.521 C 1196.32 544.38 1197.55 543.132 1200.48 544.595 L 1202.9 549.974 L 1203.24 550.947 C 1198.05 552.701 1193.06 554.933 1188 557.008 C 1155.66 570.265 1123.49 584.103 1090.82 596.546 L 912.299 664.683 C 901.138 669.03 890.089 674.164 878.815 678.614 C 831.499 697.065 784.062 715.201 736.506 733.023 C 721.093 738.74 704.725 743.576 689.578 749.38 C 656.319 762.125 623.107 774.954 589.303 786.285 C 588.37 783.007 587.555 781.42 588.411 778.133 C 591.556 776.376 620.966 765.918 626.228 763.905 L 738.226 722.105 L 1052.7 600.309 L 1144.79 564.427 C 1159.46 558.693 1178.19 552.115 1192.09 545.521 z" fill="rgb(179,187,243)" transform="translate(0,0)"></path>
<path d="M 1132.51 639.183 C 1140.12 637.857 1143.04 633.17 1151.2 636.927 L 1153.58 651.291 C 1166.01 696.136 1177.17 749.431 1187.74 795.478 C 1204.71 872.151 1223.25 948.469 1243.33 1024.38 C 1248.26 1043.1 1253.2 1062.18 1258.35 1080.86 C 1260.5 1088.66 1264.71 1111.73 1267.23 1117.72 C 1266.22 1120.54 1266.3 1121.33 1264.41 1123.49 C 1261.78 1124.61 1257.75 1125.79 1256.34 1127.75 C 1256.85 1130 1258 1134.44 1258.24 1136.53 L 1258.21 1138.12 C 1260.75 1142.36 1259.96 1143.39 1261.28 1147.36 L 1262.27 1148.99 L 1261.9 1150.34 C 1245.77 1163.02 1180.39 1187.1 1158.72 1194.25 C 1130.55 1206.39 1102.21 1218.12 1073.7 1229.43 C 1062.85 1233.67 1052.07 1237.35 1041.22 1241.39 C 1034.79 1243.78 1025.76 1250.58 1019.03 1253.09 L 889.491 1300.78 C 874.891 1306.08 860.183 1310.59 845.612 1315.83 C 835.025 1319.63 827.281 1327.52 816.689 1331.86 C 818.154 1327.11 820.057 1322.64 819.23 1317.76 C 817.694 1318.41 816.143 1319.02 814.579 1319.6 C 810.89 1320.93 809.556 1320.98 805.945 1319.34 C 803.035 1316.18 803.017 1315.38 801.567 1311.18 C 796.66 1294.93 792.61 1278.43 789.433 1261.75 C 787.176 1256.16 783.85 1238.73 782.255 1232.26 L 763.477 1157.18 C 760.078 1144.96 754.878 1125.36 752.628 1113.28 C 748.275 1102.96 745.236 1083.22 743.046 1071.67 C 739.209 1049.78 732.711 1024.93 727.632 1003.02 C 724.088 995.457 721.161 978.392 718.753 969.875 C 707.168 928.907 702.73 885.317 687.551 845.504 C 681.077 828.52 674.728 818.485 695.975 809.57 C 741.764 790.357 788.319 771.989 834.691 754.18 C 923.62 720.352 1012.33 685.96 1100.83 651.006 C 1109.34 647.564 1125.88 643.051 1132.51 639.183 z" fill="rgb(250,159,176)" transform="translate(0,0)"></path>
<path d="M 1132.51 639.183 C 1140.12 637.857 1143.04 633.17 1151.2 636.927 L 1153.58 651.291 L 1151.97 652.872 C 1149.07 652.701 1146.92 652.273 1144.25 653.349 L 1141.15 652.288 L 1138.61 654.618 C 1139.89 670.228 1144.77 681.439 1147.55 696.348 C 1154.33 732.682 1162.33 768.738 1169.01 805.072 C 1157.77 811.45 1145.9 816.38 1134.07 821.585 C 1137.13 824.254 1137.67 823.824 1138.6 827.048 C 1128.71 834.601 1057.78 860.244 1043.41 865.845 C 1031.86 870.349 1014.51 878.361 1002.73 883.516 C 981.754 892.601 960.696 901.495 939.559 910.197 L 876.166 935.984 C 866.635 939.894 849.966 946.322 841.202 951.118 C 846.265 989.28 862.41 1035.62 871.602 1074.11 C 884.013 1126.08 896.27 1178.23 908.766 1230.16 C 906.997 1233.02 904.805 1232.6 902.022 1234.09 C 903.143 1252.87 919.182 1274.66 885.725 1276.42 C 868.042 1280.56 832.225 1299.9 814.157 1307.75 L 814.434 1309.44 C 817.519 1312.79 818.124 1313.06 819.115 1317.3 L 819.23 1317.76 C 817.694 1318.41 816.143 1319.02 814.579 1319.6 C 810.89 1320.93 809.556 1320.98 805.945 1319.34 C 803.035 1316.18 803.017 1315.38 801.567 1311.18 C 796.66 1294.93 792.61 1278.43 789.433 1261.75 C 787.176 1256.16 783.85 1238.73 782.255 1232.26 L 763.477 1157.18 C 760.078 1144.96 754.878 1125.36 752.628 1113.28 C 748.275 1102.96 745.236 1083.22 743.046 1071.67 C 739.209 1049.78 732.711 1024.93 727.632 1003.02 C 724.088 995.457 721.161 978.392 718.753 969.875 C 707.168 928.907 702.73 885.317 687.551 845.504 C 681.077 828.52 674.728 818.485 695.975 809.57 C 741.764 790.357 788.319 771.989 834.691 754.18 C 923.62 720.352 1012.33 685.96 1100.83 651.006 C 1109.34 647.564 1125.88 643.051 1132.51 639.183 z" fill="rgb(66,133,244)" transform="translate(0,0)"></path>
<path d="M 1132.51 639.183 C 1140.12 637.857 1143.04 633.17 1151.2 636.927 L 1153.58 651.291 L 1151.97 652.872 C 1149.07 652.701 1146.92 652.273 1144.25 653.349 L 1141.15 652.288 L 1138.61 654.618 L 935.422 734.657 C 920.786 740.407 906.147 746.975 891.576 752.547 L 755.941 804.286 C 738.693 810.777 714.955 818.317 698.765 824.973 C 721.994 840.178 742.661 859.125 763.854 877.017 C 766.185 878.985 777.964 888.429 779.369 890.194 C 788.182 897.586 792.418 905.276 801.868 911.634 L 804.626 912.913 C 807.088 920.888 795.698 928.778 788.908 923.97 C 779.978 917.646 771.615 910.148 763.111 903.194 C 748.536 891.276 733.757 879.611 718.779 868.204 L 706.499 857.293 L 704.734 858.097 C 704.798 862.158 708.551 875.156 709.645 880.489 C 713.03 896.988 717.606 914.789 721.345 931.089 C 723.558 940.739 731.843 969.979 732.612 978.612 L 731.629 983.101 L 730.925 982.751 L 728.288 984.671 C 728.64 991.956 729.76 997.507 731.055 1004.67 C 728.981 1002.75 730.167 1003.11 727.632 1003.02 C 724.088 995.457 721.161 978.392 718.753 969.875 C 707.168 928.907 702.73 885.317 687.551 845.504 C 681.077 828.52 674.728 818.485 695.975 809.57 C 741.764 790.357 788.319 771.989 834.691 754.18 C 923.62 720.352 1012.33 685.96 1100.83 651.006 C 1109.34 647.564 1125.88 643.051 1132.51 639.183 z" fill="rgb(31,61,166)" transform="translate(0,0)"></path>
<path d="M 1132.51 639.183 C 1140.12 637.857 1143.04 633.17 1151.2 636.927 L 1153.58 651.291 L 1151.97 652.872 C 1149.07 652.701 1146.92 652.273 1144.25 653.349 L 1141.15 652.288 C 1144.97 651.895 1143.59 652.751 1146.02 650.626 L 1145.31 649.438 C 1140.51 647.683 1139.48 647.222 1136.27 643.232 C 1135.31 642.376 1133.47 640.23 1132.51 639.183 z" fill="rgb(41,65,160)" transform="translate(0,0)"></path>
<path d="M 1132.51 639.183 C 1140.12 637.857 1143.04 633.17 1151.2 636.927 C 1145.88 641.899 1143.56 641.914 1136.27 643.232 C 1135.31 642.376 1133.47 640.23 1132.51 639.183 z" fill="rgb(31,61,166)" transform="translate(0,0)"></path>
<path d="M 728.288 984.671 C 726.309 978.386 721.891 967.576 724.122 961.262 L 725.592 962.855 L 724.018 963.093 L 724.095 964.019 L 726.31 964.467 C 728.538 970.181 729.64 976.697 730.925 982.751 L 728.288 984.671 z" fill="rgb(50,74,171)" transform="translate(0,0)"></path>
<path d="M 779.369 890.194 C 788.182 897.586 792.418 905.276 801.868 911.634 C 792.386 911.662 782.422 898.546 779.369 890.194 z" fill="rgb(18,36,131)" transform="translate(0,0)"></path>
<path d="M 708.642 853.301 C 715.636 858.975 717.506 859.283 718.779 868.204 L 706.499 857.293 L 707.985 854.762 L 708.642 853.301 z" fill="rgb(31,61,166)" transform="translate(0,0)"></path>
<path d="M 707.985 854.762 C 704.348 852.909 703.083 852.563 701.055 848.983 L 701.513 847.768 C 704.698 848.273 706.307 850.792 708.642 853.301 L 707.985 854.762 z" fill="rgb(50,74,171)" transform="translate(0,0)"></path>
<path d="M 695.934 823.49 L 697.984 824.671 L 698.13 826.058 C 695.772 827.402 694.824 827.871 692.774 829.671 L 691.421 830.878 C 690.87 830.987 690.32 831.096 689.769 831.205 L 689.535 829.641 C 691.29 826.172 692.712 825.636 695.934 823.49 z" fill="rgb(18,36,131)" transform="translate(0,0)"></path>
<path d="M 826.875 941.425 C 844.331 933.072 863.945 927.734 881.94 920.578 C 911.905 908.663 941.933 896.854 971.92 885.006 L 1073.59 844.432 C 1087.59 838.857 1119.69 825.722 1134.07 821.585 C 1137.13 824.254 1137.67 823.824 1138.6 827.048 C 1128.71 834.601 1057.78 860.244 1043.41 865.845 C 1031.86 870.349 1014.51 878.361 1002.73 883.516 C 981.754 892.601 960.696 901.495 939.559 910.197 L 876.166 935.984 C 866.635 939.894 849.966 946.322 841.202 951.118 C 846.265 989.28 862.41 1035.62 871.602 1074.11 C 884.013 1126.08 896.27 1178.23 908.766 1230.16 C 906.997 1233.02 904.805 1232.6 902.022 1234.09 C 903.143 1252.87 919.182 1274.66 885.725 1276.42 C 890.969 1273.63 900.326 1269.83 906.17 1267.1 C 903.764 1246.15 897.182 1223.3 892.869 1202.51 C 879.667 1139.12 858.603 1078.01 845.256 1014.73 C 840.22 990.854 829.693 965.611 826.875 941.425 z" fill="rgb(31,61,166)" transform="translate(0,0)"></path>
<path d="M 730.925 982.751 L 731.629 983.101 C 734.07 993.547 738.956 1021.23 743.116 1027.97 L 744.248 1027.82 C 747.297 1036.51 749.81 1051.35 751.553 1060.76 C 750.5 1073.8 769.519 1132.11 773.175 1152.26 C 773.545 1163.51 779.264 1182.55 782.541 1193.28 C 785.24 1202.17 793.675 1243.85 798.298 1246.64 C 799.603 1250.52 801.352 1257.65 801.633 1261.82 C 805.184 1276.06 809.376 1293.9 814.157 1307.75 L 814.434 1309.44 C 817.519 1312.79 818.124 1313.06 819.115 1317.3 L 819.23 1317.76 C 817.694 1318.41 816.143 1319.02 814.579 1319.6 C 810.89 1320.93 809.556 1320.98 805.945 1319.34 C 803.035 1316.18 803.017 1315.38 801.567 1311.18 C 796.66 1294.93 792.61 1278.43 789.433 1261.75 C 787.176 1256.16 783.85 1238.73 782.255 1232.26 L 763.477 1157.18 C 760.078 1144.96 754.878 1125.36 752.628 1113.28 C 748.275 1102.96 745.236 1083.22 743.046 1071.67 C 739.209 1049.78 732.711 1024.93 727.632 1003.02 C 730.167 1003.11 728.981 1002.75 731.055 1004.67 C 729.76 997.507 728.64 991.956 728.288 984.671 L 730.925 982.751 z" fill="rgb(50,74,171)" transform="translate(0,0)"></path>
<path d="M 727.632 1003.02 C 730.167 1003.11 728.981 1002.75 731.055 1004.67 C 732.754 1018.06 747.085 1064.17 743.046 1071.67 C 739.209 1049.78 732.711 1024.93 727.632 1003.02 z" fill="rgb(16,25,105)" transform="translate(0,0)"></path>
<path d="M 752.628 1113.28 L 753.855 1113.09 C 753.995 1113.7 754.135 1114.3 754.276 1114.9 C 758.82 1125.09 767.433 1145.71 763.477 1157.18 C 760.078 1144.96 754.878 1125.36 752.628 1113.28 z" fill="rgb(41,65,160)" transform="translate(0,0)"></path>
<path d="M 789.433 1261.75 L 790.676 1259.92 C 793.133 1262.1 803 1306.56 801.567 1311.18 C 796.66 1294.93 792.61 1278.43 789.433 1261.75 z" fill="rgb(18,36,131)" transform="translate(0,0)"></path>
<path d="M 814.434 1309.44 C 809.183 1303.56 798.927 1268.81 801.633 1261.82 C 805.184 1276.06 809.376 1293.9 814.157 1307.75 L 814.434 1309.44 z" fill="rgb(16,25,105)" transform="translate(0,0)"></path>
<path d="M 773.175 1152.26 C 769.519 1132.11 750.5 1073.8 751.553 1060.76 C 758.606 1088.5 767.737 1115.41 773.975 1143.54 L 773.175 1152.26 z" fill="rgb(18,36,131)" transform="translate(0,0)"></path>
<path d="M 773.975 1143.54 C 776.055 1151.13 784.526 1185.05 785.091 1192.09 L 782.541 1193.28 C 779.264 1182.55 773.545 1163.51 773.175 1152.26 L 773.975 1143.54 z" fill="rgb(31,61,166)" transform="translate(0,0)"></path>
<path d="M 782.541 1193.28 L 785.091 1192.09 C 788.71 1208.06 795.617 1231.62 798.298 1246.64 C 793.675 1243.85 785.24 1202.17 782.541 1193.28 z" fill="rgb(16,25,105)" transform="translate(0,0)"></path>
<path d="M 731.629 983.101 L 732.612 978.612 C 736.975 994.626 740.531 1011.58 744.248 1027.82 L 743.116 1027.97 C 738.956 1021.23 734.07 993.547 731.629 983.101 z" fill="rgb(18,36,131)" transform="translate(0,0)"></path>
<path d="M 1141.15 652.288 L 1144.25 653.349 C 1151.31 697.032 1167.2 742.608 1174.87 786.607 C 1177.84 803.666 1185.23 821.756 1187.59 839.145 C 1175.4 842.952 1162.15 848.82 1150.31 853.983 C 1063.82 891.717 974.642 922.511 888.14 960.261 C 879.677 963.954 869.139 967.221 860.325 970.277 C 885.868 1065.55 910.279 1161.12 933.554 1256.97 C 925.744 1257.29 922.794 1259.45 916.276 1263.83 C 913.569 1255.67 912.65 1241.42 908.766 1230.16 C 896.27 1178.23 884.013 1126.08 871.602 1074.11 C 862.41 1035.62 846.265 989.28 841.202 951.118 C 849.966 946.322 866.635 939.894 876.166 935.984 L 939.559 910.197 C 960.696 901.495 981.754 892.601 1002.73 883.516 C 1014.51 878.361 1031.86 870.349 1043.41 865.845 C 1057.78 860.244 1128.71 834.601 1138.6 827.048 C 1137.67 823.824 1137.13 824.254 1134.07 821.585 C 1145.9 816.38 1157.77 811.45 1169.01 805.072 C 1162.33 768.738 1154.33 732.682 1147.55 696.348 C 1144.77 681.439 1139.89 670.228 1138.61 654.618 L 1141.15 652.288 z" fill="url(#Gradient2)" transform="translate(0,0)"></path>
<path d="M 933.554 1256.97 C 968.561 1241.74 1008.24 1228.21 1043.97 1213.87 C 1080.49 1199.1 1117.17 1184.73 1154 1170.78 C 1182.47 1159.88 1228.8 1142.48 1258.24 1136.53 L 1258.21 1138.12 C 1260.75 1142.36 1259.96 1143.39 1261.28 1147.36 L 1262.27 1148.99 L 1261.9 1150.34 C 1245.77 1163.02 1180.39 1187.1 1158.72 1194.25 C 1130.55 1206.39 1102.21 1218.12 1073.7 1229.43 C 1062.85 1233.67 1052.07 1237.35 1041.22 1241.39 C 1034.79 1243.78 1025.76 1250.58 1019.03 1253.09 L 889.491 1300.78 C 874.891 1306.08 860.183 1310.59 845.612 1315.83 C 835.025 1319.63 827.281 1327.52 816.689 1331.86 C 818.154 1327.11 820.057 1322.64 819.23 1317.76 L 819.115 1317.3 C 818.124 1313.06 817.519 1312.79 814.434 1309.44 L 814.157 1307.75 C 832.225 1299.9 868.042 1280.56 885.725 1276.42 C 919.182 1274.66 903.143 1252.87 902.022 1234.09 C 904.805 1232.6 906.997 1233.02 908.766 1230.16 C 912.65 1241.42 913.569 1255.67 916.276 1263.83 C 922.794 1259.45 925.744 1257.29 933.554 1256.97 z" fill="rgb(41,65,160)" transform="translate(0,0)"></path>
<path d="M 1009.04 1248.32 C 1034.38 1242.75 1167.29 1180.34 1177.73 1182.42 L 1176.58 1183.13 C 1170.18 1187.02 1162.17 1188.45 1158.72 1194.25 C 1130.55 1206.39 1102.21 1218.12 1073.7 1229.43 C 1062.85 1233.67 1052.07 1237.35 1041.22 1241.39 C 1034.79 1243.78 1025.76 1250.58 1019.03 1253.09 L 889.491 1300.78 C 874.891 1306.08 860.183 1310.59 845.612 1315.83 C 835.025 1319.63 827.281 1327.52 816.689 1331.86 C 818.154 1327.11 820.057 1322.64 819.23 1317.76 L 819.115 1317.3 C 854.718 1300.74 902.259 1283.39 939.7 1267.4 C 942.311 1268.96 946.274 1271.05 949.307 1270.24 C 969.145 1264.93 989.668 1255.42 1009.04 1248.32 z" fill="url(#Gradient1)" transform="translate(0,0)"></path>
<path d="M 1258.21 1138.12 C 1260.75 1142.36 1259.96 1143.39 1261.28 1147.36 L 1262.27 1148.99 L 1261.9 1150.34 C 1245.77 1163.02 1180.39 1187.1 1158.72 1194.25 C 1162.17 1188.45 1170.18 1187.02 1176.58 1183.13 L 1177.73 1182.42 C 1167.29 1180.34 1034.38 1242.75 1009.04 1248.32 C 989.668 1255.42 969.145 1264.93 949.307 1270.24 C 946.274 1271.05 942.311 1268.96 939.7 1267.4 C 984.8 1249.33 1032.89 1230.92 1078.38 1213.66 C 1084.29 1210.02 1113.04 1199.54 1121.51 1196.18 C 1162.42 1179.92 1219.11 1162.03 1256.88 1140.4 L 1258.21 1138.12 z" fill="rgb(250,159,176)" transform="translate(0,0)"></path>
<path d="M 1258.21 1138.12 C 1260.75 1142.36 1259.96 1143.39 1261.28 1147.36 L 1262.27 1148.99 L 1261.9 1150.34 C 1245.77 1163.02 1180.39 1187.1 1158.72 1194.25 C 1162.17 1188.45 1170.18 1187.02 1176.58 1183.13 L 1177.73 1182.42 C 1197.56 1174.29 1216.71 1168.22 1235.13 1157.09 C 1239.9 1154.21 1248.45 1151.18 1253.85 1148.88 C 1256.2 1146.45 1256.23 1143.83 1256.88 1140.4 L 1258.21 1138.12 z" fill="rgb(230,202,233)" transform="translate(0,0)"></path>
<path d="M 908.766 1230.16 C 912.65 1241.42 913.569 1255.67 916.276 1263.83 C 915.186 1265.95 913.063 1266.24 910.953 1266.71 L 909.743 1265.55 C 912.063 1264.79 910.941 1265.23 913.115 1264.26 C 916.08 1253.9 907.087 1243.11 902.022 1234.09 C 904.805 1232.6 906.997 1233.02 908.766 1230.16 z" fill="rgb(31,61,166)" transform="translate(0,0)"></path>
<path d="M 1153.58 651.291 C 1166.01 696.136 1177.17 749.431 1187.74 795.478 C 1204.71 872.151 1223.25 948.469 1243.33 1024.38 C 1248.26 1043.1 1253.2 1062.18 1258.35 1080.86 C 1260.5 1088.66 1264.71 1111.73 1267.23 1117.72 C 1266.22 1120.54 1266.3 1121.33 1264.41 1123.49 C 1261.78 1124.61 1257.75 1125.79 1256.34 1127.75 C 1252.16 1114.97 1248.65 1099.09 1245.6 1085.87 C 1226.67 1003.84 1206.23 921.117 1187.59 839.145 C 1185.23 821.756 1177.84 803.666 1174.87 786.607 C 1167.2 742.608 1151.31 697.032 1144.25 653.349 C 1146.92 652.273 1149.07 652.701 1151.97 652.872 L 1153.58 651.291 z" fill="rgb(50,74,171)" transform="translate(0,0)"></path>
<path d="M 1267.23 1117.72 C 1272.15 1123.94 1274.17 1144.08 1276.73 1154.01 C 1271.84 1157.19 1272.67 1157.89 1268.53 1157.08 C 1266.29 1154.86 1264.08 1152.61 1261.9 1150.34 L 1262.27 1148.99 L 1261.28 1147.36 C 1259.96 1143.39 1260.75 1142.36 1258.21 1138.12 L 1258.24 1136.53 C 1258 1134.44 1256.85 1130 1256.34 1127.75 C 1257.75 1125.79 1261.78 1124.61 1264.41 1123.49 C 1266.3 1121.33 1266.22 1120.54 1267.23 1117.72 z" fill="rgb(179,187,243)" transform="translate(0,0)"></path>
<path d="M 1256.34 1127.75 C 1257.75 1125.79 1261.78 1124.61 1264.41 1123.49 C 1265.55 1132.88 1270.44 1143 1261.28 1147.36 C 1259.96 1143.39 1260.75 1142.36 1258.21 1138.12 L 1258.24 1136.53 C 1258 1134.44 1256.85 1130 1256.34 1127.75 z" fill="rgb(18,36,131)" transform="translate(0,0)"></path>
<path d="M 1192.09 545.521 L 1193.23 543.146 C 1198.7 540.111 1202 540.185 1207.33 537.965 L 1207.62 536.146 C 1205.83 534.044 1204.8 532.67 1203.21 530.465 L 1204 528.389 C 1206.51 529.727 1210.2 531.476 1212.26 533.31 C 1219.27 536.845 1223.03 538.409 1228.77 543.887 C 1234.33 548.019 1239.83 552.247 1245.25 556.57 C 1242.74 560.059 1228.59 546.746 1220.28 548.758 L 1222.97 552.597 L 1217.96 551.396 C 1211.24 547.125 1210.59 547.92 1202.9 549.974 L 1200.48 544.595 C 1197.55 543.132 1196.32 544.38 1192.09 545.521 z" fill="rgb(31,61,166)" transform="translate(0,0)"></path>
<path d="M 1212.26 533.31 C 1219.27 536.845 1223.03 538.409 1228.77 543.887 C 1227.45 543.807 1226.14 543.698 1224.82 543.563 C 1218.79 542.91 1215.24 540.753 1211.64 536.16 L 1212.26 533.31 z" fill="rgb(41,65,160)" transform="translate(0,0)"></path>
<metadata><recraft-signature>{"signed_by": "recraft", "signature_b64": "nyTjlZI3/jQTbijP79NLBsXOitvHMvnRSNF4b8Qowhfa0axvLA8PCQ/aY2kE08VSHXFWovCbwmPUJVTKrBDnBg==", "signing_algo": "Ed25519", "generation_timestamp": 1777675969, "identifier": "cc962fbc-ee50-4d03-bf81-093a96a11a76"}</recraft-signature></metadata></svg>