<svg xmlns="http://www.w3.org/2000/svg" height="1024" preserveAspectRatio="none" style="display: block;" version="1.1" viewBox="0 0 2048 2048" width="1024">
<defs>
	<linearGradient gradientUnits="userSpaceOnUse" id="Gradient1" x1="1199.91" x2="1217.56" y1="1650.64" y2="1674.74">
		<stop class="stop0" offset="0" stop-color="rgb(149,116,61)" stop-opacity="1"></stop>
		<stop class="stop1" offset="1" stop-color="rgb(180,156,88)" stop-opacity="1"></stop>
	</linearGradient>
	<linearGradient gradientUnits="userSpaceOnUse" id="Gradient2" x1="1284.96" x2="763.066" y1="1581.61" y2="467.969">
		<stop class="stop0" offset="0" stop-color="rgb(194,170,110)" stop-opacity="1"></stop>
		<stop class="stop1" offset="1" stop-color="rgb(225,217,177)" stop-opacity="1"></stop>
	</linearGradient>
	<linearGradient gradientUnits="userSpaceOnUse" id="Gradient3" x1="1342.37" x2="707.874" y1="1572.42" y2="476.284">
		<stop class="stop0" offset="0" stop-color="rgb(169,123,59)" stop-opacity="1"></stop>
		<stop class="stop1" offset="1" stop-color="rgb(202,174,108)" stop-opacity="1"></stop>
	</linearGradient>
	<linearGradient gradientUnits="userSpaceOnUse" id="Gradient4" x1="1321.27" x2="726.975" y1="1671.5" y2="374.761">
		<stop class="stop0" offset="0" stop-color="rgb(170,126,61)" stop-opacity="1"></stop>
		<stop class="stop1" offset="1" stop-color="rgb(206,182,121)" stop-opacity="1"></stop>
	</linearGradient>
	<linearGradient gradientUnits="userSpaceOnUse" id="Gradient5" x1="1385.78" x2="666.04" y1="1741.63" y2="314.886">
		<stop class="stop0" offset="0" stop-color="rgb(173,128,63)" stop-opacity="1"></stop>
		<stop class="stop1" offset="1" stop-color="rgb(209,188,128)" stop-opacity="1"></stop>
	</linearGradient>
</defs>
<path d="M 0 0 L 2048 0 L 2048 2048 L 0 2048 L 0 0 z" fill="rgb(254,254,254)" transform="translate(0,0)"></path>
<path d="M 814.848 245 C 1151.32 154.529 1507.85 290.348 1698.84 581.757 C 1889.83 873.166 1872.11 1254.28 1654.89 1526.7 C 1437.67 1799.12 1070.08 1901.26 743.456 1779.95 C 416.835 1658.64 205.04 1341.3 218.321 993.132 C 231.792 639.999 473.579 336.762 814.848 245 z" fill="rgb(254,254,254)" transform="translate(0,0)"></path>
<path d="M 814.848 245 C 1151.32 154.529 1507.85 290.348 1698.84 581.757 C 1889.83 873.166 1872.11 1254.28 1654.89 1526.7 C 1437.67 1799.12 1070.08 1901.26 743.456 1779.95 C 416.835 1658.64 205.04 1341.3 218.321 993.132 C 223.152 984.817 222.555 930.078 226.608 925.479 C 242.58 940.279 237.116 969.298 236.169 988.41 C 235.786 996.132 233.75 1029.12 236.762 1034.15 C 241.082 1370.53 458.633 1667.02 778.223 1772.06 C 1097.81 1877.11 1448.84 1767.52 1651.89 1499.29 C 1854.94 1231.07 1865.16 863.475 1677.32 584.388 C 1489.48 305.302 1145.08 176.38 820.148 263.515 C 817.565 263.382 807.479 265.293 803.49 264.515 C 803.531 264.523 798.962 268.42 798.23 269.043 L 797.125 268.46 L 798.298 266.374 C 793.198 266.49 794.386 267.266 791.566 264.644 C 784.093 268.079 777.25 270.066 772.443 276.581 C 769.735 276.993 761.567 272.508 755.618 272.125 L 755.036 270.933 C 760.125 265.058 801.74 257.323 810.93 250.785 C 814.492 248.251 813.749 249.091 814.848 245 z" fill="url(#Gradient5)" transform="translate(0,0)"></path>
<path d="M 218.321 993.132 C 231.792 639.999 473.579 336.762 814.848 245 C 813.749 249.091 814.492 248.251 810.93 250.785 C 801.74 257.323 760.125 265.058 755.036 270.933 L 755.618 272.125 C 761.567 272.508 769.735 276.993 772.443 276.581 C 777.25 270.066 784.093 268.079 791.566 264.644 C 794.386 267.266 793.198 266.49 798.298 266.374 L 797.125 268.46 L 798.23 269.043 C 798.962 268.42 803.531 264.523 803.49 264.515 C 807.479 265.293 817.565 263.382 820.148 263.515 C 472.352 356.781 232.139 674.096 236.762 1034.15 C 233.75 1029.12 235.786 996.132 236.169 988.41 C 237.116 969.298 242.58 940.279 226.608 925.479 C 222.555 930.078 223.152 984.817 218.321 993.132 z" fill="rgb(201,169,110)" transform="translate(0,0)"></path>
<path d="M 994.409 308.096 C 1389.64 291.631 1723.35 598.757 1739.67 993.994 C 1756 1389.23 1448.75 1722.83 1053.51 1739.01 C 658.466 1755.19 325.072 1448.13 308.757 1053.09 C 292.441 658.056 599.379 324.553 994.409 308.096 z" fill="url(#Gradient4)" transform="translate(0,0)"></path>
<path d="M 1010.78 327.893 C 1018.31 326.444 1037.86 326.9 1046.29 326.931 C 1072.59 326.876 1106.05 331.86 1132.29 335.825 C 1221.35 348.989 1306.84 379.94 1383.68 426.835 C 1438.89 460.086 1485.56 499.758 1531.01 545.315 C 1548.11 562.458 1561.54 579.817 1576.32 598.83 C 1669.82 719.423 1720.41 867.768 1720.08 1020.36 C 1720.12 1046.23 1719.29 1078.12 1716.53 1103.64 C 1706.28 1194.19 1677.82 1281.73 1632.86 1361 C 1628.36 1369.68 1624.44 1376.75 1619.39 1385.1 C 1605.36 1410.08 1593.61 1424.96 1576.1 1447.55 C 1540.85 1492.75 1500.52 1533.73 1455.9 1569.7 C 1431.18 1589.31 1405.49 1605.1 1378.66 1621.52 C 1289.14 1676.3 1189.11 1707.67 1084.84 1718.03 C 1063.02 1720.2 1041.1 1719.74 1019.59 1721.42 C 1015.38 1721.87 1015.02 1721.89 1010.88 1721.22 C 985.06 1720.6 959.286 1718.74 933.645 1715.65 C 931.413 1715.78 929.317 1715.3 927.066 1714.96 C 838.352 1702.25 764.355 1676.29 685.536 1634.23 C 679.154 1631.06 676.158 1629.38 670.259 1625.41 C 649.789 1614.31 625.938 1596.45 607.853 1582.05 L 596.51 1573.63 L 537.985 1522.75 C 533.544 1519.21 530.462 1517.09 527.051 1512.46 C 511.705 1494.52 486.177 1469.33 474.27 1449.21 C 473.111 1446.74 472.437 1446.55 470.365 1444.6 C 466.43 1443.03 462.752 1437.34 461.236 1433.46 C 447.306 1413.67 437.625 1397.86 425.133 1376.9 C 419.564 1370.11 414.455 1360.7 410.354 1353 C 400.198 1335.38 389.69 1310.63 381.841 1292.06 C 377.598 1283.15 373.747 1275.4 370.507 1266.03 C 362.83 1252.36 351.885 1211.75 347.796 1196.38 C 316.816 1079.97 318.762 967.625 348.316 850.845 C 349.293 845.419 352.209 835.117 354.38 830.077 C 361.826 806.477 368.16 787.602 377.65 764.8 C 380.673 757.443 383.656 749.794 387.267 742.734 C 390.316 733.936 412.893 690.921 417.989 682.408 C 419.041 678.515 422.136 672.935 424.662 669.745 C 453.495 619.708 489.984 577.535 529.705 535.924 C 534.801 529.801 539.818 524.76 545.4 519.066 C 584.415 484.845 626.372 447.91 672.647 424.162 C 676.573 420.668 683.478 417.39 688.287 415.297 C 705.144 404.483 724.824 396.719 742.979 388.35 C 825.685 350.227 919.343 329.261 1010.78 327.893 z" fill="rgb(254,254,254)" transform="translate(0,0)"></path>
<path d="M 707.291 475.479 C 793.749 426.052 880.718 397.519 980.057 391.477 C 1004.88 389.967 1030.56 387.96 1055.47 391.018 L 1058.32 391.968 C 1177.68 390.768 1334.97 453.887 1425.24 530.642 L 1426.65 528.967 C 1430.74 533.972 1436.36 536.974 1437.36 538.249 L 1436.6 540.292 C 1458.25 557.296 1474.3 576.878 1494.28 595.806 L 1501.91 603.197 C 1515.65 617.229 1531.66 640.732 1544.92 656.658 L 1555.62 671.421 C 1603.49 748.056 1629.23 807.509 1648.43 895.844 L 1652.57 917.378 C 1655.29 935.56 1657.21 953.851 1658.34 972.201 C 1658.69 977.817 1659.09 987.553 1659.93 992.939 L 1659.86 1028.64 C 1658.33 1041.96 1658.86 1064.86 1658.32 1079.21 C 1656.46 1094.66 1654.75 1110.88 1652.52 1126.23 C 1651.31 1133.79 1649.78 1142.13 1648.84 1149.66 C 1646.07 1165.74 1640.58 1187.29 1636.4 1203.3 C 1634.05 1210.12 1630.73 1218.97 1629 1225.77 C 1611.76 1273.75 1593.61 1314.74 1566.29 1358.24 C 1562.85 1362.45 1558.15 1369.23 1555.67 1374.09 C 1477.06 1483.69 1390.98 1559.4 1265.85 1613.15 C 1095.2 1686.46 896.468 1675.52 731.716 1591.28 C 702.627 1576.41 673.903 1556.01 647.044 1537.43 C 633.826 1528.18 620.92 1515.51 608.826 1507.01 L 608.359 1506.47 C 605.887 1502.95 600.007 1498.02 596.671 1494.89 C 500.558 1404.5 427.522 1285.12 399.641 1154.27 C 398.964 1149.85 397.913 1145.6 396.921 1141.25 C 393.618 1125.53 390.851 1094 388.993 1076.86 C 389.133 1071.8 388.824 1068.87 388.328 1063.87 C 386.617 1045.26 386.589 1018.68 387.33 999.942 C 388.079 994.284 388.491 986.532 388.979 980.693 C 396.161 918.529 410.343 837.305 437.681 780.376 C 442.731 765.249 453.101 745.777 460.561 731.559 C 502.751 652.439 560.809 582.873 631.106 527.211 C 659.111 504.646 674.596 492.772 707.291 475.479 z" fill="url(#Gradient3)" transform="translate(0,0)"></path>
<path d="M 707.946 496.463 C 732.956 483.325 755.021 468.587 781.913 458.72 C 795.925 453.579 809.731 446.577 824.047 441.646 C 1077.97 354.2 1366.98 442.572 1524.96 660.585 C 1542.03 684.133 1557.06 710.766 1570.56 736.482 C 1646.84 884.297 1661.7 1056.25 1611.9 1214.96 C 1564.98 1365.75 1444.07 1501.49 1304.93 1574.21 C 1161.63 1648.39 994.874 1663.17 840.762 1615.33 C 719.215 1576.74 612.418 1501.82 534.761 1400.67 C 511.256 1369.99 489.894 1334.69 471.979 1300.35 C 419.705 1200.02 397.456 1086.75 407.895 974.101 C 411.914 933.47 420.082 897.207 429.357 857.808 C 430.919 855.172 440.003 826.975 441.661 822.283 C 448.978 801.611 457.322 781.317 466.662 761.477 C 478.343 736.996 492.14 714.699 506.861 692.018 C 560.049 610.069 625.343 548.47 707.946 496.463 z" fill="url(#Gradient2)" transform="translate(0,0)"></path>
<path d="M 1023.75 509.636 C 1034.06 513.523 1235.16 721.298 1260.04 746.506 C 1274.45 746.931 1290.76 746.456 1305.31 746.348 L 1305.33 792.657 C 1324.18 813.668 1349.11 837.195 1369.33 857.849 L 1536.46 1025.94 C 1528.26 1036.95 1496.93 1065.15 1485.63 1076.18 C 1447.49 1113.45 1410.84 1151.69 1373.19 1189.35 C 1358.56 1203.89 1344.03 1218.53 1329.59 1233.26 C 1323.9 1239.1 1312.65 1250.17 1308.11 1256.28 L 1307.96 1306.42 C 1292.52 1307.02 1273.36 1306.9 1258.01 1306.58 C 1200.07 1361.9 1145.82 1422.13 1088.82 1478.52 C 1067.73 1499.39 1047.54 1522.11 1025.59 1541.98 C 1021.88 1541.5 815.82 1329.85 793.025 1307.91 C 775.844 1307.32 757.342 1307.8 740.057 1307.95 C 740.071 1290.71 739.73 1270.34 740.952 1253.38 C 720.984 1231.74 698.627 1209.85 677.805 1188.88 L 559.982 1070.69 C 544.595 1055.17 528.376 1039.52 513.49 1023.6 C 523.411 1012.32 536.764 999.664 547.563 988.902 L 599.449 937.028 C 646.474 890.26 692.158 843.931 739.853 797.719 L 739.846 745.946 L 786.167 746.205 C 805.257 728.625 828.025 704.212 846.987 685.446 L 1023.75 509.636 z" fill="rgb(201,169,110)" transform="translate(0,0)"></path>
<path d="M 707.291 475.479 C 700.57 484.856 680.45 492.633 670.433 499.582 C 651.605 512.644 562.179 584.253 557.997 600.1 C 556.709 604.978 558.595 614.408 558.49 620.002 C 594.33 579.262 635.078 543.117 679.803 512.394 C 687.03 507.428 699.82 498.138 707.946 496.463 C 625.343 548.47 560.049 610.069 506.861 692.018 C 492.14 714.699 478.343 736.996 466.662 761.477 C 457.322 781.317 448.978 801.611 441.661 822.283 C 440.003 826.975 430.919 855.172 429.357 857.808 C 424.2 850.459 475.701 732.38 487.191 719.888 C 488.963 717.961 493.186 709.272 493.397 706.988 C 491.324 706.752 477.315 705.645 476.436 707.08 C 462.285 730.178 451.68 755.375 438.945 779.085 C 438.524 779.515 438.102 779.945 437.681 780.376 C 442.731 765.249 453.101 745.777 460.561 731.559 C 502.751 652.439 560.809 582.873 631.106 527.211 C 659.111 504.646 674.596 492.772 707.291 475.479 z" fill="rgb(201,169,110)" transform="translate(0,0)"></path>
<path d="M 1425.24 530.642 L 1426.65 528.967 C 1430.74 533.972 1436.36 536.974 1437.36 538.249 L 1436.6 540.292 C 1432.17 537.091 1429.23 534.31 1425.24 530.642 z" fill="rgb(224,217,193)" transform="translate(0,0)"></path>
<path d="M 1555.67 1374.09 C 1558.15 1369.23 1562.85 1362.45 1566.29 1358.24 L 1568.63 1358.69 C 1570.36 1358.93 1570.68 1358.62 1571.25 1360.02 C 1580.07 1381.58 1582.97 1410.71 1579.17 1433.67 C 1577.51 1443.76 1569.29 1453.58 1562.46 1460.81 C 1562.13 1460.98 1561.8 1461.14 1561.47 1461.31 C 1556.17 1458.62 1560.1 1420.21 1560.18 1411.88 C 1560.31 1398.8 1557.27 1386.36 1557 1374.62 L 1555.67 1374.09 z" fill="rgb(165,130,70)" transform="translate(0,0)"></path>
<path d="M 1555.67 1374.09 C 1558.15 1369.23 1562.85 1362.45 1566.29 1358.24 L 1568.63 1358.69 C 1566 1362.21 1559.31 1372.01 1557 1374.62 L 1555.67 1374.09 z" fill="rgb(224,217,193)" transform="translate(0,0)"></path>
<path d="M 690.293 415.908 L 693.599 414.853 L 694.948 415.872 C 693.463 426.73 671.686 477.417 667.303 491.381 C 666.521 493.875 661.711 500.622 659.1 502.086 C 657.231 503.133 657.123 503.183 655.04 503.634 C 649.743 502.189 648.38 498.416 649.342 493.328 C 652.71 475.511 660.27 436.073 674.04 424.568 L 672.647 424.162 C 676.573 420.668 683.478 417.39 688.287 415.297 L 690.293 415.908 z" fill="rgb(201,169,110)" transform="translate(0,0)"></path>
<path d="M 672.647 424.162 C 676.573 420.668 683.478 417.39 688.287 415.297 L 690.293 415.908 C 685.125 419.42 679.663 421.833 674.04 424.568 L 672.647 424.162 z" fill="rgb(224,217,193)" transform="translate(0,0)"></path>
<path d="M 462.165 1431.19 C 464.143 1429.85 466.104 1428.25 468.501 1428.86 C 480.802 1431.97 492.823 1435.97 505.159 1438.96 C 517.605 1441.98 533.832 1442.52 545.69 1445.31 C 561.139 1470.65 535.723 1465.01 519.921 1462.69 C 503.469 1460.27 489.447 1455.86 474.27 1449.21 C 473.111 1446.74 472.437 1446.55 470.365 1444.6 C 466.43 1443.03 462.752 1437.34 461.236 1433.46 L 462.165 1431.19 z" fill="rgb(201,169,110)" transform="translate(0,0)"></path>
<path d="M 426.458 669.874 L 428.978 668.703 C 433.202 671.268 435.284 684.008 436.25 688.93 C 438.958 702.725 442.181 716.541 444.658 730.38 C 447.07 743.854 451.151 752.553 439.227 762.132 C 424.803 761.051 415.154 698.09 419.27 683.232 L 417.989 682.408 C 419.041 678.515 422.136 672.935 424.662 669.745 L 426.458 669.874 z" fill="rgb(201,169,110)" transform="translate(0,0)"></path>
<path d="M 424.662 669.745 L 426.458 669.874 C 424.09 674.338 421.673 678.635 419.764 683.314 L 419.27 683.232 L 417.989 682.408 C 419.041 678.515 422.136 672.935 424.662 669.745 z" fill="rgb(224,217,193)" transform="translate(0,0)"></path>
<path d="M 1426.65 528.967 L 1432.83 527.269 C 1433.31 525.352 1433 526.228 1433.71 524.622 C 1448.36 519.975 1466.58 521.096 1481.75 521.873 C 1499.98 522.805 1514.19 526.006 1520.97 544.825 C 1507.56 543.935 1494.62 543.33 1481.2 542.957 C 1467.9 542.587 1448.93 544.663 1437.36 538.249 C 1436.36 536.974 1430.74 533.972 1426.65 528.967 z" fill="rgb(201,169,110)" transform="translate(0,0)"></path>
<path d="M 527.914 1510.82 C 526.052 1507.11 525.785 1507.21 526.704 1504.19 C 536.791 1503.24 553.006 1505.78 563.947 1505.96 C 575.437 1506.16 598.362 1503.19 608.359 1506.47 L 608.826 1507.01 C 611.467 1513.89 612.822 1515.7 616.888 1521.8 C 599.643 1525.86 555.845 1527.68 539.681 1521.38 L 537.985 1522.75 C 533.544 1519.21 530.462 1517.09 527.051 1512.46 L 527.914 1510.82 z" fill="rgb(201,169,110)" transform="translate(0,0)"></path>
<path d="M 1009.61 1719.11 C 999.613 1710.96 1018.9 1697.97 1024.95 1693.21 C 1036.8 1683.88 1048.52 1673.83 1061.3 1665.84 C 1065.28 1663.37 1072.7 1662.25 1076.97 1664.83 C 1083.68 1678.13 1034.11 1712.8 1022.82 1717.82 C 1021.62 1718.35 1020.39 1718.84 1019.15 1719.3 L 1019.59 1721.42 C 1015.38 1721.87 1015.02 1721.89 1010.88 1721.22 L 1009.61 1719.11 z" fill="rgb(201,169,110)" transform="translate(0,0)"></path>
<path d="M 1009.61 1719.11 L 1019.15 1719.3 L 1019.59 1721.42 C 1015.38 1721.87 1015.02 1721.89 1010.88 1721.22 L 1009.61 1719.11 z" fill="rgb(224,217,193)" transform="translate(0,0)"></path>
<path d="M 1113.34 337.252 C 1119.2 336.721 1125.8 335.374 1127.44 342.256 C 1126.35 345.243 1101.64 362.397 1097.1 365.412 C 1087.18 372.005 1070.88 389.422 1060.1 390.697 L 1058.32 391.968 L 1055.47 391.018 C 1050.07 382.278 1055.25 375.674 1061.58 368.88 C 1071.39 358.353 1099.07 337.924 1113.34 337.252 z" fill="rgb(201,169,110)" transform="translate(0,0)"></path>
<path d="M 927.066 1714.96 C 924.339 1712.13 923.097 1711.37 922.358 1707.51 C 922.935 1704.94 922.721 1703.47 924.901 1701.74 C 934.994 1693.71 945.327 1686.85 956.494 1679.97 C 965.649 1674.33 977.416 1660.79 988.497 1662.52 C 991.147 1662.93 992.018 1664.62 993.406 1666.5 C 994.391 1671.53 992.418 1675.43 988.667 1678.68 C 971.63 1693.45 954.074 1706.06 933.645 1715.65 C 931.413 1715.78 929.317 1715.3 927.066 1714.96 z" fill="rgb(165,130,70)" transform="translate(0,0)"></path>
<path d="M 1589.3 721.904 C 1593.12 717.917 1597.2 719.946 1601.96 722.382 C 1617.47 730.325 1654.84 745.634 1664.76 758.701 C 1665.16 760.586 1675.85 790.265 1677.02 793.649 C 1661.43 783.344 1646.21 771.632 1630.72 760.995 C 1613.02 748.837 1595.68 744.138 1589.3 721.904 z" fill="rgb(201,169,110)" transform="translate(0,0)"></path>
<path d="M 1546.08 651.993 C 1548.31 648.58 1548.12 647.481 1551.16 646.413 C 1565.89 648.501 1615.29 663.393 1624.66 674.905 C 1627.36 677.892 1635.22 695.477 1637.39 700.17 C 1614.7 694.289 1584.43 674.13 1556.6 669.995 C 1552.81 663.686 1550.69 660.309 1546.16 654.558 L 1546.08 651.993 z" fill="rgb(201,169,110)" transform="translate(0,0)"></path>
<path d="M 356.912 830.504 C 368.863 841.284 377.374 865.442 385.295 879.941 C 391.507 891.312 400.533 908.91 392.264 921.024 C 385.529 924.714 382.102 918.453 378.85 913.005 C 367.331 895.389 356.366 874.855 350.677 854.631 C 350.859 846.749 352.356 842.554 355.245 835.485 L 356.912 830.504 z" fill="rgb(201,169,110)" transform="translate(0,0)"></path>
<path d="M 1650.57 888.091 C 1655.74 889.433 1659.69 893.218 1663.88 896.694 C 1672.86 903.669 1700.8 927.164 1707.3 935.16 C 1715.51 941.379 1712.51 947.939 1713.2 957.065 C 1713.48 960.757 1715.01 969.233 1712.98 971.709 C 1705.95 970.222 1706.12 965.549 1701.37 960.222 C 1687.09 944.187 1670.68 929.229 1654.46 915.385 C 1652.86 911.137 1650.91 892.919 1650.57 888.091 z" fill="rgb(201,169,110)" transform="translate(0,0)"></path>
<path d="M 389.306 744.354 C 395.594 749.675 414.428 812.823 417.897 824.641 C 415.604 833.277 414.624 847.642 403.429 840.096 C 397.715 830.671 377.889 776.365 379.05 766.18 L 384.501 754.055 L 389.306 744.354 z" fill="rgb(201,169,110)" transform="translate(0,0)"></path>
<path d="M 547.165 520.608 C 548.579 522.241 550.729 524.167 550.349 526.505 C 546.838 548.111 542.539 569.484 540.168 591.274 C 539.318 599.091 537.513 623.507 525.903 620.791 C 514.157 610.1 521.851 550.024 532.227 536.416 C 537.512 530.332 541.381 526.214 547.165 520.608 z" fill="rgb(201,169,110)" transform="translate(0,0)"></path>
<path d="M 413.901 1352.02 L 415.551 1350.23 C 422.585 1351.34 449.185 1365.29 457.673 1368.81 C 471.645 1374.62 482.245 1377.98 496.743 1382.2 C 498.831 1385.56 503.59 1392.08 501.891 1395.39 C 495.17 1408.5 453.784 1388.4 444.649 1384.47 L 425.755 1376.18 C 420.235 1369.4 417.164 1360.21 413.901 1352.02 z" fill="rgb(201,169,110)" transform="translate(0,0)"></path>
<path d="M 1352.73 418.441 C 1365.66 417.776 1372.64 420.96 1379.23 431.861 C 1363.02 437.597 1330.57 442.698 1312.52 446.192 L 1300.13 449.073 C 1293.85 446.614 1289.13 445.628 1285.41 440.121 C 1285.21 438.053 1284.73 435.988 1286.8 434.39 C 1300.12 424.097 1337.54 419.481 1352.73 418.441 z" fill="rgb(201,169,110)" transform="translate(0,0)"></path>
<path d="M 1493.25 590.502 L 1490.97 587.019 C 1495.89 579.309 1557.33 587.78 1566.41 592.843 L 1566.4 593.699 L 1562.03 594.556 C 1574.23 597.672 1575.21 600.666 1582.41 611.19 C 1584.05 613.594 1583.82 614.804 1583.18 616.946 C 1578.5 616.952 1508.04 603.624 1502.91 601.482 L 1495.24 593.755 L 1493.25 590.502 z" fill="rgb(201,169,110)" transform="translate(0,0)"></path>
<path d="M 1608.49 1283.92 C 1620.5 1302.56 1633.48 1338.38 1630.02 1360.99 C 1627.62 1367.3 1621.15 1377.5 1617.12 1383.06 C 1616.09 1382.88 1614.56 1382.36 1613.5 1382.05 C 1611.75 1380.17 1611.3 1378.13 1611.05 1375.57 C 1608.5 1349.33 1606.75 1328.21 1600.11 1302.49 C 1602.63 1295.73 1605.32 1290.39 1608.49 1283.92 z" fill="rgb(201,169,110)" transform="translate(0,0)"></path>
<path d="M 482.425 592.43 C 483.897 592.587 484.299 593.392 485.88 594.648 C 487.454 602.429 485.038 623.855 485.365 633.513 C 485.538 647.727 486.976 661.943 486.925 676.158 C 486.893 685.354 481.858 688.129 474.004 690.337 C 469.362 680.637 464.725 651.608 464.871 640.507 C 465.228 613.325 465.055 610.974 482.425 592.43 z" fill="rgb(201,169,110)" transform="translate(0,0)"></path>
<path d="M 1630.25 1225.36 C 1633.09 1218.98 1635.83 1212.56 1638.47 1206.09 C 1655.35 1229.19 1661.74 1249.01 1670.96 1275.6 C 1668.72 1281.07 1662.68 1298.6 1658.29 1300.72 C 1652.06 1297.24 1646.33 1272.57 1643.97 1264.59 C 1639.89 1250.81 1635.78 1238.72 1630.25 1225.36 z" fill="rgb(201,169,110)" transform="translate(0,0)"></path>
<path d="M 372.124 1265.51 C 383.455 1267.12 400.426 1281.74 410.596 1287.06 C 421.303 1292.66 470.055 1304.53 450.116 1323.6 C 444.632 1328.84 388.702 1297.76 382.925 1291.18 C 379.613 1284.66 375.544 1273.14 372.124 1265.51 z" fill="rgb(201,169,110)" transform="translate(0,0)"></path>
<path d="M 1628.07 809.506 C 1630.81 809.761 1634.7 810.247 1637.01 811.668 C 1649.29 819.206 1687.8 845.541 1695.07 853.934 C 1697.68 864.562 1699.02 870.861 1699.04 881.76 C 1682.52 870.287 1666.94 856.638 1650.34 845.17 C 1645.16 841.594 1640.03 837.884 1635.1 833.967 C 1632.6 827.231 1628.18 816.362 1628.07 809.506 z" fill="rgb(201,169,110)" transform="translate(0,0)"></path>
<path d="M 330.454 999.605 C 340.737 1007.35 380.405 1053.28 386.28 1064.8 L 387.198 1076.54 C 385.036 1078.41 384.515 1078.5 381.897 1079.76 C 378.201 1079.81 377.095 1078.53 374.048 1076.37 C 358.875 1062.22 341.687 1043.44 329.287 1026.9 L 328.783 1015.87 C 329.302 1010.44 329.859 1005.02 330.454 999.605 z" fill="rgb(201,169,110)" transform="translate(0,0)"></path>
<path d="M 339.239 917.459 C 354.38 928.017 374.396 964.315 386.511 981.761 L 384.876 999.002 C 380.729 1001.66 380.621 1000.88 376.39 999.575 C 360.343 982.679 336.658 955.666 336.663 931.484 C 337.632 926.709 338.52 922.299 339.239 917.459 z" fill="rgb(201,169,110)" transform="translate(0,0)"></path>
<path d="M 1655.94 1126.82 C 1663.95 1127.35 1691.98 1177.2 1697.04 1186.39 C 1694.71 1199.81 1694 1205.6 1688.14 1217.63 C 1680.83 1206.08 1674.63 1191.96 1668.21 1179.58 C 1663.07 1169.66 1655.45 1157.57 1651.14 1147.83 C 1652.59 1139.87 1653.74 1134.57 1655.94 1126.82 z" fill="rgb(201,169,110)" transform="translate(0,0)"></path>
<path d="M 1662.85 971.715 C 1666.41 971.014 1667.42 971.435 1670.8 973.871 C 1681.29 981.426 1713.89 1013.57 1717.8 1023.59 L 1717.5 1027.91 C 1716.85 1032.89 1716.44 1048.43 1713.61 1051.19 C 1710.7 1049.01 1702.88 1037 1699.94 1033.22 C 1688.23 1018.15 1675.33 1005.41 1661.49 992.363 L 1661.86 972.217 L 1662.85 971.715 z" fill="rgb(201,169,110)" transform="translate(0,0)"></path>
<path d="M 1463.13 1489.99 C 1463.46 1490.23 1464.47 1491.59 1464.76 1491.96 C 1467.28 1505.81 1458.35 1553.26 1452.71 1568.2 C 1450.75 1573.39 1440.74 1578.36 1435.02 1580.04 C 1430.44 1575.68 1432.42 1566.04 1433.89 1560.19 C 1438.59 1541.45 1440.96 1520.43 1448.56 1502.83 C 1450.32 1498.76 1459.33 1492.62 1463.13 1489.99 z" fill="rgb(165,130,70)" transform="translate(0,0)"></path>
<path d="M 951.116 334.306 C 955.578 333.98 957.037 333.469 960.909 335.28 L 961.623 336.848 C 955.824 344.119 946.53 353.585 939.93 360.487 C 929.347 371.553 914.863 395.361 900.888 399.88 C 899.037 400.189 896.752 399.975 894.814 399.911 C 885.937 394.424 899.29 376.779 903.816 370.837 C 916.915 353.643 928.658 337.993 951.116 334.306 z" fill="rgb(201,169,110)" transform="translate(0,0)"></path>
<path d="M 1518.17 1426.65 C 1530.26 1431.85 1522.86 1489.34 1520.27 1501.23 C 1518.58 1508.97 1515.19 1515.66 1507.3 1518.36 C 1504.54 1516.42 1499.44 1512.97 1499.48 1509.02 C 1499.45 1494.62 1502.8 1479.17 1503.61 1464.89 C 1504.74 1444.7 1506.24 1442.43 1518.17 1426.65 z" fill="rgb(165,130,70)" transform="translate(0,0)"></path>
<path d="M 1271.55 379.124 C 1277.6 378.345 1291.62 381.004 1293.89 386.843 C 1289.16 391.864 1234.91 413.017 1225.23 417.002 C 1217.95 419.415 1203.52 415.37 1205.06 406.195 C 1213.33 394.264 1256.58 383.095 1271.55 379.124 z" fill="rgb(201,169,110)" transform="translate(0,0)"></path>
<path d="M 767.026 379.844 L 779.646 374.316 C 776.923 385.433 767.357 403.755 761.324 413.891 C 752.799 428.211 746.221 457.785 728.236 459.096 C 725.363 454.206 725.792 448.349 727.507 443.113 C 734.849 420.709 743.609 389.611 767.026 379.844 z" fill="rgb(201,169,110)" transform="translate(0,0)"></path>
<path d="M 333.471 1086.75 C 346.988 1093.46 385.116 1129.43 395.354 1141.89 C 396.004 1145.53 396.975 1152.19 397.881 1155.52 C 395.351 1157.25 393.478 1158.12 390.349 1157.23 C 375.919 1153.13 341.666 1120.33 334.166 1108.94 C 334.097 1101.54 333.865 1094.14 333.471 1086.75 z" fill="rgb(201,169,110)" transform="translate(0,0)"></path>
<path d="M 612.514 466.856 C 613.184 466.99 614.81 467.695 615.521 467.976 C 617.402 474.796 597.644 539.83 594.646 551.72 C 593.958 554.448 588.052 556.299 585.373 557.111 C 574.92 544.769 584.38 511.219 588.17 496.807 C 591.74 483.23 599.938 473.252 612.514 466.856 z" fill="rgb(201,169,110)" transform="translate(0,0)"></path>
<path d="M 1421.2 466.467 C 1426.75 466.065 1427.48 466.109 1432.79 467.29 C 1438.71 468.61 1456.24 476.538 1452.09 484.134 C 1448.1 485.347 1405.69 488.425 1395.93 489.743 C 1384.93 491.874 1369.48 493.832 1362.63 481.954 C 1363.54 469.305 1410.6 467.699 1421.2 466.467 z" fill="rgb(201,169,110)" transform="translate(0,0)"></path>
<path d="M 344.475 1171.54 C 358.825 1174.86 376.042 1191.63 388.784 1200.08 C 396.398 1205.12 408.669 1212.74 415.172 1218.63 C 417.215 1225.17 417.619 1227.32 418.506 1234.09 C 417.643 1234.11 416.779 1234.12 415.915 1234.1 C 401.774 1233.77 360.89 1207.65 350.809 1197.43 C 348.46 1188.42 347.27 1180.95 344.475 1171.54 z" fill="rgb(201,169,110)" transform="translate(0,0)"></path>
<path d="M 1661.65 1051.23 C 1673.8 1050.37 1705.18 1094.83 1712.72 1104.74 C 1711.87 1114.57 1710.1 1124.31 1707.42 1133.81 C 1698.72 1121.77 1670.58 1081.07 1660.48 1074.08 C 1661.33 1069.21 1661.82 1056.25 1661.65 1051.23 z" fill="rgb(201,169,110)" transform="translate(0,0)"></path>
<path d="M 1399 1542.79 C 1400.77 1542.88 1399.87 1542.62 1401.58 1543.87 C 1403.93 1556.7 1381.8 1606.14 1375.91 1620.56 C 1369.48 1624.82 1365.98 1625.63 1358.68 1626.96 C 1356.55 1625.34 1354.11 1623.32 1355.38 1620.23 C 1364.17 1598.78 1371.46 1575.54 1382.42 1555.21 C 1383.67 1552.89 1395.87 1544.97 1399 1542.79 z" fill="rgb(165,130,70)" transform="translate(0,0)"></path>
<path d="M 1093.14 1716.19 C 1088.89 1716.26 1088.15 1716.32 1084.05 1715.44 C 1083.66 1713.5 1083.86 1712.7 1084.53 1710.86 C 1087.83 1701.85 1133.49 1658.07 1142.59 1654.02 C 1145.93 1652.53 1148.68 1652.12 1152.19 1653.45 C 1154.7 1655.8 1154.67 1655.55 1155.4 1658.89 C 1154.89 1662.95 1153.21 1664.35 1150.59 1667.73 C 1137.13 1684.74 1114.51 1711.45 1093.14 1716.19 z" fill="rgb(165,130,70)" transform="translate(0,0)"></path>
<path d="M 1093.14 1716.19 C 1095.43 1713.74 1095.89 1711.1 1098.15 1709.04 C 1112.52 1695.92 1124.8 1680.66 1138.95 1667.53 C 1141.4 1665.25 1147.33 1667.07 1150.59 1667.73 C 1137.13 1684.74 1114.51 1711.45 1093.14 1716.19 z" fill="rgb(201,169,110)" transform="translate(0,0)"></path>
<path d="M 1321.67 1589.84 C 1324.18 1590.51 1323.09 1589.91 1324.74 1592.03 C 1325.94 1602.6 1308.11 1636.51 1302.21 1646.84 C 1295.41 1658.75 1288.8 1667.01 1275.18 1670.66 C 1273.29 1669.07 1269.53 1665.8 1271.25 1662.71 C 1282.85 1641.85 1293.57 1619.61 1306.27 1599.49 C 1307.45 1597.62 1319.11 1591.28 1321.67 1589.84 z" fill="rgb(165,130,70)" transform="translate(0,0)"></path>
<path d="M 1027.86 329.564 C 1032.28 329.71 1041.33 329.554 1045.31 329.996 C 1033.95 348.34 1009.23 363.775 994.18 379.724 C 989.228 384.972 982.195 390.004 974.712 390.187 C 969.3 387.087 972.189 379.672 974.914 375.592 C 986.489 358.268 1007.36 335.028 1027.86 329.564 z" fill="rgb(201,169,110)" transform="translate(0,0)"></path>
<path d="M 870.153 348.204 C 870.929 348.355 871.777 348.931 872.543 349.348 C 871.488 354.95 854.322 378.697 850.076 384.503 C 840.014 398.265 833.057 416.642 816.278 422.051 C 801.855 420.18 833.245 373.375 836.138 369.195 C 847.399 352.92 851.671 351.399 870.153 348.204 z" fill="rgb(201,169,110)" transform="translate(0,0)"></path>
<path d="M 898.613 1652.93 C 904.347 1652.99 909.225 1652.51 913.666 1656.08 C 914.462 1657.96 915.314 1659.52 913.98 1661.67 C 907 1672.88 865.222 1693.15 854.324 1697.03 C 849.145 1697.1 842.867 1696.52 838.526 1693.51 C 831.86 1681.83 888.477 1657.74 898.613 1652.93 z" fill="rgb(165,130,70)" transform="translate(0,0)"></path>
<path d="M 597.973 1572.03 C 594.67 1569.09 592.701 1567.93 591.164 1563.96 L 591.737 1561.76 C 595.496 1560.51 599.675 1561.09 603.763 1561.2 C 624.393 1561.75 645.809 1558.35 666.353 1555.74 C 671.204 1559.93 675.487 1562.58 676.633 1568.95 C 675.943 1570.98 676.136 1571.83 673.612 1572.78 C 659.041 1578.27 620.907 1583.22 607.537 1579.39 C 606.555 1578.3 599.585 1573.24 597.973 1572.03 z" fill="rgb(201,169,110)" transform="translate(0,0)"></path>
<path d="M 1189.57 352.207 C 1194.91 351.772 1208.09 351.899 1209.52 358.134 C 1206.64 362.137 1154.94 390.548 1146.38 395.671 C 1141 398.582 1133.07 397.399 1129.71 392.128 C 1128.79 378.171 1177.54 356.229 1189.57 352.207 z" fill="rgb(201,169,110)" transform="translate(0,0)"></path>
<path d="M 671.018 1623.89 L 668.589 1620.95 L 668.887 1618.98 C 672.394 1617.06 688.259 1614.87 693.755 1613.72 C 708.874 1610.56 723.26 1606.15 738.128 1602.09 C 749.04 1599.1 751.276 1604.76 755.755 1613.12 C 742.046 1621.2 702.089 1634.37 686.787 1632.63 C 683.156 1630.15 675.144 1626.1 671.018 1623.89 z" fill="rgb(201,169,110)" transform="translate(0,0)"></path>
<path d="M 821.012 1632.95 C 825.392 1633.05 831.567 1634.85 834.39 1638.28 C 835.297 1644.48 829.278 1648.61 824.233 1651.07 C 809.003 1658.51 789.06 1669.67 772.618 1672.35 C 765.289 1670.79 755.79 1669.51 756.686 1660.32 C 762.578 1656.87 774.668 1652.85 781.427 1649.86 C 794.509 1644.08 807.628 1637.91 821.012 1632.95 z" fill="rgb(201,169,110)" transform="translate(0,0)"></path>
<path d="M 1227.79 1630.25 C 1231.65 1629.95 1234.35 1629.43 1237.19 1631.5 C 1237.45 1636.14 1232.31 1644.12 1229.81 1648.25 C 1220.07 1664.34 1206.55 1688.62 1189.92 1698.17 C 1185.33 1698.07 1184.01 1697.54 1180.84 1694.2 C 1180.22 1692.2 1179.37 1689.56 1180.75 1687.6 C 1190.69 1673.5 1212.81 1636.06 1227.79 1630.25 z" fill="url(#Gradient1)" transform="translate(0,0)"></path>
<metadata><recraft-signature>{"signed_by": "recraft", "signature_b64": "gbYGOYVS/+ybw+8Vqh/lxogiSn9Vom/f8rgIFgLkt9/mHX8PqEIknShaISe2Ao/rlbZmfn2SFtE8fQV9tiLdDw==", "signing_algo": "Ed25519", "generation_timestamp": 1777675931, "identifier": "13f783a0-c9fb-419d-82c4-ed0c9601a7a4"}</recraft-signature></metadata></svg>