<svg xmlns="http://www.w3.org/2000/svg" height="1024" preserveAspectRatio="none" style="display: block;" version="1.1" viewBox="0 0 2048 2048" width="1024">
<defs>
	<linearGradient gradientUnits="userSpaceOnUse" id="Gradient1" x1="885.01" x2="917.674" y1="793.089" y2="763.118">
		<stop class="stop0" offset="0" stop-color="rgb(255,229,173)" stop-opacity="1"></stop>
		<stop class="stop1" offset="1" stop-color="rgb(255,246,215)" stop-opacity="1"></stop>
	</linearGradient>
	<linearGradient gradientUnits="userSpaceOnUse" id="Gradient2" x1="346.882" x2="666.725" y1="1331.19" y2="384.81">
		<stop class="stop0" offset="0" stop-color="rgb(231,188,133)" stop-opacity="1"></stop>
		<stop class="stop1" offset="1" stop-color="rgb(255,246,203)" stop-opacity="1"></stop>
	</linearGradient>
	<linearGradient gradientUnits="userSpaceOnUse" id="Gradient3" x1="1772.17" x2="1785.82" y1="657.584" y2="658.481">
		<stop class="stop0" offset="0" stop-color="rgb(86,104,86)" stop-opacity="1"></stop>
		<stop class="stop1" offset="1" stop-color="rgb(108,109,97)" stop-opacity="1"></stop>
	</linearGradient>
	<linearGradient gradientUnits="userSpaceOnUse" id="Gradient4" x1="1229.77" x2="1565.74" y1="1197.97" y2="422.621">
		<stop class="stop0" offset="0" stop-color="rgb(248,218,167)" stop-opacity="1"></stop>
		<stop class="stop1" offset="1" stop-color="rgb(255,255,220)" stop-opacity="1"></stop>
	</linearGradient>
	<linearGradient gradientUnits="userSpaceOnUse" id="Gradient5" x1="707.671" x2="1294.43" y1="1808.27" y2="269.455">
		<stop class="stop0" offset="0" stop-color="rgb(221,173,113)" stop-opacity="1"></stop>
		<stop class="stop1" offset="1" stop-color="rgb(255,252,212)" stop-opacity="1"></stop>
	</linearGradient>
</defs>
<path d="M 0 0 L 2048 0 L 2048 2048 L 0 2048 L 0 0 z" fill="rgb(254,254,254)" transform="translate(0,0)"></path>
<path d="M 1586.26 1644.22 C 1533.39 1699.36 1445.68 1757.7 1377.49 1791.44 C 1167.59 1893.71 925.934 1909.49 704.516 1835.39 C 568.236 1789.13 431.812 1687.64 342.495 1575.63 C 300.124 1521.56 263.759 1463.05 234.044 1401.11 C 226.616 1386.01 220.499 1370.1 214.226 1354.47 C 171.897 1250.16 151.293 1138.32 153.674 1025.78 C 155.506 911.236 180.078 811.305 224.289 705.918 C 308.011 508.14 460.215 347.166 652.997 252.508 C 824.111 171.086 1017.12 147.727 1202.72 185.979 C 1217.84 189.154 1233.09 192.356 1248.14 196.406 C 1436.7 247.158 1599.8 366.779 1708.69 528.544 C 1724.98 552.734 1740.49 575.768 1753.02 601.604 C 1764.81 623.09 1780.91 653.201 1789.52 675.72 C 1800.3 703.545 1811.9 730.867 1821.31 759.354 C 1824.45 768.989 1825.04 779.307 1827.55 789.093 C 1832.34 807.716 1838.69 826.348 1842.9 845.078 C 1850.43 878.529 1853.51 912.084 1855.76 946.184 C 1857.74 965.809 1860.27 985.897 1859.32 1005.67 C 1858.32 1026.71 1858.54 1048.38 1856.57 1069.27 C 1854.95 1086.52 1848.19 1101.65 1850.45 1119.21 C 1850.98 1123.35 1850.41 1130.26 1850.21 1134.62 C 1847.7 1187.62 1812.63 1290.23 1793.07 1339.39 C 1785.83 1357.15 1771.18 1391.79 1760.47 1408.06 C 1753.01 1425.59 1740.64 1445.61 1730.88 1462.02 C 1711.51 1494.61 1690.77 1524.48 1667.05 1554.04 C 1658.06 1565.25 1647.41 1580.11 1637.56 1590.32 C 1627.11 1602.17 1598.36 1634.46 1586.26 1644.22 z" fill="url(#Gradient5)" transform="translate(0,0)"></path>
<path d="M 1061.72 227.127 C 1073.51 222.249 1137 235.894 1153.72 235.591 C 1174.17 240.552 1196.42 243.188 1215.91 248.22 C 1316.5 274.12 1410.84 320.032 1493.29 383.211 C 1598.52 467.126 1681.12 575.997 1733.59 699.938 C 1742.33 720.493 1750.02 741.476 1756.64 762.807 C 1759.46 771.745 1765.36 793.638 1768.51 801.295 C 1775.87 835.106 1784.58 866.806 1787.55 901.559 C 1787.95 906.212 1788.93 913.749 1789.9 918.14 C 1790.63 924.751 1791.28 931.37 1791.86 937.995 C 1794.35 989.758 1797.19 1033.38 1791.52 1085.57 C 1787.71 1120.68 1781.04 1151.16 1775.2 1185.25 C 1773.99 1191.93 1772.78 1196.97 1771.05 1203.55 C 1767.43 1214.47 1764.68 1225.5 1761.28 1236.47 C 1748.16 1278.91 1731.7 1317.12 1713.53 1357.34 C 1711 1360.14 1709.54 1368.06 1707.58 1371.27 C 1695.44 1391.1 1674.74 1433.57 1660.41 1449.55 C 1636.44 1395.94 1611.66 1342.69 1586.1 1289.81 C 1573.66 1263.6 1558.71 1236.62 1548.41 1209.15 C 1538.61 1193.21 1532.81 1175.62 1523.8 1159.67 C 1505.1 1126.81 1489.2 1093.33 1474.59 1058.47 C 1469.68 1046.74 1462.2 1035.17 1456.86 1022.83 C 1431.96 969.183 1402.14 914.154 1376.38 860.34 C 1283.52 665.081 1187.38 471.394 1088.01 279.364 C 1080.48 263.874 1068 241.878 1061.72 227.127 z" fill="rgb(27,58,45)" transform="translate(0,0)"></path>
<path d="M 1456.86 1022.83 C 1467.22 1029.1 1480.55 1061.88 1487.08 1072.87 C 1499.57 1093.88 1509.68 1115.66 1519.64 1137.88 C 1524.73 1149.24 1533.45 1160.38 1537.54 1172.68 C 1540.18 1179.59 1548.63 1203.07 1548.41 1209.15 C 1538.61 1193.21 1532.81 1175.62 1523.8 1159.67 C 1505.1 1126.81 1489.2 1093.33 1474.59 1058.47 C 1469.68 1046.74 1462.2 1035.17 1456.86 1022.83 z" fill="rgb(88,104,84)" transform="translate(0,0)"></path>
<path d="M 1108.06 259.438 C 1213.13 269.822 1329.64 308.896 1418.95 365.173 C 1528.53 435.378 1618.68 532.036 1681.09 646.238 C 1702.29 684.958 1721.28 730.455 1735.76 772.082 C 1756.61 832.002 1769 896.689 1770.41 960.083 C 1770.96 984.893 1773.59 1011.19 1772.79 1035.97 C 1769.5 1137.24 1746.08 1236.83 1703.9 1328.95 C 1697.58 1340.91 1675.55 1396.59 1664.42 1398.77 C 1655.99 1393.99 1624.58 1318.42 1618.23 1304.96 L 1577.93 1221.43 L 1246.01 533.997 C 1239.91 521.431 1233.04 509.072 1226.78 496.572 L 1140.18 322.936 C 1131.56 305.271 1114.01 274.95 1108.06 259.438 z" fill="url(#Gradient4)" transform="translate(0,0)"></path>
<path d="M 1427.97 574.467 C 1431.17 575.799 1430.14 574.707 1431.46 577.535 C 1430.57 580.358 1429 580.961 1426.49 582.646 C 1425.04 581.457 1424.25 580.587 1422.92 579.253 L 1423.16 577.814 L 1427.97 574.467 z" fill="rgb(201,169,110)" transform="translate(0,0)"></path>
<path d="M 1586.26 1644.22 C 1533.39 1699.36 1445.68 1757.7 1377.49 1791.44 C 1167.59 1893.71 925.934 1909.49 704.516 1835.39 C 568.236 1789.13 431.812 1687.64 342.495 1575.63 C 300.124 1521.56 263.759 1463.05 234.044 1401.11 C 226.616 1386.01 220.499 1370.1 214.226 1354.47 C 171.897 1250.16 151.293 1138.32 153.674 1025.78 C 155.506 911.236 180.078 811.305 224.289 705.918 C 308.011 508.14 460.215 347.166 652.997 252.508 C 824.111 171.086 1017.12 147.727 1202.72 185.979 C 1217.84 189.154 1233.09 192.356 1248.14 196.406 C 1436.7 247.158 1599.8 366.779 1708.69 528.544 C 1724.98 552.734 1740.49 575.768 1753.02 601.604 C 1764.81 623.09 1780.91 653.201 1789.52 675.72 C 1781.65 672.95 1782.52 670.33 1776.53 665.196 L 1775.23 664.112 C 1777.57 673.683 1792.85 681.235 1792.69 694.684 C 1794.88 707.891 1805.3 720.191 1808.73 733.14 C 1810.08 738.225 1812.28 740.679 1813.66 745.38 C 1809.92 745.585 1804.81 746.125 1801.51 743.954 C 1798.61 742.053 1794.18 721.848 1792.33 717.045 C 1788.92 708.19 1783.32 701.364 1779.18 693.122 C 1776.56 687.927 1774.78 682.295 1772.25 677.042 C 1767.22 666.59 1745.69 625.454 1744.7 617.393 C 1742.71 601.28 1715.13 573.199 1705.64 557.577 C 1700.75 549.529 1698.18 538.46 1692.62 531.316 C 1687.03 524.136 1679.11 518.68 1673.36 511.475 C 1665.97 502.029 1658.76 492.447 1651.73 482.735 C 1639.79 466.001 1636.05 462.411 1620.65 448.571 C 1606.46 434.135 1592.25 419.536 1577.82 405.341 C 1571.43 399.053 1562.14 376.302 1552.24 377.919 L 1556.47 383.381 L 1556.24 384.158 C 1550.13 380.335 1545.06 374.799 1539.25 370.13 C 1485.7 327.169 1423.68 287.59 1360.73 260.364 C 1344.92 253.524 1294.16 232.604 1281.78 233.642 C 1207.89 208.472 1129.72 195.797 1051.79 194.899 C 1017.99 194.509 983.843 194.073 950.204 197.896 C 935.539 199.596 917.056 201.267 902.83 203.899 C 698.536 229.098 496.13 350.833 368.001 510.279 C 225.709 687.35 152.108 924.409 184.899 1150.59 C 209.262 1328.48 292.342 1499.74 417.981 1628.12 C 430.259 1640.67 441.906 1648.81 454.336 1660.16 C 467.732 1672.39 477.664 1682.3 492.415 1693.67 C 513.264 1709.93 534.918 1725.13 557.294 1739.22 C 564.898 1747.08 588.614 1759.41 598.493 1764.85 C 743.935 1844.91 911.611 1873.89 1076.13 1857.22 C 1090.63 1855.76 1120.05 1854.57 1133.88 1849.67 C 1140.3 1853.41 1174.38 1847.09 1184.38 1845.17 C 1197.04 1839.46 1217.73 1839.09 1229.38 1834.36 C 1253.89 1824.42 1289.68 1819.74 1312.71 1810 C 1310.11 1809.65 1308.28 1809.75 1306.34 1808.05 L 1307.32 1806.55 L 1309.11 1806.88 L 1310.54 1805.65 L 1313.59 1806.63 C 1322.23 1803.21 1389.55 1775.46 1392.81 1772.45 C 1393.05 1771.31 1393.81 1767.61 1395 1767.04 C 1404.34 1762.54 1413.61 1757.94 1423.34 1754.31 C 1423.95 1752.47 1424.57 1750.25 1426.99 1749.94 C 1449.27 1747.11 1462.11 1729.56 1479.14 1717.04 C 1488.72 1709.98 1501.04 1702.23 1511.03 1695.32 C 1514.22 1692.48 1522.25 1689.59 1525.11 1686.87 C 1535.82 1676.66 1547.18 1667.75 1558.65 1658.72 C 1569.2 1650.42 1577.67 1637.3 1588.96 1629.46 L 1589.69 1629.88 C 1588.04 1633.35 1584.76 1635.71 1584.26 1638.01 L 1585.46 1639.1 C 1592.39 1635.87 1589.82 1633.99 1592.8 1631.05 C 1594.85 1629.02 1605.49 1619.95 1607.4 1619.58 C 1606.02 1622.38 1589.77 1638.63 1586.38 1642.37 L 1586.26 1644.22 z" fill="rgb(27,58,45)" transform="translate(0,0)"></path>
<path d="M 1753.02 601.604 C 1764.81 623.09 1780.91 653.201 1789.52 675.72 C 1781.65 672.95 1782.52 670.33 1776.53 665.196 L 1775.23 664.112 C 1774.71 663.925 1775.11 664.128 1773.71 662.968 C 1773.37 645.105 1772.74 638.896 1760.21 625.981 C 1750.44 615.902 1752.72 614.765 1753.02 601.604 z" fill="url(#Gradient3)" transform="translate(0,0)"></path>
<path d="M 950.204 197.896 C 983.843 194.073 1017.99 194.509 1051.79 194.899 C 1129.72 195.797 1207.89 208.472 1281.78 233.642 C 1313.82 247.195 1347.84 257.698 1379.21 273.356 C 1470.98 319.163 1555.49 381.138 1622.29 459.366 C 1638.31 478.202 1662.57 503.268 1674.8 523.783 L 1672.18 525.478 C 1667.09 523.784 1668.67 519.658 1666.07 518.088 C 1650.39 508.786 1639.44 494.418 1625.09 483.59 C 1618.23 478.421 1599.95 474.537 1597.91 463.778 C 1596.33 455.466 1589.19 456.416 1585.18 450.79 C 1581.7 445.925 1578.7 440.371 1575.38 435.378 C 1572.55 427.817 1557.44 424.068 1553.5 418.669 C 1543.08 404.378 1545.09 390.302 1522.57 395.004 C 1518.76 395.799 1504.29 383.531 1497.62 381.194 C 1495.71 381.975 1495.09 382.281 1493.29 383.211 C 1410.84 320.032 1316.5 274.12 1215.91 248.22 C 1196.42 243.188 1174.17 240.552 1153.72 235.591 C 1158.14 232.255 1159.96 235.911 1162.42 230.735 C 1161.53 226.805 1155.06 218.117 1151.64 215.659 C 1143.38 209.724 1133.24 217.793 1124.06 219.098 C 1113.75 220.563 1107.39 213.538 1098 213.199 C 1090.47 212.927 1081.23 215.061 1073.56 215.265 C 1069.32 216.097 1064.97 214.306 1061.04 212.674 C 1051.79 208.836 1047.49 209.39 1047.63 197.859 C 1042.3 193.343 1032.47 198.231 1024.82 195.912 C 1020.97 194.747 1020.05 195.554 1017.86 197.242 C 1018.67 199.949 1018.94 200.2 1018.81 202.963 C 1017.57 204.544 1016.96 205.285 1015.19 206.325 C 993.256 219.265 985.462 210.673 963.529 205.533 C 958.567 204.37 956.294 203.69 952.515 206.151 L 951.302 205.43 L 952.352 200.016 L 950.798 199.277 C 942.661 214.174 914.953 204.886 902.83 203.899 C 917.056 201.267 935.539 199.596 950.204 197.896 z" fill="rgb(254,254,254)" transform="translate(0,0)"></path>
<path d="M 1281.78 233.642 C 1294.16 232.604 1344.92 253.524 1360.73 260.364 C 1423.68 287.59 1485.7 327.169 1539.25 370.13 C 1545.06 374.799 1550.13 380.335 1556.24 384.158 L 1556.47 383.381 L 1552.24 377.919 C 1562.14 376.302 1571.43 399.053 1577.82 405.341 C 1592.25 419.536 1606.46 434.135 1620.65 448.571 C 1636.05 462.411 1639.79 466.001 1651.73 482.735 C 1658.76 492.447 1665.97 502.029 1673.36 511.475 C 1679.11 518.68 1687.03 524.136 1692.62 531.316 C 1698.18 538.46 1700.75 549.529 1705.64 557.577 C 1715.13 573.199 1742.71 601.28 1744.7 617.393 C 1745.69 625.454 1767.22 666.59 1772.25 677.042 C 1774.78 682.295 1776.56 687.927 1779.18 693.122 C 1783.32 701.364 1788.92 708.19 1792.33 717.045 C 1794.18 721.848 1798.61 742.053 1801.51 743.954 C 1804.81 746.125 1809.92 745.585 1813.66 745.38 C 1812.28 740.679 1810.08 738.225 1808.73 733.14 C 1805.3 720.191 1794.88 707.891 1792.69 694.684 C 1792.85 681.235 1777.57 673.683 1775.23 664.112 L 1776.53 665.196 C 1782.52 670.33 1781.65 672.95 1789.52 675.72 C 1800.3 703.545 1811.9 730.867 1821.31 759.354 C 1824.45 768.989 1825.04 779.307 1827.55 789.093 C 1832.34 807.716 1838.69 826.348 1842.9 845.078 C 1850.43 878.529 1853.51 912.084 1855.76 946.184 C 1857.74 965.809 1860.27 985.897 1859.32 1005.67 C 1858.32 1026.71 1858.54 1048.38 1856.57 1069.27 C 1854.95 1086.52 1848.19 1101.65 1850.45 1119.21 C 1850.98 1123.35 1850.41 1130.26 1850.21 1134.62 C 1847.96 1133.63 1845.82 1132.69 1843.61 1131.61 C 1842.41 1131.78 1840.78 1131.6 1840.48 1132.88 C 1838.45 1141.35 1826.26 1169.31 1827.27 1176.54 C 1830.67 1192.99 1827.18 1201.57 1821.1 1216.66 C 1820.71 1219.52 1822.8 1228.82 1819.76 1230.96 C 1814.76 1234.47 1814.42 1253.26 1814.76 1252.45 C 1795.11 1300.09 1781.43 1349.86 1756 1394.86 C 1747.65 1409.64 1739.65 1427.38 1730.34 1441.97 C 1718.69 1456.98 1664.62 1537.94 1653.24 1543.01 C 1655.6 1536.8 1660.33 1532.94 1663.9 1527.35 C 1678.64 1504.25 1695.13 1485.68 1709.9 1462.47 C 1728 1437.55 1739.7 1408.34 1753.81 1381.41 C 1805.54 1282.7 1829.05 1173.51 1836.03 1062.98 C 1838.61 1022.22 1838.87 981.885 1836.09 940.717 C 1834.5 917.083 1829.17 896.094 1826.18 873.038 C 1816.72 823.519 1808.22 784.997 1789.94 737.619 C 1774.26 696.807 1757.27 657.636 1736.29 619.252 C 1732.08 611.551 1727.64 603.706 1723.79 595.836 C 1705.71 567.695 1696.86 551.002 1674.8 523.783 C 1662.57 503.268 1638.31 478.202 1622.29 459.366 C 1555.49 381.138 1470.98 319.163 1379.21 273.356 C 1347.84 257.698 1313.82 247.195 1281.78 233.642 z" fill="rgb(88,104,84)" transform="translate(0,0)"></path>
<path d="M 1723.79 595.836 C 1731.75 600.548 1732.54 610.254 1737.51 616.651 C 1753.81 637.626 1762.21 663.178 1773.86 687.129 C 1784.16 708.295 1794.29 731.319 1802.48 753.401 C 1804.34 758.735 1804.7 771.88 1806.41 777.864 C 1807.45 781.521 1812.51 788.589 1813.22 791.412 C 1817.77 809.588 1828.2 855.671 1826.18 873.038 C 1816.72 823.519 1808.22 784.997 1789.94 737.619 C 1774.26 696.807 1757.27 657.636 1736.29 619.252 C 1732.08 611.551 1727.64 603.706 1723.79 595.836 z" fill="rgb(123,117,101)" transform="translate(0,0)"></path>
<path d="M 1653.24 1543.01 C 1664.62 1537.94 1718.69 1456.98 1730.34 1441.97 C 1739.65 1427.38 1747.65 1409.64 1756 1394.86 C 1781.43 1349.86 1795.11 1300.09 1814.76 1252.45 C 1814.42 1253.26 1814.76 1234.47 1819.76 1230.96 C 1822.8 1228.82 1820.71 1219.52 1821.1 1216.66 C 1827.18 1201.57 1830.67 1192.99 1827.27 1176.54 C 1826.26 1169.31 1838.45 1141.35 1840.48 1132.88 C 1840.78 1131.6 1842.41 1131.78 1843.61 1131.61 C 1845.82 1132.69 1847.96 1133.63 1850.21 1134.62 C 1847.7 1187.62 1812.63 1290.23 1793.07 1339.39 C 1785.83 1357.15 1771.18 1391.79 1760.47 1408.06 C 1753.01 1425.59 1740.64 1445.61 1730.88 1462.02 C 1711.51 1494.61 1690.77 1524.48 1667.05 1554.04 C 1658.06 1565.25 1647.41 1580.11 1637.56 1590.32 C 1627.11 1602.17 1598.36 1634.46 1586.26 1644.22 L 1586.38 1642.37 C 1589.77 1638.63 1606.02 1622.38 1607.4 1619.58 C 1605.49 1619.95 1594.85 1629.02 1592.8 1631.05 C 1589.82 1633.99 1592.39 1635.87 1585.46 1639.1 L 1584.26 1638.01 C 1584.76 1635.71 1588.04 1633.35 1589.69 1629.88 L 1588.96 1629.46 C 1577.67 1637.3 1569.2 1650.42 1558.65 1658.72 C 1547.18 1667.75 1535.82 1676.66 1525.11 1686.87 C 1522.25 1689.59 1514.22 1692.48 1511.03 1695.32 C 1501.04 1702.23 1488.72 1709.98 1479.14 1717.04 C 1462.11 1729.56 1449.27 1747.11 1426.99 1749.94 C 1424.57 1750.25 1423.95 1752.47 1423.34 1754.31 C 1413.61 1757.94 1404.34 1762.54 1395 1767.04 C 1393.81 1767.61 1393.05 1771.31 1392.81 1772.45 C 1389.55 1775.46 1322.23 1803.21 1313.59 1806.63 L 1310.54 1805.65 L 1309.11 1806.88 L 1307.32 1806.55 L 1306.34 1808.05 C 1308.28 1809.75 1310.11 1809.65 1312.71 1810 C 1289.68 1819.74 1253.89 1824.42 1229.38 1834.36 C 1217.73 1839.09 1197.04 1839.46 1184.38 1845.17 C 1174.38 1847.09 1140.3 1853.41 1133.88 1849.67 C 1166.59 1842.07 1209.94 1833.15 1241.46 1823.9 C 1340.82 1794.58 1433.5 1746.11 1514.26 1681.22 C 1530.28 1668.57 1547.5 1656.97 1561.84 1642.56 C 1563.18 1641.22 1576.07 1629.5 1576.91 1629.09 C 1582.03 1621.19 1596.8 1609.56 1603.18 1602.05 C 1616.3 1586.61 1628.96 1570.66 1642.43 1555.5 C 1645.2 1552.39 1650.39 1544.98 1653.24 1543.01 z" fill="rgb(77,90,71)" transform="translate(0,0)"></path>
<path d="M 1760.47 1408.06 C 1760.01 1398.23 1777.52 1372.33 1782.03 1360.95 C 1785.72 1351.63 1784.67 1353.07 1786.81 1342.83 C 1787.33 1340.34 1790.54 1340.07 1793.07 1339.39 C 1785.83 1357.15 1771.18 1391.79 1760.47 1408.06 z" fill="rgb(88,104,84)" transform="translate(0,0)"></path>
<path d="M 1789.94 737.619 C 1808.22 784.997 1816.72 823.519 1826.18 873.038 C 1829.17 896.094 1834.5 917.083 1836.09 940.717 C 1838.87 981.885 1838.61 1022.22 1836.03 1062.98 C 1829.05 1173.51 1805.54 1282.7 1753.81 1381.41 C 1739.7 1408.34 1728 1437.55 1709.9 1462.47 C 1695.13 1485.68 1678.64 1504.25 1663.9 1527.35 C 1660.33 1532.94 1655.6 1536.8 1653.24 1543.01 C 1650.39 1544.98 1645.2 1552.39 1642.43 1555.5 C 1628.96 1570.66 1616.3 1586.61 1603.18 1602.05 C 1596.8 1609.56 1582.03 1621.19 1576.91 1629.09 C 1576.07 1629.5 1563.18 1641.22 1561.84 1642.56 C 1547.5 1656.97 1530.28 1668.57 1514.26 1681.22 C 1433.5 1746.11 1340.82 1794.58 1241.46 1823.9 C 1209.94 1833.15 1166.59 1842.07 1133.88 1849.67 C 1120.05 1854.57 1090.63 1855.76 1076.13 1857.22 C 911.611 1873.89 743.935 1844.91 598.493 1764.85 C 588.614 1759.41 564.898 1747.08 557.294 1739.22 C 567.702 1739.66 603.587 1765.39 616.302 1771.35 C 633.08 1779.21 650.626 1787.83 667.931 1794.94 C 675.686 1793.54 678.606 1796.67 686.747 1797.13 C 693.242 1803.18 694.879 1804.84 703.551 1807.82 C 721.377 1814.01 738.247 1820.53 756.573 1825.54 C 761.201 1826.8 766.114 1829.92 770.499 1831.14 C 776.26 1832.74 786.134 1832.13 791.544 1833.26 C 797.679 1834.55 804.236 1837.11 810.911 1838.29 C 828.486 1841.4 845.919 1844.93 863.375 1848.63 C 874.327 1850.95 887.561 1851.32 898.119 1853.79 C 903.234 1856.01 909.422 1853.9 914.417 1854.67 C 946.958 1859.7 977.346 1858.48 1009.99 1856.46 C 1033.77 1854.99 1057.37 1854.64 1081.35 1852.07 C 1118.93 1847.69 1156.22 1841.11 1193.03 1832.37 C 1198.22 1831.12 1202.13 1829.18 1207.1 1827.78 C 1212.84 1826.16 1224.13 1825.54 1229.14 1823.78 C 1272.63 1808.47 1315.08 1795.24 1356.52 1774.44 C 1368.99 1768.19 1379.13 1761.96 1391.03 1754.9 C 1403.97 1747.22 1418.55 1740.58 1431.47 1732.94 C 1479.4 1704.56 1522.98 1669.42 1563.86 1631.73 C 1566.18 1629.58 1571.52 1625.54 1572.78 1624.22 C 1576.64 1620.19 1580.83 1613.2 1585.06 1609.05 C 1615.77 1578.93 1644.15 1543.89 1669.38 1509.09 C 1675.69 1500.39 1684.17 1490.34 1689.75 1481.47 C 1702.66 1460.98 1715.7 1439.89 1726.51 1418.22 C 1729.12 1413.01 1735.98 1405.8 1738.65 1400.52 C 1747.55 1382.93 1756.08 1365.15 1764.32 1347.25 C 1768.76 1337.57 1770.67 1329.69 1774.36 1320.56 C 1782.94 1299.32 1790.26 1279.45 1796.99 1257.54 C 1802.22 1240.5 1806.43 1223.52 1811.23 1206.44 C 1813.73 1197.55 1811.44 1189.35 1812.88 1184.77 C 1815.14 1177.57 1816.42 1174.62 1818.18 1166.07 C 1836.61 1073.81 1838.52 979.021 1823.84 886.095 C 1821.31 869.794 1820.59 854.077 1815.38 838.332 C 1813.64 833.075 1812.17 826.996 1810.74 821.585 L 1797.96 771.291 C 1795.31 761.225 1790.73 747.524 1789.94 737.619 z" fill="rgb(201,169,110)" transform="translate(0,0)"></path>
<path d="M 1791.86 937.995 C 1798.25 947.157 1797.39 963.155 1798.11 974.909 C 1800.19 1008.67 1803.47 1042.86 1795.12 1076.06 C 1792.98 1084.56 1795.45 1091.67 1795.3 1100.3 C 1788.45 1116.46 1787.14 1176.15 1775.2 1185.25 C 1781.04 1151.16 1787.71 1120.68 1791.52 1085.57 C 1797.19 1033.38 1794.35 989.758 1791.86 937.995 z" fill="rgb(201,169,110)" transform="translate(0,0)"></path>
<path d="M 1713.53 1357.34 C 1731.7 1317.12 1748.16 1278.91 1761.28 1236.47 C 1764.68 1225.5 1767.43 1214.47 1771.05 1203.55 C 1773.75 1219.35 1764.98 1240.09 1759.85 1254.62 C 1758.64 1258.05 1759.31 1266.06 1758.06 1270.1 C 1756.36 1275.54 1753.85 1280.89 1752.14 1286.27 C 1746.54 1303.84 1740.45 1321.66 1729.42 1336.74 C 1727.45 1339.43 1715.59 1355.6 1713.53 1357.34 z" fill="rgb(201,169,110)" transform="translate(0,0)"></path>
<path d="M 1088.01 279.364 C 1087.29 279.449 1086.56 279.52 1085.83 279.576 C 1067.59 280.915 1061.73 263.638 1057.32 249.619 C 1054.47 240.558 1063.05 236.029 1061.72 227.127 C 1068 241.878 1080.48 263.874 1088.01 279.364 z" fill="rgb(254,254,254)" transform="translate(0,0)"></path>
<path d="M 1768.51 801.295 C 1774.96 808.395 1784.97 845.08 1785.86 855.177 C 1786.77 865.368 1786.43 876.325 1788.26 887.492 L 1788.37 886.032 C 1789.83 894.811 1793.27 909.978 1789.9 918.14 C 1788.93 913.749 1787.95 906.212 1787.55 901.559 C 1784.58 866.806 1775.87 835.106 1768.51 801.295 z" fill="rgb(201,169,110)" transform="translate(0,0)"></path>
<path d="M 986.399 227.557 C 990.668 227.183 993.254 226.593 996.689 228.464 C 995.974 231.366 989.346 242.658 987.478 246.126 L 958.665 298.775 L 876.627 450.792 L 573.246 1017.8 L 395.225 1350.27 C 380.942 1376.41 368.276 1404.48 353.631 1430.62 C 347.038 1442.39 342.215 1452.97 334.513 1464.37 C 323.418 1446.75 302.717 1407.97 293.68 1389.34 C 286.445 1372.95 274.169 1350.66 268.169 1335.24 C 237.807 1257.25 214.625 1163.85 211.258 1080.26 C 200.97 861.195 279.6 647.259 429.307 486.996 C 573.097 329.85 773.582 236.483 986.399 227.557 z" fill="rgb(27,58,45)" transform="translate(0,0)"></path>
<path d="M 685.664 391.132 C 742.431 359.628 849.568 324.309 913.857 320.576 C 908.131 333.961 842.772 460.007 837.732 465.239 C 831.332 479.296 821.637 496.246 814.183 509.956 C 800.738 534.336 787.593 558.881 774.751 583.584 C 709.617 707.784 643.839 831.645 577.42 955.162 L 440.498 1213 L 398.825 1290.7 C 390.626 1306.19 377.685 1332.4 368.275 1346.05 C 366.377 1343.25 365.331 1341.17 363.749 1338.17 C 281.045 1181.28 269.802 990.38 322.7 822.053 C 382.018 636.108 512.505 481.189 685.664 391.132 z" fill="url(#Gradient2)" transform="translate(0,0)"></path>
<path d="M 685.664 391.132 C 742.431 359.628 849.568 324.309 913.857 320.576 C 908.131 333.961 842.772 460.007 837.732 465.239 C 833.944 466.822 832.715 467.617 828.734 467.379 C 820.126 466.862 811.882 465.835 803.402 467.839 C 792.645 470.383 780.722 480.596 769.438 478.819 C 751.97 476.07 759.59 450.397 750.334 440.111 C 747.516 436.764 742.098 434.92 737.802 434.868 C 730.087 434.776 728.999 445.238 721.344 444.833 C 716.114 444.557 712.051 440.509 708.68 436.936 L 707.337 435.5 C 703.048 430.967 702.832 428.642 701.178 422.626 C 703.907 410.991 697.703 415.052 692.302 407.046 C 689.305 402.604 693.453 396.085 685.664 391.132 z" fill="rgb(254,254,254)" transform="translate(0,0)"></path>
<path d="M 685.233 328.73 C 764.363 290.83 862.518 263.886 950.081 259.306 C 945.778 266.859 937.283 283.394 932.64 289.371 C 791.202 304.213 657.087 359.693 546.497 449.108 C 527.719 464.194 511 480.551 493.831 497.301 C 489.057 501.958 471.712 520.373 467.788 523.307 C 458.12 535.772 446.849 546.801 436.979 559.025 C 311.26 714.718 245.784 916.7 270.253 1116.53 C 278.528 1184.11 293.486 1249.16 321.579 1311.27 C 331.556 1333.33 342.719 1354.96 352.507 1377.04 C 346.892 1389.14 340.77 1400.99 334.157 1412.57 C 324.905 1399.53 308.202 1364.9 301.097 1349.74 C 285.519 1315.94 272.823 1280.88 263.147 1244.94 C 231.597 1133.3 225.897 1015.95 246.479 901.779 C 262.834 805.772 298.812 718.671 348.205 634.853 C 351.058 630.012 366.972 603.19 370.255 600.66 C 375.83 590.401 402.351 555.616 410.752 545.427 C 484.816 455.596 579.641 378.324 685.233 328.73 z" fill="rgb(201,169,110)" transform="translate(0,0)"></path>
<path d="M 685.233 328.73 C 764.363 290.83 862.518 263.886 950.081 259.306 C 945.778 266.859 937.283 283.394 932.64 289.371 C 791.202 304.213 657.087 359.693 546.497 449.108 C 527.719 464.194 511 480.551 493.831 497.301 C 489.057 501.958 471.712 520.373 467.788 523.307 C 467.06 522.577 467.476 523.099 466.899 521.512 C 513.187 476.153 542.991 445.02 598.883 408.369 C 626.886 390.113 655.948 373.536 685.916 358.724 C 689.168 357.11 711.624 346.996 712.438 345.614 C 710.73 345.173 709.025 344.721 707.323 344.258 C 694.607 340.932 697.845 340.067 688.72 329.718 L 685.407 330.092 C 681.058 332.35 668.202 338.307 665.356 341.067 C 664.427 344.515 664.637 344.863 664.855 348.347 C 663.398 350.405 663.494 350.308 661.432 351.76 L 664.235 353.275 L 664.381 354.929 C 661.096 357.184 657.167 359.259 653.168 357.982 C 638.665 353.35 639.533 354.136 626.6 361.797 C 557.945 402.462 499.376 451.195 444.562 509.273 C 428.806 525.967 413.255 545.134 398.955 563.475 C 390.688 574.078 380.959 588.625 372.836 599.721 C 371.975 600.034 371.115 600.347 370.255 600.66 C 375.83 590.401 402.351 555.616 410.752 545.427 C 484.816 455.596 579.641 378.324 685.233 328.73 z" fill="rgb(254,254,254)" transform="translate(0,0)"></path>
<path d="M 1028.22 911.633 C 1027.75 892.753 1028.58 869.98 1028.81 850.88 C 1029.48 800.412 1030.57 749.95 1032.08 699.5 L 1039.72 389.496 L 1042.41 299.453 C 1042.56 293.662 1041.96 270.309 1044.24 266.558 L 1045.47 266.934 C 1055.12 282.764 1063.05 301.149 1071.34 317.715 C 1074.19 323.422 1079.06 334.767 1082.37 339.735 C 1084.44 345.618 1088.57 352.774 1091.6 358.415 C 1164.32 500.979 1235.34 644.408 1304.64 788.669 C 1327.41 835.42 1349.05 883.013 1371.46 929.946 C 1374.33 935.948 1377.28 941.867 1380.56 947.657 C 1389.18 955.074 1415.67 1006.22 1414.57 1018.1 C 1421.28 1035.72 1430.19 1053.45 1438.27 1070.6 C 1457.89 1112.2 1477.56 1153.9 1497.55 1195.33 C 1505.28 1211.35 1511.05 1229.39 1518.82 1245.44 L 1563.85 1340.13 C 1572.89 1359.24 1582.94 1378.38 1591.11 1397.91 L 1591.79 1398.49 C 1593.22 1399.69 1599.96 1403.88 1600.19 1404.46 C 1609.69 1427.86 1630.31 1458.33 1637 1481.76 C 1636.63 1485.46 1633.89 1487.4 1631.12 1490.03 C 1618.38 1492.81 1552.09 1490.32 1537.92 1488 L 1543.51 1488.12 C 1539.62 1487.89 1517.24 1487.16 1515.28 1485.37 C 1486.91 1484.53 1455.7 1485.43 1426.82 1485.13 L 1114.89 1483.01 C 1081.55 1482.72 1048.17 1483.13 1014.78 1482.29 C 1013.81 1464.27 1015.43 1440.44 1015.79 1421.65 C 1016.67 1372.79 1017.98 1323.94 1019.73 1275.1 L 1028.22 911.633 z" fill="rgb(27,58,45)" transform="translate(0,0)"></path>
<path d="M 1591.11 1397.91 L 1591.79 1398.49 C 1593.22 1399.69 1599.96 1403.88 1600.19 1404.46 C 1609.69 1427.86 1630.31 1458.33 1637 1481.76 C 1636.63 1485.46 1633.89 1487.4 1631.12 1490.03 C 1618.38 1492.81 1552.09 1490.32 1537.92 1488 L 1543.51 1488.12 C 1539.62 1487.89 1517.24 1487.16 1515.28 1485.37 C 1538 1485.09 1560.72 1485.05 1583.44 1485.27 C 1596.27 1485.29 1620.67 1486.24 1632.04 1483.16 C 1629.18 1474.71 1622.43 1463.92 1618.29 1455.58 C 1608.73 1436.37 1599.1 1417.88 1591.11 1397.91 z" fill="rgb(201,169,110)" transform="translate(0,0)"></path>
<path d="M 1380.56 947.657 C 1389.18 955.074 1415.67 1006.22 1414.57 1018.1 C 1410.39 1011.95 1404.65 998.883 1401.24 991.749 C 1394.12 977.158 1387.22 962.459 1380.56 947.657 z" fill="rgb(201,169,110)" transform="translate(0,0)"></path>
<path d="M 1061.89 360.519 C 1066.55 366.226 1068.87 370.476 1072.57 376.835 C 1075.35 378.128 1077.06 379.104 1078.58 381.915 C 1088.86 401.019 1098.78 421.587 1108.45 440.938 L 1170.56 564.334 C 1173.26 565.987 1179.32 569.235 1180.82 571.575 C 1177.56 573.898 1176.89 573.488 1175.92 576.535 L 1176.84 578.271 C 1181.5 587.235 1186.11 597.406 1187.98 607.236 C 1178.67 618.451 1172.95 623.508 1162.13 633.205 C 1169.53 634.976 1177.09 635.448 1184.68 636.13 C 1172.3 656.046 1165.18 659.206 1146.62 673.549 C 1158.62 679.907 1163.24 679.15 1176.46 678.592 C 1161.02 702.298 1139.23 720.327 1110.94 703.581 C 1095.38 694.371 1084.2 687.817 1072.1 674.333 L 1113.97 676.623 C 1108.29 666.944 1096.39 659.205 1088.49 650.886 C 1082.65 644.734 1078.31 638.726 1073.3 631.941 L 1104.23 631.838 C 1101.16 628.03 1094 621.614 1090.15 618.365 C 1076.59 606.935 1072.48 600.05 1064.38 584.718 C 1074.74 585.547 1081.5 585.945 1092 585.756 C 1082.54 576.231 1060.33 554.63 1059.26 541.53 C 1055.44 494.833 1060.61 446.467 1060.71 399.54 C 1060.74 386.779 1060.82 373.093 1061.89 360.519 z" fill="rgb(254,254,254)" transform="translate(0,0)"></path>
<path d="M 1072.57 376.835 C 1075.35 378.128 1077.06 379.104 1078.58 381.915 C 1088.86 401.019 1098.78 421.587 1108.45 440.938 L 1170.56 564.334 C 1173.26 565.987 1179.32 569.235 1180.82 571.575 C 1177.56 573.898 1176.89 573.488 1175.92 576.535 L 1176.84 578.271 C 1181.5 587.235 1186.11 597.406 1187.98 607.236 C 1184.02 602.416 1169.37 569.915 1164.73 560.738 C 1133.78 499.63 1103.89 437.769 1072.57 376.835 z" fill="rgb(88,104,84)" transform="translate(0,0)"></path>
<path d="M 1130.36 713.842 L 1132.31 714.638 C 1132.79 715.527 1134.81 719.235 1135.32 719.707 C 1141.25 725.266 1159.17 726.551 1166.64 727.207 C 1151.6 745.046 1129.56 761.973 1104.96 751.608 C 1087.85 741.207 1080.83 733.076 1070.42 716.04 C 1088.55 720.295 1115.02 727.203 1130.36 713.842 z" fill="rgb(254,254,254)" transform="translate(0,0)"></path>
<path d="M 1165.78 773.404 L 1166.09 775.056 C 1156.03 801.851 1126.83 808.14 1105.14 789.661 C 1101.66 786.306 1093.98 779.495 1094.86 774.569 C 1098.56 772.819 1111.81 775.976 1117.46 776.514 C 1135.61 778.245 1148.23 776.389 1165.78 773.404 z" fill="rgb(254,254,254)" transform="translate(0,0)"></path>
<path d="M 1012.66 261.707 C 1011.86 280.966 1011.05 300.25 1010.2 319.505 C 1009.62 332.743 1010.13 347.579 1008.91 360.576 C 1009.9 379.726 1008.02 400.39 1007.65 419.68 C 1002.92 666.763 992.388 913.607 987.69 1160.68 C 987.389 1176.53 985.9 1195.27 986.91 1210.76 C 987.491 1218.47 989.317 1226.94 989.695 1233.21 C 990.054 1239.17 987.996 1252.34 987.731 1259.38 L 987.571 1258.37 C 987.312 1256.81 987.421 1257.41 987.006 1255.7 C 985.763 1261.94 986.334 1279.14 986.123 1286.6 L 982.731 1388.54 C 982.314 1399.41 983.794 1420.52 980.049 1429.66 C 978.657 1447.01 978.009 1464.4 978.105 1481.81 C 926.601 1483.16 865.997 1480.85 813.958 1480.12 L 513.639 1476.79 C 490.65 1476.78 467.662 1476.43 444.683 1475.73 C 428.115 1475.14 382.081 1473.64 366.631 1475.78 C 415.367 1381.48 464.98 1287.63 515.464 1194.26 C 615.505 1004.48 716.83 815.391 819.433 626.992 L 955.2 368.592 L 987.491 307.242 C 990.567 301.309 1001.08 279.992 1004.37 275.623 C 1007.29 269.31 1008.7 267.349 1012.66 261.707 z" fill="rgb(27,58,45)" transform="translate(0,0)"></path>
<path d="M 986.91 1210.76 C 987.491 1218.47 989.317 1226.94 989.695 1233.21 C 990.054 1239.17 987.996 1252.34 987.731 1259.38 L 987.571 1258.37 C 987.312 1256.81 987.421 1257.41 987.006 1255.7 C 985.763 1261.94 986.334 1279.14 986.123 1286.6 L 982.731 1388.54 C 982.314 1399.41 983.794 1420.52 980.049 1429.66 C 979.353 1390.64 982.256 1342.86 983.44 1302.92 L 985.217 1245.31 C 985.554 1234.96 985.601 1220.79 986.91 1210.76 z" fill="rgb(201,169,110)" transform="translate(0,0)"></path>
<path d="M 987.814 360.852 C 989.85 363.869 988.816 408.796 988.031 414.319 C 981.077 463.272 1001.22 530.952 960.97 568.024 C 958.413 570.38 944.277 583.191 944.011 583.905 L 945.37 585.277 C 953.403 587.46 966.166 585.642 974.856 584.827 C 963.28 606.119 944.673 618.553 925.557 632.06 C 938.322 634.815 948.453 634.794 961.256 632.857 C 949.194 646.081 937.821 656.678 923.716 667.618 C 922.161 668.825 921.31 670.45 920.794 672.345 L 921.924 674.03 C 930.234 677.354 953.032 674.751 962.745 673.744 C 950.489 689.098 930.079 701.871 911.524 708.098 C 887.867 712.612 865.084 695.667 854.844 675.299 C 857.212 675.647 859.588 675.945 861.969 676.194 C 868.056 676.858 882.954 678.28 887.588 674.53 C 887.734 670.98 884.959 670.318 880.843 668.472 C 867.09 662.307 860.444 650.4 853.319 637.642 C 860.421 637.127 868.057 636.969 875.216 636.696 C 867.913 630.148 855.624 619.805 854.45 609.642 C 853.97 605.485 878.872 563.844 882.676 556.745 L 955.606 417.866 C 963.367 403.401 978.714 372.761 987.814 360.852 z" fill="rgb(254,254,254)" transform="translate(0,0)"></path>
<path d="M 901.184 714.37 C 922.302 726.631 931.265 725.151 954.699 720.356 L 953.969 721.903 C 946.089 738.253 927.49 748.136 910.936 753.7 C 887.9 759.711 868.87 741.419 858.863 722.755 C 872.318 727.013 894.223 729.754 901.184 714.37 z" fill="rgb(254,254,254)" transform="translate(0,0)"></path>
<path d="M 865.795 769.744 C 895.4 779.915 906.492 788.362 940.226 778.036 C 936.87 782.371 933.738 785.446 929.924 789.32 C 918.115 799.934 905.407 804.944 889.978 797.447 C 879.466 792.34 869.359 780.962 865.795 769.744 z" fill="url(#Gradient1)" transform="translate(0,0)"></path>
<path d="M 1010.51 1514.54 L 1503.5 1517.26 C 1537.65 1517.63 1571.39 1515.94 1605.48 1515.53 C 1622.31 1515.33 1615.45 1533.64 1608.92 1541.37 C 1592.69 1560.59 1575.45 1578.77 1556.92 1595.8 C 1546 1606.09 1533.99 1619.86 1522.65 1630.04 C 1519.14 1633.19 1507.73 1637.83 1503.26 1641.34 C 1497.39 1645.94 1490.57 1653.52 1484.79 1657.54 C 1477.83 1662.39 1471.42 1665.15 1464.06 1670.58 C 1456.23 1676.34 1448.59 1683.85 1441.01 1689.1 C 1418.27 1704.84 1394.11 1718.14 1370.52 1732.51 C 1366.98 1734.66 1353.58 1738.06 1346.11 1741.81 C 1337.35 1746.22 1323.87 1753.47 1315.22 1757 C 1292.63 1766.24 1269.09 1775.58 1246.08 1783.66 C 1239.97 1785.81 1234.36 1789.18 1228.66 1791.06 C 1221.08 1793.55 1210.32 1794.31 1202.72 1796.54 C 1164.31 1807.92 1125.26 1814.86 1085.52 1819.45 C 1060.56 1822.33 1035.72 1826.94 1010.36 1825.89 C 1006.27 1825.72 1005.18 1824.04 1003.64 1820.72 L 1003.87 1815.03 C 1001.57 1785.62 1004.46 1753.72 1005.32 1724.29 L 1008.61 1586.12 C 1009.2 1562.33 1010.93 1538.36 1010.51 1514.54 z" fill="rgb(27,58,45)" transform="translate(0,0)"></path>
<path d="M 1010.51 1514.54 L 1503.5 1517.26 C 1537.65 1517.63 1571.39 1515.94 1605.48 1515.53 C 1622.31 1515.33 1615.45 1533.64 1608.92 1541.37 C 1592.69 1560.59 1575.45 1578.77 1556.92 1595.8 C 1546 1606.09 1533.99 1619.86 1522.65 1630.04 C 1519.14 1633.19 1507.73 1637.83 1503.26 1641.34 C 1497.39 1645.94 1490.57 1653.52 1484.79 1657.54 C 1477.83 1662.39 1471.42 1665.15 1464.06 1670.58 C 1456.23 1676.34 1448.59 1683.85 1441.01 1689.1 C 1418.27 1704.84 1394.11 1718.14 1370.52 1732.51 C 1366.98 1734.66 1353.58 1738.06 1346.11 1741.81 C 1337.35 1746.22 1323.87 1753.47 1315.22 1757 C 1292.63 1766.24 1269.09 1775.58 1246.08 1783.66 C 1239.97 1785.81 1234.36 1789.18 1228.66 1791.06 C 1221.08 1793.55 1210.32 1794.31 1202.72 1796.54 C 1164.31 1807.92 1125.26 1814.86 1085.52 1819.45 C 1060.56 1822.33 1035.72 1826.94 1010.36 1825.89 C 1006.27 1825.72 1005.18 1824.04 1003.64 1820.72 C 1020.39 1823.95 1055.71 1819.05 1073.68 1817.03 C 1184.48 1805.14 1291.52 1770 1387.81 1713.9 C 1407.08 1702.73 1427.28 1691.45 1444.94 1677.89 C 1463.92 1663.58 1489.31 1645.06 1506.79 1630.54 C 1523.08 1617.01 1602.88 1540.32 1605.04 1525.66 C 1598.24 1518.16 1554.78 1524.04 1543.28 1523.36 C 1499.6 1520.78 1455.54 1522.84 1411.83 1522.18 L 1132 1519.8 C 1093.33 1519.43 1052.14 1517.41 1013.95 1517.51 L 1007.96 1730.16 C 1007.37 1750.51 1008.39 1797.62 1003.87 1815.03 C 1001.57 1785.62 1004.46 1753.72 1005.32 1724.29 L 1008.61 1586.12 C 1009.2 1562.33 1010.93 1538.36 1010.51 1514.54 z" fill="rgb(201,169,110)" transform="translate(0,0)"></path>
<path d="M 1034.1 1544.11 C 1073.64 1545.17 1118.88 1543.16 1156.65 1545.11 C 1199.86 1544.47 1245.43 1545.86 1288.96 1546.04 C 1359.25 1546.31 1432.76 1544.8 1502.78 1546.94 C 1518 1546.68 1533.9 1545.71 1549.08 1545.63 C 1552.9 1545.61 1555.34 1547.17 1557.59 1549.99 C 1560.02 1568.02 1512.91 1601.49 1501.43 1612.18 C 1465.9 1645.25 1429.38 1671.98 1387.26 1695.85 C 1370.9 1705.12 1358.36 1712.65 1340.85 1720.55 C 1324.88 1727.76 1310.91 1736.51 1293.23 1741.34 C 1240.8 1768.68 1185.72 1776.96 1129.61 1792.06 C 1116.86 1795.49 1035.88 1804.61 1027.45 1799.43 C 1025.65 1792.04 1027.29 1768.81 1027.6 1759.71 L 1030.37 1683.13 L 1034.1 1544.11 z" fill="rgb(201,169,110)" transform="translate(0,0)"></path>
<path d="M 363.627 1507.25 C 378.321 1508.73 405.868 1507.87 421.543 1508.03 L 531.289 1509.29 C 642.961 1509.66 754.624 1511.4 866.254 1514.51 C 895.338 1515.27 924.573 1514.51 953.663 1515.41 C 960.67 1515.63 968.475 1515.51 975.227 1517.34 C 977.889 1523.72 975.039 1572.52 974.902 1583.47 C 976.789 1604.91 972.558 1822.36 970.719 1824.16 C 966.297 1828.48 954.852 1827.08 949.036 1826.58 C 943.84 1826.11 938.649 1825.56 933.467 1824.95 C 916.307 1825.51 833.7 1815.66 824.508 1807.13 C 819.414 1806.34 813.031 1804.24 807.863 1803.04 C 753.348 1790.37 702.409 1773 652.233 1748.41 C 641.72 1743.25 631.309 1737.88 621.008 1732.31 C 613.524 1728.2 599.778 1719.55 592.252 1717.34 L 590.947 1716.97 C 584.803 1715.16 583.783 1710.46 576.272 1705.79 C 505.685 1661.87 436.365 1602.14 385.227 1536.55 C 379.497 1529.2 367.655 1514.74 363.627 1507.25 z" fill="rgb(27,58,45)" transform="translate(0,0)"></path>
<path d="M 967.931 1822.72 C 968.489 1806.81 967.767 1790.49 968.345 1774.71 C 970.172 1724.87 970.404 1674.7 973.656 1624.97 C 974.501 1612.05 973.04 1595.88 974.902 1583.47 C 976.789 1604.91 972.558 1822.36 970.719 1824.16 C 966.297 1828.48 954.852 1827.08 949.036 1826.58 C 943.84 1826.11 938.649 1825.56 933.467 1824.95 C 916.307 1825.51 833.7 1815.66 824.508 1807.13 C 849.008 1811.56 873.647 1815.19 898.385 1818.01 C 909.822 1819.23 922.057 1819.66 933.167 1821 C 944.262 1820.94 955.171 1823.09 967.931 1822.72 z" fill="rgb(201,169,110)" transform="translate(0,0)"></path>
<path d="M 415.207 1537.21 C 427.865 1536.5 456.149 1538.31 470.638 1538.59 C 511.555 1539.45 552.479 1539.93 593.405 1540.05 L 851.139 1541.37 C 884.711 1541.82 921.031 1541.18 954.33 1542.82 C 954.537 1574.43 951.828 1608.84 950.454 1640.73 C 948.283 1691.16 949.976 1744.22 945.943 1794.24 C 945.671 1797.71 945.654 1797.45 943.426 1800.17 C 931.728 1806.72 815.829 1785.41 795.805 1779.72 C 790.738 1779.62 781.377 1773.14 777.156 1772.77 C 755.24 1770.84 737.665 1762.78 717.414 1755.09 C 642.876 1726.95 573.558 1686.57 512.316 1635.61 C 497.314 1622.91 477.005 1603.14 462.955 1589.33 C 453.554 1580.09 421.852 1547.18 415.207 1537.21 z" fill="rgb(201,169,110)" transform="translate(0,0)"></path>
<path d="M 1082.37 339.735 L 1083.03 338.385 L 1084.47 339.987 C 1088.6 338.084 1095.86 333.009 1099.72 336.032 C 1109.26 343.514 1106.71 356.419 1095.76 359.955 C 1094.21 359.448 1093.1 359.037 1091.6 358.415 C 1088.57 352.774 1084.44 345.618 1082.37 339.735 z" fill="rgb(254,254,254)" transform="translate(0,0)"></path>
<path d="M 436.537 1487.55 C 442.092 1492.82 440.334 1495.41 436.97 1501.27 L 436.505 1501.34 L 435.349 1500.5 C 435.199 1496.09 435.95 1491.93 436.537 1487.55 z" fill="rgb(201,169,110)" transform="translate(0,0)"></path>
<path d="M 990.343 1255.74 C 991.129 1254.88 992.342 1254.54 993.465 1254.87 C 994.587 1255.2 995.421 1256.14 995.612 1257.3 C 995.803 1258.45 995.317 1259.61 994.361 1260.29 C 993.089 1261.19 991.347 1260.98 990.316 1259.82 C 989.285 1258.65 989.297 1256.9 990.343 1255.74 z" fill="rgb(201,169,110)" transform="translate(0,0)"></path>
<metadata><recraft-signature>{"signed_by": "recraft", "signature_b64": "BK8HNAYv8KAQDV1EOc9hot/heRQyZDrM+G41OI4Sz3lgAAmICxT2prRNxE8dbnmYAJ1CmZu2NHooR/lgzo92DQ==", "signing_algo": "Ed25519", "generation_timestamp": 1777675980, "identifier": "0920179e-5a0d-4647-807e-002d58ae497f"}</recraft-signature></metadata></svg>