<svg xmlns="http://www.w3.org/2000/svg" height="1024" preserveAspectRatio="none" style="display: block;" version="1.1" viewBox="0 0 2048 2048" width="1024">
<defs>
	<linearGradient gradientUnits="userSpaceOnUse" id="Gradient1" x1="1360.1" x2="821.434" y1="1168.63" y2="879.378">
		<stop class="stop0" offset="0" stop-color="rgb(127,84,32)" stop-opacity="1"></stop>
		<stop class="stop1" offset="1" stop-color="rgb(183,136,72)" stop-opacity="1"></stop>
	</linearGradient>
	<linearGradient gradientUnits="userSpaceOnUse" id="Gradient2" x1="1328.4" x2="828.241" y1="1618.34" y2="476.962">
		<stop class="stop0" offset="0" stop-color="rgb(211,178,114)" stop-opacity="1"></stop>
		<stop class="stop1" offset="1" stop-color="rgb(233,220,199)" stop-opacity="1"></stop>
	</linearGradient>
	<linearGradient gradientUnits="userSpaceOnUse" id="Gradient3" x1="1354.85" x2="792.512" y1="1645.3" y2="431.543">
		<stop class="stop0" offset="0" stop-color="rgb(214,183,125)" stop-opacity="1"></stop>
		<stop class="stop1" offset="1" stop-color="rgb(235,221,202)" stop-opacity="1"></stop>
	</linearGradient>
	<linearGradient gradientUnits="userSpaceOnUse" id="Gradient4" x1="1631.37" x2="514.663" y1="1269.59" y2="807.659">
		<stop class="stop0" offset="0" stop-color="rgb(113,73,24)" stop-opacity="1"></stop>
		<stop class="stop1" offset="1" stop-color="rgb(197,151,91)" stop-opacity="1"></stop>
	</linearGradient>
	<linearGradient gradientUnits="userSpaceOnUse" id="Gradient5" x1="1416.92" x2="790.878" y1="1737.48" y2="475.204">
		<stop class="stop0" offset="0" stop-color="rgb(212,180,119)" stop-opacity="1"></stop>
		<stop class="stop1" offset="1" stop-color="rgb(232,218,195)" stop-opacity="1"></stop>
	</linearGradient>
	<linearGradient gradientUnits="userSpaceOnUse" id="Gradient6" x1="1657.01" x2="487.4" y1="1299.47" y2="776.03">
		<stop class="stop0" offset="0" stop-color="rgb(114,73,24)" stop-opacity="1"></stop>
		<stop class="stop1" offset="1" stop-color="rgb(195,150,89)" stop-opacity="1"></stop>
	</linearGradient>
	<linearGradient gradientUnits="userSpaceOnUse" id="Gradient7" x1="1684.8" x2="352.601" y1="1472.45" y2="600.292">
		<stop class="stop0" offset="0" stop-color="rgb(112,70,18)" stop-opacity="1"></stop>
		<stop class="stop1" offset="1" stop-color="rgb(215,174,114)" stop-opacity="1"></stop>
	</linearGradient>
</defs>
<path d="M 0 0 L 2048 0 L 2048 2048 L 0 2048 L 0 0 z" fill="rgb(254,254,254)" transform="translate(0,0)"></path>
<path d="M 275.1 824.019 C 279.144 810.094 281.916 792.215 285.787 777.386 C 293.858 747.661 303.667 718.434 315.163 689.858 C 336.827 635.612 363.998 583.731 396.247 535.029 C 559.434 284.697 822.691 140.918 1124 193.058 C 1167.81 200.243 1210.75 212.004 1252.1 228.149 C 1268.05 231.026 1284.13 237.614 1299.85 242.308 C 1428.76 280.783 1540.89 363.524 1627.67 465.018 C 1632.96 471.209 1637.48 478.428 1642.73 484.923 C 1776.02 649.848 1827.91 869.924 1811.07 1078.91 C 1808.99 1104.75 1805.94 1124.54 1799.03 1149.49 C 1791.21 1186.97 1785.49 1229.42 1774.62 1266.11 C 1732.28 1410.37 1654.14 1541.57 1547.48 1647.52 C 1408.62 1785.7 1211.11 1872.02 1014.01 1864.16 C 947.054 1861.48 863.85 1853.17 798.558 1839.87 C 744.185 1828.92 691.11 1812.3 640.206 1790.27 C 570.449 1759.36 504.765 1707.44 452.497 1651.5 C 450.65 1649.52 450.792 1642.48 450.755 1639.73 C 430.633 1616.5 412.068 1593.8 395.479 1567.95 C 392.035 1562.59 385.904 1560.27 381.661 1555.77 C 375.287 1545.25 368.438 1532.71 362.283 1522.04 C 355.846 1511.16 348.123 1491.2 339.199 1482.44 C 337.338 1480.61 333.126 1478.55 331.979 1475.55 C 321.552 1448.29 309.535 1421.8 301.458 1393.68 C 301.066 1392.32 291.274 1388.7 288.969 1387.43 L 287.981 1386.87 C 283.705 1375.22 259.159 1288.8 260.203 1281.24 C 262.07 1277.84 265.409 1276.02 268.653 1273.76 C 265.757 1259.23 262.696 1243.97 260.151 1229.48 C 259.12 1223.61 254.671 1190.44 253.371 1187.47 C 248.411 1186.59 245.208 1186.53 241.67 1183.03 C 236.479 1170 232.492 1084.24 231.373 1065.48 C 231.179 1062.24 237.163 1059.68 240.083 1058.18 C 239.717 1011.47 244.132 960.818 248.728 914.146 C 251.362 887.389 257.232 859.938 259.364 832.587 C 264.19 829.637 269.901 827.095 275.1 824.019 z" fill="url(#Gradient7)" transform="translate(0,0)"></path>
<path d="M 373.192 813.918 C 373.723 809.949 377.552 798.255 378.849 794.005 C 385.212 772.532 392.577 751.368 400.919 730.584 C 512.736 449.102 756.867 246.068 1065.86 228.988 C 1120.92 225.944 1171.99 233.49 1226.3 239.314 C 1229.48 240.23 1231.91 240.753 1235.16 241.411 C 1258.61 245.454 1282.65 252.327 1305.29 259.595 C 1410.55 293.689 1505.61 353.573 1581.82 433.793 C 1707.13 565.176 1786.49 748.879 1796.9 930.004 C 1797.73 944.353 1800.15 958.915 1800.71 973.319 C 1802.2 1020.78 1800 1068.5 1792.54 1115.39 C 1770.81 1252.07 1727.16 1388.02 1647.82 1502.53 C 1635.28 1520.52 1623.64 1542.24 1609.63 1559.05 C 1558.08 1620.89 1499.24 1681.88 1431.55 1726.4 C 1385.12 1756.94 1328.63 1786.46 1276.59 1805.95 C 1238.36 1820.27 1199.56 1833.25 1159.29 1840.22 C 1111.32 1846.93 1058.48 1852.96 1010.08 1851.14 C 984.428 1850.18 951.699 1844.49 926.542 1839.91 C 748.959 1806.28 591.58 1704.51 488.06 1556.36 C 463.01 1520.02 452.694 1500.49 432.45 1463.35 C 429.736 1456.49 424.91 1448.38 421.612 1441.57 C 351.025 1295.78 324.505 1127.82 343.851 967.183 C 346.986 941.148 350.663 896.888 358.81 872.758 C 361.088 856.321 368.07 829.772 373.192 813.918 z" fill="url(#Gradient6)" transform="translate(0,0)"></path>
<path d="M 1235.16 241.411 C 1258.61 245.454 1282.65 252.327 1305.29 259.595 C 1410.55 293.689 1505.61 353.573 1581.82 433.793 C 1707.13 565.176 1786.49 748.879 1796.9 930.004 C 1797.73 944.353 1800.15 958.915 1800.71 973.319 C 1802.2 1020.78 1800 1068.5 1792.54 1115.39 C 1770.81 1252.07 1727.16 1388.02 1647.82 1502.53 C 1635.28 1520.52 1623.64 1542.24 1609.63 1559.05 C 1558.08 1620.89 1499.24 1681.88 1431.55 1726.4 C 1385.12 1756.94 1328.63 1786.46 1276.59 1805.95 C 1238.36 1820.27 1199.56 1833.25 1159.29 1840.22 C 1111.32 1846.93 1058.48 1852.96 1010.08 1851.14 C 984.428 1850.18 951.699 1844.49 926.542 1839.91 C 748.959 1806.28 591.58 1704.51 488.06 1556.36 C 463.01 1520.02 452.694 1500.49 432.45 1463.35 C 429.736 1456.49 424.91 1448.38 421.612 1441.57 C 351.025 1295.78 324.505 1127.82 343.851 967.183 C 346.986 941.148 350.663 896.888 358.81 872.758 C 360.547 870.85 361.873 865.511 362.684 862.832 C 363.802 862.189 367.372 860.115 367.679 859.188 C 371.137 848.755 367.419 837.393 370.909 826.337 L 373.585 818.001 C 386.203 816.149 390.84 803.485 399.956 796.725 C 402.437 794.644 416.714 789.372 418.134 787.587 C 430.935 771.499 446.976 766.51 464.95 758.015 C 466.891 757.098 475.776 752.964 477.697 752.536 C 489.913 749.811 489.662 746.88 497.295 740.609 C 498.84 742.73 498.519 743.262 498.676 745.994 L 497.727 747.521 L 499.614 750.316 L 499.205 751.767 C 495.567 764.277 487.498 779.457 482.908 792.194 C 410.778 992.371 422.774 1224.42 522.835 1413.07 C 523.936 1415.15 525.008 1417.1 526.285 1419.12 C 546.213 1456.76 568.999 1489.26 595.877 1522.27 C 694.171 1645.4 837.388 1724.4 993.971 1741.86 C 1068.77 1749.47 1134.31 1743.79 1206.45 1723.16 C 1291.47 1699.63 1370.66 1658.66 1438.98 1602.85 C 1559.94 1504.12 1638.28 1371.97 1681.35 1226.59 C 1784.16 879.586 1622.19 459.979 1255.5 356.663 C 1239.75 352.226 1222.47 347.632 1206.48 346.044 C 1182.55 339.809 1159.2 339.243 1135.51 336.114 C 1142.42 333.345 1145.59 336.255 1153.89 334.798 L 1154.5 333.58 C 1152.58 332.152 1152.56 332.427 1150.19 331.905 C 1151.19 328.817 1155.92 329.682 1159.42 326.854 C 1167.21 320.56 1175.28 313.65 1183.55 308.045 C 1186.3 306.183 1185.26 306.991 1187 303.188 C 1204.48 299.852 1226.52 289.087 1243.17 281.046 C 1246.64 278.695 1248.56 270.372 1247.66 266.952 C 1245.02 256.864 1254.72 257.908 1254.17 250.472 C 1250.14 244.62 1244.01 245.503 1235.79 243.186 L 1235.16 241.411 z" fill="url(#Gradient5)" transform="translate(0,0)"></path>
<path d="M 373.192 813.918 C 373.723 809.949 377.552 798.255 378.849 794.005 C 385.212 772.532 392.577 751.368 400.919 730.584 C 512.736 449.102 756.867 246.068 1065.86 228.988 C 1120.92 225.944 1171.99 233.49 1226.3 239.314 C 1229.48 240.23 1231.91 240.753 1235.16 241.411 L 1235.79 243.186 C 1244.01 245.503 1250.14 244.62 1254.17 250.472 C 1254.72 257.908 1245.02 256.864 1247.66 266.952 C 1248.56 270.372 1246.64 278.695 1243.17 281.046 C 1226.52 289.087 1204.48 299.852 1187 303.188 C 1185.26 306.991 1186.3 306.183 1183.55 308.045 C 1175.28 313.65 1167.21 320.56 1159.42 326.854 C 1155.92 329.682 1151.19 328.817 1150.19 331.905 C 1152.56 332.427 1152.58 332.152 1154.5 333.58 L 1153.89 334.798 C 1145.59 336.255 1142.42 333.345 1135.51 336.114 C 968.054 326.691 803.835 384.915 679.719 497.715 C 621.372 550.173 572.141 611.957 534.036 680.544 C 524.007 698.861 514.296 717.1 505.993 736.247 C 504.016 740.805 501.894 745.937 499.614 750.316 L 497.727 747.521 L 498.676 745.994 C 498.519 743.262 498.84 742.73 497.295 740.609 C 489.662 746.88 489.913 749.811 477.697 752.536 C 475.776 752.964 466.891 757.098 464.95 758.015 C 446.976 766.51 430.935 771.499 418.134 787.587 C 416.714 789.372 402.437 794.644 399.956 796.725 C 390.84 803.485 386.203 816.149 373.585 818.001 L 370.909 826.337 C 367.419 837.393 371.137 848.755 367.679 859.188 C 367.372 860.115 363.802 862.189 362.684 862.832 C 361.873 865.511 360.547 870.85 358.81 872.758 C 361.088 856.321 368.07 829.772 373.192 813.918 z" fill="rgb(254,254,254)" transform="translate(0,0)"></path>
<path d="M 799.903 426.47 C 813.379 417.857 845.264 403.849 860.066 397.462 C 946.248 360.278 1033.41 344.882 1127.2 349.011 C 1152.91 349.185 1181.06 354.151 1206.37 358.193 C 1242.01 368.078 1270 372.737 1306.33 387.256 C 1424.09 434.315 1537.17 534.001 1599.58 644.024 C 1697.24 816.254 1722.76 1020.14 1670.56 1211.12 C 1645.63 1305.54 1602.59 1394.22 1543.82 1472.21 C 1429.53 1624.93 1251.26 1728.73 1058.04 1731.19 C 851.818 1733.82 664.498 1618.51 556.252 1446.29 C 550.713 1437.48 544.459 1424.24 538.552 1416.35 C 534.658 1406.24 524.547 1390.41 519.812 1379.61 C 510.265 1357.85 499.974 1334.5 492.039 1312.17 C 439.451 1160.76 434.918 996.804 479.06 842.721 C 520.141 698.538 605.54 570.934 723.164 477.978 C 745.054 460.973 775.508 439.766 799.903 426.47 z" fill="url(#Gradient4)" transform="translate(0,0)"></path>
<path d="M 1127.2 349.011 C 1152.91 349.185 1181.06 354.151 1206.37 358.193 C 1242.01 368.078 1270 372.737 1306.33 387.256 C 1424.09 434.315 1537.17 534.001 1599.58 644.024 C 1697.24 816.254 1722.76 1020.14 1670.56 1211.12 C 1645.63 1305.54 1602.59 1394.22 1543.82 1472.21 C 1429.53 1624.93 1251.26 1728.73 1058.04 1731.19 C 851.818 1733.82 664.498 1618.51 556.252 1446.29 C 550.713 1437.48 544.459 1424.24 538.552 1416.35 C 534.658 1406.24 524.547 1390.41 519.812 1379.61 C 510.265 1357.85 499.974 1334.5 492.039 1312.17 C 439.451 1160.76 434.918 996.804 479.06 842.721 C 520.141 698.538 605.54 570.934 723.164 477.978 C 745.054 460.973 775.508 439.766 799.903 426.47 C 799.155 433.151 797.428 433.226 791.771 436.747 C 787.721 445.096 796.573 451.627 794.228 461.774 L 793.224 462.62 C 783.68 470.519 766.641 479.54 755.881 487.307 C 594.377 603.887 497.754 784.381 476.524 981.27 C 460.343 1126.08 489.065 1272.35 558.799 1400.29 C 565.166 1411.95 604.802 1478.79 613.263 1483.07 C 620.355 1495.46 638.833 1514.71 648.76 1525.37 C 830.535 1719.56 1104.17 1762.63 1335.87 1629.17 C 1558.56 1504.19 1684.87 1241.07 1677.88 990.285 C 1676.07 925.323 1660.11 839.244 1638.57 778.505 C 1584.45 625.893 1468.49 486.63 1318.51 421.303 C 1301.99 414.108 1281.61 405.128 1264.29 400.438 C 1257.39 397.226 1238.9 392.526 1231.08 390.64 C 1184.96 379.517 1143.49 375.227 1096.27 374.577 C 1100.5 371.694 1112.83 374.922 1120.34 373.386 C 1110.06 370.846 1080.77 377.988 1077.53 366.458 C 1084.21 358.399 1112.98 360.134 1117.93 353.518 L 1117.16 351.86 C 1113.25 350.143 1109.3 350.737 1104.91 350.855 C 1113.52 347.64 1119.29 353.388 1127.2 349.011 z" fill="url(#Gradient3)" transform="translate(0,0)"></path>
<path d="M 799.903 426.47 C 813.379 417.857 845.264 403.849 860.066 397.462 C 946.248 360.278 1033.41 344.882 1127.2 349.011 C 1119.29 353.388 1113.52 347.64 1104.91 350.855 C 1109.3 350.737 1113.25 350.143 1117.16 351.86 L 1117.93 353.518 C 1112.98 360.134 1084.21 358.399 1077.53 366.458 C 1080.77 377.988 1110.06 370.846 1120.34 373.386 C 1112.83 374.922 1100.5 371.694 1096.27 374.577 C 995.85 377.151 908.992 399.655 820.454 446.866 C 811.636 451.568 802.917 457.303 794.228 461.774 C 796.573 451.627 787.721 445.096 791.771 436.747 C 797.428 433.226 799.155 433.151 799.903 426.47 z" fill="rgb(254,254,254)" transform="translate(0,0)"></path>
<path d="M 1010.29 395.455 C 1070.5 384.222 1138.95 386.309 1198.86 397.752 C 1213.3 400.509 1228.3 405.21 1240.97 407.516 C 1387.87 451.316 1511.06 552.241 1582.9 687.663 C 1653.56 820.39 1678.76 972.628 1654.63 1121.05 C 1619.54 1350.65 1481.49 1556.4 1265.04 1648.69 C 1154.07 1696 1026.34 1707.67 910.309 1672.72 C 818.947 1645.4 735.938 1595.5 668.945 1527.64 C 656.462 1514.54 644.559 1500.9 633.272 1486.76 C 629.165 1481.71 619.597 1469.09 615.674 1465.08 C 547.678 1369.62 511.183 1280.95 493.262 1164.98 C 468.379 1002.37 500.358 836.148 583.802 694.373 C 593.798 677.527 603.634 661.127 615.202 645.304 C 619.251 639.63 623.418 634.04 627.701 628.54 C 718.403 511.512 861.023 414.31 1010.29 395.455 z" fill="url(#Gradient2)" transform="translate(0,0)"></path>
<path d="M 615.202 645.304 C 619.251 639.63 623.418 634.04 627.701 628.54 C 718.403 511.512 861.023 414.31 1010.29 395.455 C 1013.09 403.369 1015.35 399.215 1022.12 401.774 C 1023.43 405.199 1020.44 407.77 1020.29 409.775 C 1019.94 414.538 1027.92 411.201 1022.8 421.129 C 1019.57 427.383 1015.46 433.016 1009.71 436.769 L 1007.9 436.824 C 1007.5 434.673 1007.35 433.603 1007.18 431.421 C 1003.75 431.678 998.386 435.677 994.218 437.936 C 979.829 445.739 978.023 453.376 977.636 469.224 C 977.48 475.594 950.216 494.666 946.433 501.178 C 939.711 510.259 938.152 518.259 929.432 525.019 L 927.869 523.746 L 926.376 525.001 L 925.184 523.412 L 926.976 519.17 C 925.342 515.418 925.314 515.894 926.539 512.143 C 924.302 511.822 925.192 511.877 924.54 512.52 C 920.517 516.489 907.128 518.539 906.838 523.246 C 906.707 525.365 906.931 532.162 906.931 532.161 C 904.259 534.274 885.734 550.578 884.454 551.239 C 875.699 555.76 864.371 548.365 851.351 551.512 C 837.338 554.898 837.218 561.562 830.747 563.681 C 816.103 568.477 816.414 570.346 807.341 583.265 C 806.743 584.116 803.4 589.284 802.804 589.711 C 797.467 593.53 789.019 591.745 784.174 597.352 C 783.843 597.619 783.512 597.887 783.181 598.154 C 780.337 600.388 780.1 601.246 779.075 604.563 L 778.162 604.654 L 776.139 601.488 C 767.294 602.97 770.373 617.862 766.891 622.109 C 759.954 630.574 747.491 629.655 742.287 639.856 C 735.321 642.342 733.965 632.545 723.613 644.161 C 719.633 648.628 709.968 648.914 703.827 648.737 C 700.696 644.984 696.137 637.255 693.622 635.588 C 692.287 636.166 685.546 639.667 685.33 639.665 C 672.384 639.518 661.379 641.746 651.162 650.393 C 648.819 652.376 643.572 657.211 640.019 656.092 L 638.332 654.235 C 614.193 661.284 624.745 650.378 618.947 645.812 L 615.202 645.304 z" fill="rgb(254,254,254)" transform="translate(0,0)"></path>
<path d="M 974.41 663.937 C 984.872 643.126 1009.18 610.707 1021.67 589.537 C 1027.88 579.016 1050.08 542.109 1056.44 535.573 C 1064.08 536.8 1079.24 555.218 1085.4 561.623 L 1143.34 622.799 L 1307.34 794.374 C 1348.67 837.17 1389.26 880.671 1429.09 924.858 C 1439.74 936.678 1462.94 957.965 1469.21 970.827 C 1394.48 1104.38 1318.24 1237.07 1240.5 1368.89 C 1213.53 1415.14 1187.72 1462.22 1160.73 1508.48 C 1158.24 1512.75 1153.33 1523.15 1148.83 1524.78 C 1135.26 1521.62 1104.41 1486.74 1093.58 1475.7 L 1016.43 1396.58 C 931.381 1310.71 847.807 1223.4 765.747 1134.67 C 749.438 1117.12 730.789 1097.81 715.364 1079.56 C 712.282 1075.92 750.748 1015.79 755.18 1008.58 C 781.861 964.979 808.985 921.647 836.548 878.595 C 854.507 850.022 872.668 821.576 891.03 793.26 C 896.003 785.461 912.575 758.241 917.591 752.155 C 924.695 740.048 969.233 668.481 974.41 663.937 z" fill="url(#Gradient1)" transform="translate(0,0)"></path>
<path d="M 1027.41 603.927 C 1036.2 589.886 1044.88 575.771 1053.44 561.585 C 1056.2 579.892 1061.3 610.7 1061.65 628.33 C 1048.97 646.864 1039.12 663.459 1027.26 682.255 C 994.858 734.116 963.181 786.426 932.24 839.172 C 902.156 889.479 872.316 939.605 845.142 991.586 C 834.613 1011.73 817.964 1036.79 808.85 1056.52 C 791.882 1060.28 754.918 1065.18 736.116 1067.48 C 749.192 1042.18 768.417 1013.27 783.728 988.498 L 870.202 850.408 L 902.138 800.022 C 904.683 796.025 915.179 780.377 916.475 776.914 C 918.274 767.85 928.456 760.064 927.048 750.004 C 924.88 746.743 926.213 747.336 923.456 746.731 C 921.345 749.434 920.696 750.413 917.591 752.155 C 924.695 740.048 969.233 668.481 974.41 663.937 C 974.586 669.143 969.816 669.597 972.135 675.348 C 981.702 675.847 995.98 644.966 1002.83 642.736 L 1002.99 642.427 C 1007.56 637.064 1022.78 611.461 1027.41 603.927 z" fill="rgb(225,204,169)" transform="translate(0,0)"></path>
<path d="M 974.41 663.937 C 974.586 669.143 969.816 669.597 972.135 675.348 C 981.702 675.847 995.98 644.966 1002.83 642.736 C 985.994 670.914 966.574 699.672 948.927 727.625 C 941.813 738.895 924.303 767.322 916.475 776.914 C 918.274 767.85 928.456 760.064 927.048 750.004 C 924.88 746.743 926.213 747.336 923.456 746.731 C 921.345 749.434 920.696 750.413 917.591 752.155 C 924.695 740.048 969.233 668.481 974.41 663.937 z" fill="rgb(201,169,110)" transform="translate(0,0)"></path>
<path d="M 1002.99 642.427 C 1002.28 639.716 1006.37 634.155 1007.08 629.232 C 1008.58 618.807 1018.48 609.21 1027.41 603.927 C 1022.78 611.461 1007.56 637.064 1002.99 642.427 z" fill="rgb(201,169,110)" transform="translate(0,0)"></path>
<path d="M 1076.65 721.589 C 1079.37 723.891 1088.74 735.569 1091.51 738.888 L 1128.86 784.122 L 1230.15 905.447 C 1250.08 929.564 1282.93 970.472 1304.15 992.524 C 1294.55 1015.2 1275.55 1049.23 1264.02 1072.03 C 1228.96 1141.22 1193.16 1210.03 1156.64 1278.47 C 1150.96 1289.34 1128.88 1337.48 1123.22 1343.48 L 1121.14 1343.03 L 958.099 1141.77 L 917.42 1090.58 C 908.007 1078.76 898.092 1067.07 889.588 1054.61 C 897.19 1037.23 908.445 1019.43 917.291 1002.41 C 937.823 962.89 960.263 925.847 982.826 887.665 C 1014.68 832.633 1045.95 777.272 1076.65 721.589 z" fill="rgb(201,169,110)" transform="translate(0,0)"></path>
<path d="M 811.818 1070.53 C 811.963 1070.61 812.131 1070.66 812.254 1070.78 C 817.501 1075.67 822.106 1083.14 826.526 1088.84 L 859.955 1132.01 C 895.144 1177.47 930.612 1223.23 968.511 1266.47 C 997.29 1299.15 1026.78 1331.19 1056.95 1362.57 C 1071.18 1377.22 1085.15 1392.14 1099.46 1406.69 C 1108.75 1416.13 1121.33 1426.18 1128.25 1437.43 C 1134.23 1447.16 1137.29 1487.65 1139.03 1500.37 C 1125.89 1488.38 1113.63 1475.55 1101.28 1462.75 C 1019.6 1382.04 939.486 1299.76 860.985 1215.96 C 818.884 1171.67 774.296 1128.35 736.326 1080.41 C 758.615 1076.02 788.711 1073.09 811.818 1070.53 z" fill="rgb(201,169,110)" transform="translate(0,0)"></path>
<path d="M 1441.11 980.42 C 1444.69 979.903 1443.47 979.578 1446.52 980.666 C 1446.44 986.718 1436.66 999.356 1433.32 1005.74 C 1412.14 1046.18 1388.78 1085.17 1365.72 1124.52 L 1224.15 1368.79 L 1173.99 1457.41 C 1168.8 1466.52 1157.73 1487.63 1152.44 1495.16 C 1153.26 1482.98 1146.61 1446.22 1143.48 1433.38 C 1167.81 1394.44 1190.54 1351.75 1212.64 1311.38 C 1250.62 1242.79 1287.26 1173.47 1322.55 1103.47 C 1335.95 1077.08 1348.59 1050.13 1361.91 1023.68 C 1367.85 1011.88 1372.35 1000.45 1379.01 988.834 C 1399.54 984.848 1420.27 982.039 1441.11 980.42 z" fill="rgb(201,169,110)" transform="translate(0,0)"></path>
<path d="M 1067.93 561.727 C 1068.29 561.998 1068.64 562.268 1068.99 562.538 C 1095.59 591.92 1122.46 621.705 1150.35 649.808 C 1160.98 660.52 1170.33 671.061 1180.35 681.662 L 1393.97 906.09 L 1429.42 944.22 C 1434.01 949.088 1445.78 958.615 1446.46 964.439 C 1443.94 966.752 1443.73 965.97 1439.3 966.269 C 1418.68 968.492 1397.35 972.104 1376.85 975.372 C 1358.42 952.141 1339.49 929.539 1320.86 906.507 C 1288.03 865.932 1255.39 825.261 1220.38 786.536 L 1120.22 676.952 C 1111.21 667.223 1082.54 639.646 1077.99 631.231 C 1073.55 623.003 1069.08 572.721 1067.93 561.727 z" fill="rgb(225,204,169)" transform="translate(0,0)"></path>
<path d="M 1027.56 705.938 C 1027.04 698.781 1056.83 659.672 1060.28 649.508 C 1061.13 647.024 1061.19 647.129 1062.97 645.654 C 1067.37 646.951 1069.39 653.198 1075.29 655.779 L 1076.17 650.003 C 1081.37 648.71 1084.55 654.733 1085.77 658.914 C 1082.96 656.06 1080.2 653.156 1077.49 650.203 C 1078.77 667.834 1081.87 689.681 1082.42 706.591 C 1085.31 710.608 1088.16 714.662 1090.96 718.752 C 1076.92 714.803 1080.12 682.43 1077.57 671.101 C 1076.97 668.463 1070.2 664.524 1067.97 663.295 C 1063.97 668.087 1078.75 710.335 1064.63 716.8 C 1055.9 730.71 1046.48 748.262 1038.23 762.773 C 1023.84 787.572 1009.64 812.478 995.628 837.49 L 876.671 1048.65 C 860.151 1050.83 842.298 1052.35 825.62 1054.23 C 838.695 1029.38 853.581 1003.81 867.344 979.185 C 896.099 927.784 925.471 876.731 955.453 826.036 C 978.989 786.763 1006.17 746.185 1027.56 705.938 z" fill="rgb(225,204,169)" transform="translate(0,0)"></path>
<path d="M 1027.56 705.938 C 1027.04 698.781 1056.83 659.672 1060.28 649.508 C 1061.13 647.024 1061.19 647.129 1062.97 645.654 C 1067.37 646.951 1069.39 653.198 1075.29 655.779 L 1076.17 650.003 C 1081.37 648.71 1084.55 654.733 1085.77 658.914 C 1082.96 656.06 1080.2 653.156 1077.49 650.203 C 1078.77 667.834 1081.87 689.681 1082.42 706.591 C 1085.31 710.608 1088.16 714.662 1090.96 718.752 C 1076.92 714.803 1080.12 682.43 1077.57 671.101 C 1076.97 668.463 1070.2 664.524 1067.97 663.295 C 1063.97 668.087 1078.75 710.335 1064.63 716.8 C 1065.01 715.425 1068.55 708.275 1069.37 706.541 C 1067.91 686.567 1065.99 666.629 1063.63 646.742 C 1060.54 654.248 1032.76 699.824 1027.56 705.938 z" fill="rgb(201,169,110)" transform="translate(0,0)"></path>
<path d="M 1359.73 989.471 C 1361.32 989.089 1360.35 989.164 1362.62 989.777 C 1362.73 990.813 1362.82 991.075 1362.58 992.242 C 1360.8 1000.92 1339.56 1038.18 1333.84 1049.47 C 1279.78 1158.72 1222.8 1266.5 1162.97 1372.69 C 1158.55 1380.44 1144.71 1408.19 1138.39 1412.47 C 1137.54 1402.42 1130.99 1363.18 1133.09 1357.24 C 1139.68 1338.61 1160.03 1302.78 1169.24 1285.04 L 1257.96 1114.74 C 1270.73 1090.04 1283.22 1065.2 1295.45 1040.23 C 1302.6 1025.61 1311.32 1006.1 1319.85 992.538 C 1334.03 991.591 1345.47 991.02 1359.73 989.471 z" fill="rgb(201,169,110)" transform="translate(0,0)"></path>
<path d="M 871.33 1062.43 C 873.738 1061.82 874.911 1061.71 877.308 1062.4 C 890.923 1076.33 902.868 1093.75 914.921 1109.11 C 938.949 1139.71 962.851 1170.49 987.274 1200.77 L 1076.54 1310.63 C 1088.36 1325.14 1104.01 1339.81 1113.17 1356.09 C 1119.87 1367.99 1121.54 1397.58 1126.56 1413.2 C 1119.4 1406.37 1112.54 1399.15 1105.57 1392.12 C 1023.62 1310.38 947.211 1223.27 876.848 1131.37 C 860.486 1110.18 841.887 1089.72 826.918 1067.63 C 841.661 1065.41 856.473 1063.67 871.33 1062.43 z" fill="rgb(201,169,110)" transform="translate(0,0)"></path>
<path d="M 1077.49 650.203 C 1080.2 653.156 1082.96 656.06 1085.77 658.914 C 1096.18 673.214 1116.76 693.852 1129.35 707.647 C 1161 742.32 1192.72 775.995 1223.83 811.22 C 1255.89 847.535 1285.24 884.68 1316.16 921.879 C 1330.87 939.593 1346.17 960.161 1361.87 976.789 C 1346.58 977.329 1328.11 979.556 1312.73 981.331 C 1303.15 972.009 1294.08 960.467 1285.36 950.117 L 1252.33 911.124 L 1137.34 772.099 C 1131.62 765.284 1095.9 722.354 1090.96 718.752 C 1088.16 714.662 1085.31 710.608 1082.42 706.591 C 1081.87 689.681 1078.77 667.834 1077.49 650.203 z" fill="rgb(225,204,169)" transform="translate(0,0)"></path>
<path d="M 923.485 200.974 C 992.41 187.623 1106.33 201.168 1173.75 217.403 L 1169.7 219.399 C 1147.87 216.141 1121.54 215.05 1099.31 214.975 C 728.746 213.681 431.308 494.223 349.894 845.991 C 308.531 1024.71 315.798 1211.39 381.755 1383.35 C 389.367 1403.2 410.214 1456.11 422.426 1471.96 C 431.675 1494.71 457.459 1534.14 471.511 1554.35 C 505.991 1603.93 554.13 1662.21 600.259 1701.2 C 640.2 1734.96 697.549 1770.15 744.046 1794.21 C 741.914 1799.07 739.395 1805.22 737.052 1809.85 C 712.607 1803.35 688.63 1795.21 665.285 1785.48 C 656.163 1781.77 644.423 1776.06 635.691 1772.91 C 640.212 1766.99 651.729 1754.37 645.234 1746.72 C 634.493 1743.75 626.804 1760.21 622.773 1767.35 C 607.371 1760.12 571.975 1735.68 557.802 1725.27 C 561.001 1721.94 591.232 1697.79 567.539 1697.59 C 564.7 1697.56 548.776 1714.89 545.072 1718.34 C 511.526 1690.18 495.451 1675.22 464.985 1643.31 C 471.439 1637.19 491.431 1620.07 494.667 1611.19 C 495.144 1609.88 494.16 1607.58 493.608 1606.25 C 484.763 1599.11 465.986 1622.42 459.476 1629.15 C 439.585 1606.06 421.008 1581.87 403.833 1556.7 C 411.436 1549.87 429.143 1535.96 430.915 1526.52 C 425.835 1509.5 399.358 1541.71 393.377 1546.87 C 388.462 1540.6 377.019 1519.71 373.808 1516.75 C 367.262 1504.32 361.115 1489.96 355.294 1477.03 C 361.873 1472.62 389.908 1455.13 385.313 1446.2 C 383.939 1445.61 381.342 1444.52 379.966 1444.52 C 372.115 1444.52 351.335 1463.3 344.813 1468.43 C 332.267 1442.76 321.681 1413.2 313.047 1386.06 C 321.941 1379.28 345.198 1367.95 343.891 1356.79 C 341.744 1353.86 341.905 1354.06 338.695 1352.33 C 332.304 1352.04 309.364 1371.08 299.766 1376.57 C 292.9 1357.02 288.05 1334.27 282.021 1314.23 C 279.257 1305.05 277.316 1294.97 273.284 1286.33 C 284.577 1279.74 312.796 1262.87 321.172 1254.39 C 323.646 1247.93 317.518 1243.77 311.337 1246.68 C 300.812 1251.62 290.064 1259.02 279.996 1264.73 C 276.526 1238.51 270.763 1208.57 265.883 1182.46 C 275.157 1177.04 299.511 1170.97 301.63 1160.7 C 300.845 1157.37 300.72 1157.62 298.125 1155.27 C 289.405 1153.06 263.951 1168.34 252.958 1172.71 C 248.852 1141.51 246.966 1104.36 244.824 1072.89 C 255.799 1066.61 299.125 1049.46 301.167 1039.84 C 300.092 1036.95 299.98 1037.08 297.899 1034.72 C 291.575 1033.34 264.672 1047.93 254.806 1051.64 C 252.556 1032.97 256.589 977.189 258.184 957.791 C 263.899 955.108 298.394 943.038 299.467 939.572 C 305.354 920.552 268.849 938.237 261.511 941.031 C 263.329 909.087 270.131 871.884 273.746 839.597 C 283.563 836.261 319.563 825.866 321.044 815.113 C 319.624 811.747 320.681 813.106 317.723 810.91 C 309.895 809.52 300.016 815.25 291.349 818.221 C 295.483 793.903 305.717 757.426 314.752 734.561 C 324.844 731.604 342.223 728.047 346.351 717.166 L 345.19 715.291 C 338.096 711.73 328.504 715.094 321.135 716.93 C 330.684 686.231 343.022 659.024 357.84 630.445 C 365.965 628.687 402.623 624.887 391.953 611.57 C 385.199 608.659 375.009 611.925 367.419 613.529 C 378.913 580.626 415.421 529.974 436.471 502.708 C 445.894 501.791 465.596 501.83 473.938 497.965 C 476.074 496.975 476.743 494.085 477.245 491.895 C 474.798 482.719 455.001 487.275 447.318 488.185 C 458.611 468.483 495.422 429.552 512.681 410.318 C 519.279 414.223 526.591 425.729 534.777 419.411 C 538.169 410.339 529.286 405.052 522.684 401.961 C 532.962 388.65 611.992 319.394 623.7 319.42 C 630.941 324.105 632.051 335.506 640.591 335.098 C 644.553 332.738 644.44 332.896 647.33 329.348 C 649.555 319.39 631.189 314.891 637.11 310.512 C 681.632 277.587 733.633 254.219 785.024 234.131 C 793.048 230.995 804.366 226.671 812.655 224.811 C 815.142 222.971 820.656 221.985 823.877 221.184 C 837.361 216.527 904.484 198.293 913.097 204.329 C 914.696 204.292 921.588 201.628 923.485 200.974 z" fill="rgb(254,254,254)" transform="translate(0,0)"></path>
<path d="M 812.655 224.811 C 815.142 222.971 820.656 221.985 823.877 221.184 C 826.275 228.33 831.323 240.064 822.605 245.01 C 812.328 244.864 813.088 232.299 812.655 224.811 z" fill="rgb(201,169,110)" transform="translate(0,0)"></path>
<path d="M 913.097 204.329 C 914.696 204.292 921.588 201.628 923.485 200.974 C 925.855 207.267 928.249 212.626 922.036 217.442 C 918.091 218.215 920.044 218.3 916.001 216.775 C 911.614 212.281 912.2 210.185 913.097 204.329 z" fill="rgb(201,169,110)" transform="translate(0,0)"></path>
<path d="M 756.754 1799.19 C 784.858 1812.6 813.991 1823.74 843.872 1832.51 L 839.913 1834.58 C 812.181 1827.48 780.785 1821.92 752.421 1815.26 C 753.957 1810.01 755.34 1804.5 756.754 1799.19 z" fill="rgb(254,254,254)" transform="translate(0,0)"></path>
<path d="M 1173.75 217.403 C 1179.02 218.406 1184.64 219.069 1189.18 221.884 C 1182.89 221.326 1176.01 220.257 1169.7 219.399 L 1173.75 217.403 z" fill="rgb(225,204,169)" transform="translate(0,0)"></path>
<path d="M 843.872 1832.51 C 846.823 1833.27 851.325 1834.01 853.331 1835.95 C 848.51 1836.62 844.729 1835.5 839.913 1834.58 L 843.872 1832.51 z" fill="rgb(225,204,169)" transform="translate(0,0)"></path>
<metadata><recraft-signature>{"signed_by": "recraft", "signature_b64": "SRcPaTaqCdeELXbfXre/Hof1hGyTLbtzhhVDyOez6u5Y45K1G3ooK3TYgs26u06LtAG2ZcmeaiVTrBi0ZLqYDA==", "signing_algo": "Ed25519", "generation_timestamp": 1777675990, "identifier": "f766efaa-5d8c-4c20-ade3-bd46d17c9078"}</recraft-signature></metadata></svg>