<svg xmlns="http://www.w3.org/2000/svg" height="1024" preserveAspectRatio="none" style="display: block;" version="1.1" viewBox="0 0 2048 2048" width="1024">
<defs>
	<linearGradient gradientUnits="userSpaceOnUse" id="Gradient1" x1="1701.63" x2="1689.52" y1="753.518" y2="748.391">
		<stop class="stop0" offset="0" stop-color="rgb(15,6,0)" stop-opacity="1"></stop>
		<stop class="stop1" offset="1" stop-color="rgb(77,79,119)" stop-opacity="1"></stop>
	</linearGradient>
</defs>
<path d="M 0 0 L 1625.11 0 L 1656.6 0 L 2048 0 L 2048 266.727 L 2048 299.893 L 2048 1722.75 L 2048 1751.74 L 2048 2048 L 1591.22 2048 L 1557.42 2048 L 493.981 2048 L 453.666 2048 L 0 2048 L 0 1714.39 L 0 1676.15 L 0 959.908 L 0 929.608 L 0 784.614 L 0 746.498 L 0 570.368 L 0 539.969 L 0 439.802 L 0 356.148 L 0 109.19 L 0 73.4598 L 0 0 z" fill="rgb(57,61,111)" transform="translate(0,0)"></path>
<path d="M 1656.6 0 L 2048 0 L 2048 266.727 C 2033.26 272.405 2015.39 282.228 2001.76 286.753 C 1955.46 301.207 1895.08 313.292 1846.86 305.058 C 1785.99 294.662 1723.78 273.139 1686.05 221.41 C 1647.82 168.973 1638.14 112.904 1645.61 49.4511 C 1647.61 32.4218 1654.59 16.55 1656.6 0 z" fill="rgb(57,61,111)" transform="translate(0,0)"></path>
<path d="M 0 1714.39 C 151.003 1737.6 301.233 1833.46 396.196 1954.17 C 417.199 1980.87 436.047 2018.54 453.666 2048 L 0 2048 L 0 1714.39 z" fill="rgb(57,61,111)" transform="translate(0,0)"></path>
<path d="M 1591.22 2048 C 1603.52 2025.07 1622.37 2001.35 1639.27 1981.68 C 1647.23 1972.41 1654.39 1960.65 1662.8 1951.89 C 1750.68 1860.35 1866.99 1786.34 1992.3 1760.79 C 2010.53 1757.07 2029.34 1752.39 2048 1751.74 L 2048 2048 L 1591.22 2048 z" fill="rgb(57,61,111)" transform="translate(0,0)"></path>
<path d="M 0 1676.15 C 9.25526 1681.83 50.0306 1688.16 63.4175 1691.57 C 83.7216 1696.88 103.776 1703.11 123.52 1710.23 C 273.328 1764.07 411.241 1879 483.048 2022.33 C 487.17 2030.56 489.899 2039.99 493.981 2048 L 453.666 2048 C 436.047 2018.54 417.199 1980.87 396.196 1954.17 C 301.233 1833.46 151.003 1737.6 0 1714.39 L 0 1676.15 z" fill="rgb(17,24,39)" transform="translate(0,0)"></path>
<path d="M 1625.11 0 L 1656.6 0 C 1654.59 16.55 1647.61 32.4218 1645.61 49.4511 C 1638.14 112.904 1647.82 168.973 1686.05 221.41 C 1723.78 273.139 1785.99 294.662 1846.86 305.058 C 1895.08 313.292 1955.46 301.207 2001.76 286.753 C 2015.39 282.228 2033.26 272.405 2048 266.727 L 2048 299.893 C 1976.67 329.484 1924.6 342.934 1845.77 332.712 C 1759.89 323.38 1669.64 274.095 1631.04 194.018 C 1604.63 139.216 1603.12 57.1772 1625.11 0 z" fill="rgb(17,24,39)" transform="translate(0,0)"></path>
<path d="M 1557.42 2048 C 1582.64 1997.55 1638.75 1926.94 1680.27 1889.37 C 1783.05 1797.72 1911.33 1739.6 2048 1722.75 L 2048 1751.74 C 2029.34 1752.39 2010.53 1757.07 1992.3 1760.79 C 1866.99 1786.34 1750.68 1860.35 1662.8 1951.89 C 1654.39 1960.65 1647.23 1972.41 1639.27 1981.68 C 1622.37 2001.35 1603.52 2025.07 1591.22 2048 L 1557.42 2048 z" fill="rgb(17,24,39)" transform="translate(0,0)"></path>
<path d="M 0 356.148 C 21.7708 333.443 56.3095 295.235 82.0705 276.573 C 82.8913 275.979 93.6026 274.675 95.6648 274.373 C 105.056 279.054 107.963 280.973 113.115 290.574 C 113.051 295.316 113.252 305.267 110.89 309.1 C 96.6863 332.146 75.4329 355.141 56.7134 374.703 C 51.067 380.604 45.2145 389.105 39.2829 395.648 C 26.487 409.762 11.704 425.084 0 439.802 L 0 356.148 z" fill="rgb(17,24,39)" transform="translate(0,0)"></path>
<path d="M 0 746.498 C 11.0316 735.649 38.2125 698.187 52.9016 698.487 C 56.0807 698.552 59.5689 699.544 61.7794 701.943 C 63.4976 703.808 64.1015 706.159 63.8041 708.642 C 62.5544 719.074 10.4443 775.045 0 784.614 L 0 746.498 z" fill="rgb(17,24,39)" transform="translate(0,0)"></path>
<path d="M 0 539.969 C 6.50381 530.65 60.682 463.826 69.6634 491.693 C 69.4803 502.315 14.2727 554.907 5.14143 566.22 C 4.29167 567.272 1.39906 569.582 0 570.368 L 0 539.969 z" fill="rgb(17,24,39)" transform="translate(0,0)"></path>
<path d="M 0 73.4598 C 8.91474 65.2353 42.6637 28.9426 39.5986 64.1042 C 31.9346 75.274 11.4942 102.855 0 109.19 L 0 73.4598 z" fill="rgb(17,24,39)" transform="translate(0,0)"></path>
<path d="M 14.3532 920.837 C 18.608 922.063 21.0321 922.131 23.3979 925.476 C 27.5657 937.966 8.4149 951.322 0 959.908 L 0 929.608 C 4.7094 926.671 9.53055 923.553 14.3532 920.837 z" fill="rgb(17,24,39)" transform="translate(0,0)"></path>
<path d="M 671.584 683.281 C 664.629 665.346 654.311 648.727 647.2 630.701 C 619.796 561.237 627.016 498.081 656.44 430.658 C 661.127 419.918 667.431 410.143 673.452 400.133 C 684.059 382.5 696.14 364.13 709.535 348.489 C 735.731 317.901 773.908 288.295 811.491 273.807 C 922.342 231.075 995.844 243.921 1096.46 301.512 C 1128.2 319.68 1158.26 338.281 1182.44 366.35 C 1193.95 379.702 1203.92 396.379 1212.74 411.646 C 1226.38 435.271 1234.62 453.304 1262.07 464.769 C 1281.11 472.72 1289.39 461.121 1304.03 451.387 C 1311.6 446.355 1320.04 442.317 1328.49 438.992 C 1374.41 420.912 1426.03 426.721 1470.43 446.165 C 1493.81 456.407 1516.73 468.327 1539.53 479.809 C 1560.66 490.448 1582.74 500.494 1603.13 512.444 C 1633.65 530.335 1668.96 557.859 1688.35 587.763 C 1695.27 598.438 1701.71 610.578 1705.49 622.765 C 1707.55 629.413 1708.6 636.222 1711.28 642.694 C 1713.21 647.376 1713.29 650.428 1712.99 655.433 C 1717.62 659.568 1715.56 666.557 1714.33 672.034 C 1713.84 670.913 1717.69 679.356 1716.65 676.505 C 1720.1 685.974 1715.91 713.301 1714.73 723.436 C 1714.09 719.197 1712.76 704.28 1711.84 701.961 C 1709.69 705.393 1709.31 710.022 1707.08 711.786 C 1705.47 710.209 1706.03 711.097 1705.28 709.198 C 1706.4 703.313 1708.07 696.748 1705.83 691.235 C 1703.01 696.083 1703 706.854 1702.83 712.692 C 1702 715.377 1701.33 717.644 1700.66 720.4 L 1702.8 724.227 L 1704.13 723.89 C 1709.29 727.658 1711.89 731.839 1708.54 738.226 L 1707.01 739.229 C 1705.57 734.268 1706.99 732.176 1704.29 730.362 L 1701.84 732.161 C 1702.66 737.71 1703.62 743.239 1704.69 748.744 C 1700.91 757.724 1688.39 788.74 1681.5 793.548 C 1678.6 791.433 1679.75 786.74 1680.17 783.512 L 1679.9 779.958 C 1678.15 780.043 1675.49 779.769 1674.65 780.853 C 1671.33 785.161 1670.2 790.499 1667.16 795.867 C 1665.28 799.224 1663.97 800.076 1664.28 803.168 C 1665.88 803.551 1666.97 803.784 1668.55 804.082 L 1669.8 806.542 C 1668.65 811.745 1660.89 823.284 1656.44 825.602 C 1654.02 828.278 1650.38 833 1647.27 834.128 L 1645.83 833.13 C 1645.7 830.914 1645.69 829.318 1645.73 827.097 C 1643.19 830.903 1643.27 831.17 1642.89 835.875 C 1638.23 842.132 1632.12 841.316 1633.03 848.296 C 1641.08 858.047 1671.52 866.083 1683.45 872.923 C 1716.33 891.783 1754.44 909.149 1784.48 931.955 C 1841.28 975.075 1885.62 1066.54 1885.2 1137.84 C 1885.06 1144.84 1884.56 1153.26 1885.85 1160 C 1888.26 1160.76 1887.07 1160.49 1889.43 1160.86 L 1885.36 1163.5 C 1883.64 1179.89 1884.78 1195.35 1880.52 1212.54 C 1868.11 1262.73 1841.96 1306.47 1812.38 1348.3 C 1806.19 1357.05 1795.88 1364.58 1788.49 1372.26 C 1749.72 1406.3 1695.52 1434.43 1643.69 1438.8 C 1642.76 1438.88 1637.25 1443.12 1636.4 1443.76 C 1634.07 1441.7 1631.99 1439.68 1629.35 1438.04 C 1625.22 1440.81 1620.77 1443.67 1616.81 1446.61 L 1613.73 1446.05 C 1615.25 1433.63 1621.68 1436.18 1626.27 1428.16 L 1625.29 1427.37 C 1616.86 1432.83 1610.31 1443.41 1601.42 1446.02 L 1599.21 1445.26 C 1599.06 1438.81 1609.63 1432.93 1611.79 1426.84 C 1603.07 1427.75 1595.94 1447.23 1587.13 1444.93 C 1585.52 1441.97 1585.91 1440.33 1586.03 1436.96 C 1582.92 1440.53 1583.21 1443.15 1579.02 1445.95 C 1573.78 1446.55 1573.61 1445.83 1569.61 1442.49 C 1564.97 1441.9 1566.2 1442.61 1562.35 1443.09 C 1550.65 1444.56 1533.87 1441.05 1521.3 1440.04 C 1513.46 1488.57 1519.6 1535.62 1513.11 1583.99 C 1511.44 1596.5 1504.97 1608.86 1506.37 1621.9 C 1503.58 1625.86 1501.89 1636.27 1499.74 1642.4 C 1497.53 1648.72 1492.59 1657.74 1491.12 1662.74 C 1488.75 1666.94 1485.87 1671.01 1486.59 1675.85 L 1489.01 1678.21 C 1489.72 1672.63 1491.93 1669.01 1494.39 1663.93 L 1493.37 1661.88 L 1494.57 1660.9 C 1496.09 1656.89 1500.03 1650.3 1504.04 1648.64 C 1506.5 1652.89 1506.51 1651.26 1505.18 1656.25 C 1504.36 1659.3 1503.77 1661.38 1501 1663.08 C 1498.7 1667.21 1493.64 1677.38 1489.74 1679.48 C 1485.66 1678.01 1487.27 1677.7 1484.09 1678.69 C 1479.97 1684.37 1477.22 1690.88 1473.9 1696.89 C 1447.6 1744.52 1400.52 1783.16 1350.14 1802.92 C 1343.74 1805.43 1337.24 1807.85 1330.78 1810.3 C 1318.39 1815.49 1303.5 1816.77 1290.2 1819.01 C 1286.03 1819.71 1275.79 1820.11 1272.61 1821.48 C 1273.53 1824.48 1275.41 1825.13 1278.56 1826.98 C 1235.15 1833.68 1172.21 1820.84 1130.29 1808.09 C 1123.54 1806.04 1080.95 1783.21 1072.27 1778.87 L 1001.72 1743.55 C 989.688 1737.45 978.668 1732.93 967.383 1725.26 C 931.026 1700.54 902.749 1669.65 891.42 1626.26 C 882.243 1631.18 875.381 1637.55 867.158 1643.91 C 841.665 1663.64 832.028 1671.28 801.997 1681.98 C 799.29 1682.19 798.683 1681.36 796.104 1680.54 C 789.092 1683.64 787.767 1684.52 780.448 1683.34 L 779.936 1682.38 C 781.488 1681.46 799.854 1675.17 803.692 1673.62 C 810.76 1667.14 836.038 1657.19 838.267 1646.32 C 835.705 1646.81 828.632 1652.79 825.508 1654.96 C 797.749 1674.18 765.95 1680.41 731.779 1677.69 C 719.659 1676.7 707.733 1674.05 696.339 1669.8 C 647.907 1651.45 596.782 1617.67 550.334 1593.92 C 533.02 1585.07 513.94 1574.67 497.972 1563.58 C 486.254 1555.6 475.675 1546.07 466.527 1535.24 C 409.106 1466.92 422.503 1364.53 461.864 1290.93 C 473.753 1268.7 469.255 1264.96 471.137 1242.62 C 435.161 1181.56 392.483 1166.95 338.734 1125.88 C 302.544 1098.22 271.76 1051 257.681 1007.84 C 239.923 953.413 258.344 871.284 283.701 821.158 C 311.691 765.828 345.598 728.786 397.233 695.15 C 422.6 678.625 438.559 668.322 468.664 658.645 C 513.913 644.099 572.616 642.501 618.137 657.404 C 632.976 662.262 656.625 675.771 671.584 683.281 z" fill="rgb(17,24,39)" transform="translate(0,0)"></path>
<path d="M 1700.66 720.4 L 1702.8 724.227 L 1704.13 723.89 C 1709.29 727.658 1711.89 731.839 1708.54 738.226 L 1707.01 739.229 C 1705.57 734.268 1706.99 732.176 1704.29 730.362 L 1701.84 732.161 C 1702.66 737.71 1703.62 743.239 1704.69 748.744 C 1700.91 757.724 1688.39 788.74 1681.5 793.548 C 1678.6 791.433 1679.75 786.74 1680.17 783.512 C 1683.87 782.417 1685.13 782.138 1687.28 779.102 C 1687.16 775.603 1687.71 777.192 1685.16 774.33 C 1690.97 772.303 1693.11 764.947 1696.14 758.771 L 1697.27 758.086 C 1699.8 754.207 1699.16 742.892 1698.37 738.345 C 1698.12 740 1697.97 741.264 1697.83 742.948 L 1697.71 744.456 L 1695.98 745.384 L 1695.33 740.697 C 1696.2 735.368 1699.12 725.784 1700.66 720.4 z" fill="url(#Gradient1)" transform="translate(0,0)"></path>
<path d="M 1701.84 732.161 C 1700.59 729.027 1701.85 726.1 1704.13 723.89 C 1709.29 727.658 1711.89 731.839 1708.54 738.226 L 1707.01 739.229 C 1705.57 734.268 1706.99 732.176 1704.29 730.362 L 1701.84 732.161 z" fill="rgb(17,24,39)" transform="translate(0,0)"></path>
<path d="M 1695.33 740.697 L 1695.98 745.384 L 1697.71 744.456 L 1697.83 742.948 C 1697.97 741.264 1698.12 740 1698.37 738.345 C 1699.16 742.892 1699.8 754.207 1697.27 758.086 L 1696.14 758.771 C 1692.13 758.63 1691.16 758.257 1687.87 760.571 C 1684.44 765.754 1685.56 770.302 1682.12 773.285 C 1681.9 770.988 1686 747.227 1688.12 744.282 L 1689.42 744.573 C 1689.58 747.913 1689.74 748.723 1690.38 751.882 L 1690.86 751.992 C 1692.87 749.706 1692.98 749.599 1693.77 746.616 L 1695.33 740.697 z" fill="rgb(57,61,111)" transform="translate(0,0)"></path>
<path d="M 1370.29 449.37 C 1371.21 449.201 1372.05 449.019 1372.99 448.997 C 1413.71 448.063 1444.4 460.13 1473.98 486.69 C 1502.77 512.59 1520.14 548.835 1522.29 587.503 C 1523.68 617.692 1516.68 650.126 1500.05 675.558 C 1488.01 693.952 1466.55 714.186 1450.65 730.743 L 1351.02 832.624 C 1344.07 839.736 1337.55 847.492 1330.66 854.695 L 1214.47 975.624 L 1118.78 1075.3 C 1055.84 1140.45 994.066 1206.13 930.616 1270.85 L 823.983 1381.11 L 749.315 1458.89 C 724.659 1484.63 701.36 1508.45 673.881 1531.33 C 652.355 1549.25 634.022 1565.7 604.439 1567.08 C 572.265 1567.5 535.026 1561.68 509.462 1541.63 C 482.549 1520.53 455.84 1475.6 451.616 1441.77 C 445.966 1396.52 455.115 1338.53 483.251 1301.63 C 502.016 1277.02 526.861 1255.16 548.273 1232.8 C 575.539 1204.02 603.139 1175.56 631.068 1147.43 C 663.669 1114.89 700.597 1079.69 732.344 1046.69 L 1093.88 675.628 L 1219.14 546.88 C 1269.71 495.839 1294.18 459.813 1370.29 449.37 z" fill="rgb(255,255,255)" transform="translate(0,0)"></path>
<path d="M 1172.29 1271.27 C 1201.2 1268 1245.14 1280.19 1270.51 1294.25 C 1309.33 1315.76 1332.05 1349.92 1343.12 1392.25 C 1344.97 1401.35 1350 1413.91 1350.44 1422.93 C 1353.84 1493.67 1337.17 1567.3 1291.19 1622.65 C 1255.68 1665.38 1222.14 1701.71 1167.66 1717.54 C 1151.39 1722.36 1134.88 1726.33 1118.2 1729.44 C 1107.54 1731.38 1095.89 1732.17 1085.61 1735.27 C 1041.23 1734.36 1012.34 1726.68 977.054 1700.51 C 943.002 1675.26 929.506 1667.3 916.492 1626.13 C 912.688 1614.47 909.69 1602.56 907.521 1590.49 C 901.372 1554.29 904.322 1522.08 917.235 1487.74 C 926.808 1462.27 937.794 1451.79 956.473 1432.56 C 967.251 1421.46 977.628 1409.14 989.191 1398.65 C 998.127 1390.55 1007.99 1383.34 1016.8 1375.1 C 1043.24 1348.58 1067.36 1316.37 1099.25 1296.08 C 1125.64 1279.28 1142.63 1276.1 1172.29 1271.27 z" fill="rgb(255,255,255)" transform="translate(0,0)"></path>
<path d="M 1557.39 875.415 C 1664.52 865.436 1727.23 970.636 1724.01 1066.79 C 1719.29 1208.14 1594.09 1337.02 1450.85 1334.86 C 1413.99 1330.31 1369.22 1317.44 1340.71 1293.3 C 1304.63 1262.74 1288.49 1224.26 1284.23 1177.62 C 1280.63 1138.19 1283.15 1098.57 1310.21 1067.64 C 1319.15 1057.42 1326.94 1050.3 1336.28 1040.73 L 1378.71 997.389 L 1431.54 942.648 C 1474.41 898.209 1492.35 880.223 1557.39 875.415 z" fill="rgb(255,255,255)" transform="translate(0,0)"></path>
<path d="M 499.692 669.219 C 510.805 668.301 523.431 668.841 534.65 668.816 C 565.357 668.748 587.309 667.902 616.278 680.752 C 654.003 697.598 683.411 728.849 697.937 767.526 C 713.564 808.808 709.163 852.246 691.379 892.333 C 673.173 933.371 644.592 953.988 614.429 985.992 L 560.529 1042.65 C 532.908 1071.99 511.498 1099.23 472.32 1114.06 C 463.773 1116.72 452.339 1120.25 443.785 1122.02 C 412.01 1128.59 366.557 1118.62 339.834 1100.86 C 311.967 1082.34 291.611 1046.34 284.099 1014.33 C 280.167 997.577 278.074 978.926 273.941 961.844 C 270.426 947.317 272.715 931.636 274.015 917.078 C 278.77 863.817 301.091 829.127 329.34 785.107 C 336.215 774.393 346.247 761.102 355.159 751.982 C 387.713 718.671 453.792 678.346 499.692 669.219 z" fill="rgb(255,255,255)" transform="translate(0,0)"></path>
<path d="M 905.664 269.47 C 948.118 268.087 988.744 273.376 1024.25 299.145 C 1055.68 321.639 1076.9 355.683 1083.25 393.807 C 1091.06 443.057 1077.25 495.329 1047.45 534.775 C 1033.19 553.651 1016.92 568.137 1000.61 585.229 C 977.886 609.139 954.852 632.747 931.509 656.048 C 896.858 690.815 881.47 708.493 829.874 716.801 C 823.79 717.939 815.8 719.362 809.788 719.942 C 778.391 722.971 733.302 705.128 709.663 685.339 C 678.127 658.938 654.261 599.779 650.955 559.156 C 647.611 518.058 656.518 472.358 675.168 435.256 C 680.32 425.007 691.097 412.644 696.867 402.396 C 705.387 387.265 709.513 377.069 720.742 363.629 C 742.946 337.416 770.63 316.394 801.843 302.045 C 815.668 295.799 830.666 291.396 844.414 285.131 C 864.656 275.908 883.5 271.52 905.664 269.47 z" fill="rgb(255,255,255)" transform="translate(0,0)"></path>
<path d="M 1531.58 657.067 C 1553.11 664.802 1575.01 675.55 1596.24 684.321 C 1589.45 701.21 1576.51 719.579 1564.01 732.678 C 1523.05 775.609 1479.9 817.56 1438.48 859.953 L 1124.69 1182.1 C 1116.63 1190.42 1108.12 1201.42 1100.6 1208.81 C 1078.24 1230.78 1056.4 1252.6 1034.57 1275.1 L 940.596 1371.37 C 916.228 1396.51 896.23 1418.8 870.666 1443.66 C 827.392 1485.73 791.223 1529.82 742.5 1566.72 C 727.829 1576.98 724.284 1579.63 706.835 1580.17 C 700.951 1577.18 694.042 1574.03 691.733 1567.35 C 688.06 1556.71 701.933 1535.58 708.752 1527.7 C 736.288 1495.9 766.817 1465.7 796.029 1435.49 C 851.309 1377.8 906.981 1320.49 963.04 1263.56 L 1225.21 991.155 C 1301.77 910.743 1375.55 828.911 1457.68 754.039 C 1479.42 734.223 1518.46 684.269 1531.58 657.067 z" fill="rgb(255,255,255)" transform="translate(0,0)"></path>
<path d="M 719.972 765.406 C 732.52 766.421 738.726 766.584 749.016 775.855 C 794.743 817.057 811.005 892.907 773.246 944.259 C 762.58 958.764 747.6 971.242 734.616 984.307 L 640.721 1077.87 C 622.307 1096.26 603.837 1115.81 585.275 1134.22 C 557.447 1161.81 542.101 1173.5 501.25 1175.15 C 473.225 1177.52 450.039 1166.47 433.847 1143.67 C 467.41 1140.52 499.748 1124.18 528.041 1106.44 C 534.739 1102.24 548.425 1085.43 554.283 1078.88 C 563.52 1068.75 572.855 1058.7 582.287 1048.75 L 653.881 973.911 C 671.416 955.61 690.833 937.922 703.716 915.965 C 723.566 882.131 732.791 841.869 728.089 802.799 C 726.585 790.303 723.048 777.624 719.972 765.406 z" fill="rgb(255,255,255)" transform="translate(0,0)"></path>
<path d="M 1068.28 549.857 C 1076.78 552.874 1083.84 548.045 1094.87 556.105 C 1105.32 563.741 1118.43 568.847 1122.19 582.914 C 1120.83 587.049 1115.92 593.89 1112.8 597.076 C 1094.13 616.198 1074.93 634.972 1056.12 653.991 C 1024.96 685.505 993.743 717.145 961.998 748.054 C 960.169 749.834 949.885 758.606 947.748 759.613 C 922.916 771.308 899.913 773.805 873.775 772.814 C 850.272 769.174 829.349 765.59 815.175 744.356 C 832.023 740.804 861.862 735.231 876.892 728.525 C 888.06 723.539 898.54 717.135 908.073 709.472 C 919.162 700.409 929.936 687.055 940.255 676.506 L 1019.7 594.34 C 1034.69 578.854 1050.15 561.177 1068.28 549.857 z" fill="rgb(255,255,255)" transform="translate(0,0)"></path>
<path d="M 1701.58 912.655 C 1730.85 921.539 1756.93 958.099 1770.63 983.837 C 1808.35 1054.68 1816.61 1132.88 1786.14 1208 C 1778.07 1227.89 1770.7 1246.02 1751.32 1256.93 C 1733.2 1258.04 1707.99 1233.48 1689.36 1223.55 C 1693.44 1215.25 1697.83 1207.46 1702.87 1199.65 C 1722.16 1169.71 1732.72 1138.64 1738.94 1103.7 C 1751.7 1032.03 1735.07 975.987 1701.58 912.655 z" fill="rgb(255,255,255)" transform="translate(0,0)"></path>
<path d="M 1366.92 1400.88 C 1414.3 1404.19 1429.79 1450.24 1431.9 1490.86 C 1434.47 1540.41 1415.91 1603.02 1383.78 1641.1 C 1381.51 1644.01 1382.89 1643.25 1379.91 1644.52 C 1360.21 1632.98 1346.72 1617.6 1327.76 1604.75 C 1356.24 1555.92 1373.43 1498.93 1371.02 1442.07 C 1370.44 1428.37 1366.69 1414.09 1366.92 1400.88 z" fill="rgb(255,255,255)" transform="translate(0,0)"></path>
<path d="M 1063.11 307.461 C 1067.65 308.236 1074.36 311.447 1078.61 313.747 C 1149.55 352.12 1177 447.267 1159.66 522.229 C 1157.39 532.077 1154.63 545.629 1143.94 548.712 L 1133.07 550.049 C 1111.31 540.427 1100.66 534.079 1083.84 517.315 C 1118.09 445.322 1106.36 372.426 1063.11 307.461 z" fill="rgb(255,255,255)" transform="translate(0,0)"></path>
<path d="M 1502.96 484.953 C 1504.42 485.203 1506.89 485.632 1508.19 486.116 C 1542.43 498.841 1571.97 517.209 1588.64 550.559 C 1605.17 583.632 1614.07 625.318 1602.89 660.813 L 1601.5 662.339 C 1595.37 661.424 1544.52 631.562 1543.39 625.492 C 1540.87 612.012 1545.08 580.884 1540.42 564.017 C 1534.52 542.688 1528.15 524.903 1516.15 505.894 C 1513.43 501.588 1503.41 488.739 1502.96 484.953 z" fill="rgb(255,255,255)" transform="translate(0,0)"></path>
<path d="M 1708.92 687.61 C 1711.68 678.868 1706.09 676.286 1708.12 665.707 L 1709.33 665.035 L 1711.94 669.203 C 1709.23 680.599 1720.29 687.025 1713.47 695.415 C 1710.66 692.221 1710.58 691.643 1708.92 687.61 z" fill="rgb(57,61,111)" transform="translate(0,0)"></path>
<path d="M 1648.81 1405.83 L 1648.83 1407.67 C 1645.81 1412.76 1635.27 1421.57 1630.29 1425.39 L 1628.92 1424.41 C 1635.33 1418.35 1642.18 1411.54 1648.81 1405.83 z" fill="rgb(123,125,130)" transform="translate(0,0)"></path>
<path d="M 1651.74 824.975 C 1651.89 820.175 1652.98 817.303 1656.68 813.981 C 1656.6 818.049 1654.08 818.797 1653.57 825.692 L 1651.74 824.975 z" fill="rgb(57,61,111)" transform="translate(0,0)"></path>
<path d="M 98.9158 111.184 C 110.712 111.12 108.302 131.64 102.974 138.575 C 87.6511 158.521 56.377 198.246 31.89 204.154 C -1.58061 185.598 58.4368 144.493 69.5076 128.782 C 74.8501 121.201 89.5371 111.998 98.9158 111.184 z" fill="rgb(17,24,39)" transform="translate(0,0)"></path>
<path d="M 167.508 359.801 C 178.422 360.873 191.734 364.246 186.238 378.21 C 182.622 387.398 168.705 404.803 160.061 408.915 C 123.227 412.552 139.834 371.683 167.508 359.801 z" fill="rgb(17,24,39)" transform="translate(0,0)"></path>
<path d="M 100.597 803.286 C 144.899 801.356 95.3051 847.074 83.5352 855.902 C 81.3934 855.047 76.3464 854.143 73.8425 853.618 C 71.3804 851.285 68.9892 848.419 66.7282 845.842 C 73.4972 825.368 82.7644 815.403 100.597 803.286 z" fill="rgb(17,24,39)" transform="translate(0,0)"></path>
<path d="M 112.551 592.149 C 121.632 590.94 132.104 593.316 130.713 604.947 C 129.004 619.247 119.421 628.019 109.079 636.818 C 95.4504 638.855 84.6085 633.784 88.8267 618.492 C 92.7461 604.284 100.875 599.251 112.551 592.149 z" fill="rgb(17,24,39)" transform="translate(0,0)"></path>
<path d="M 295.537 382.733 C 299.371 383.158 300.825 384.366 303.425 386.862 C 308.078 396.841 294.694 408.611 287.254 413.294 C 282.041 412.863 282.913 413.324 279.117 410.497 C 273.718 400.419 288.11 388.001 295.537 382.733 z" fill="rgb(17,24,39)" transform="translate(0,0)"></path>
<path d="M 1509.37 1624.03 C 1512.78 1616.97 1511.74 1602.94 1516.24 1599.43 L 1519.37 1599.27 C 1521.15 1595.62 1516.81 1585.77 1525.53 1579.19 C 1529.15 1584.46 1519.71 1621.96 1515.95 1627.63 C 1514.46 1627.9 1513.4 1628.07 1511.86 1628.28 C 1512.61 1633.12 1514.02 1628 1514.2 1631.26 C 1514.48 1636.27 1511.33 1645.02 1508.93 1648.83 L 1507.07 1649.66 L 1504.78 1648.3 C 1505.73 1643.92 1506.11 1644.04 1508.77 1640.42 C 1512.32 1635.6 1506.48 1629.82 1509.37 1624.03 z" fill="rgb(17,24,39)" transform="translate(0,0)"></path>
<path d="M 195.138 531.995 C 190.704 530.065 186.876 529.347 185.987 523.716 C 184.773 516.022 192.407 507.452 199.954 506.968 C 202.563 506.801 204.206 508.438 206.005 510.085 C 207.54 513.652 208.504 515.385 207.57 519.295 C 205.163 524.515 199.623 528.559 195.138 531.995 z" fill="rgb(17,24,39)" transform="translate(0,0)"></path>
<path d="M 190.971 201.702 C 194.67 201.779 195.148 202.194 197.698 204.727 C 200.326 213.285 191.197 220.928 184.844 225.084 C 180.071 225.039 180.363 225.165 177.283 222.704 C 174.785 214.215 184.611 205.869 190.971 201.702 z" fill="rgb(17,24,39)" transform="translate(0,0)"></path>
<path d="M 1331.66 1812.51 C 1336.08 1812.25 1336.81 1811.47 1340.13 1813.18 C 1337.58 1818.01 1327.34 1819.84 1322.2 1820.55 L 1323.37 1819.06 C 1322.38 1822.85 1310.15 1824.77 1306.75 1825.18 C 1300.59 1826.09 1289.65 1828.01 1283.9 1827.66 C 1290.7 1820.67 1294.28 1821.3 1304.29 1819.45 C 1305.81 1819.2 1307.79 1818.77 1309.32 1819.32 C 1316.61 1821.95 1324.39 1815.02 1331.66 1812.51 z" fill="rgb(17,24,39)" transform="translate(0,0)"></path>
<path d="M 1526.14 1559.31 L 1528.61 1559.99 C 1530.89 1562.54 1530.19 1561.09 1530.75 1564.51 C 1529.62 1568.78 1527.35 1571.08 1524.64 1574.61 L 1524.08 1574.64 C 1521.32 1573.1 1522.4 1574.23 1521.28 1570.67 C 1521.85 1566 1523.8 1563.42 1526.14 1559.31 z" fill="rgb(17,24,39)" transform="translate(0,0)"></path>
<path d="M 1671.7 796.385 C 1672.35 791.727 1672.42 788.076 1674.79 784.083 L 1675.54 784.506 C 1677.23 793.323 1679.21 800.707 1672.23 807.363 L 1671.42 806.259 C 1671.99 802.922 1671.76 799.774 1671.7 796.385 z" fill="rgb(17,24,39)" transform="translate(0,0)"></path>
<metadata><recraft-signature>{"signed_by": "recraft", "signature_b64": "1VNEpQ7fCb5UTBQSXDuKVbZp61TIIlia58n+bIn50ElJ4q8CVgUlnKS4kjDUIQMEGCxLpOo3etJLydAFfyV9AQ==", "signing_algo": "Ed25519", "generation_timestamp": 1777676000, "identifier": "96cc84c8-4ea0-4ec9-9341-762060a88018"}</recraft-signature></metadata></svg>