<svg xmlns="http://www.w3.org/2000/svg" height="1024" preserveAspectRatio="none" style="display: block;" version="1.1" viewBox="0 0 2048 2048" width="1024">
<path d="M 0 0 L 2048 0 L 2048 955.315 L 2048 986.367 L 2048 1062.53 L 2048 1102.55 L 2048 2048 L 1124.75 2048 L 1103.62 2048 L 929.477 2048 L 894.46 2048 L 0 2048 L 0 1104.84 L 0 1062.43 L 0 950.126 L 0 935.191 L 0 0 z" fill="rgb(0,33,49)" transform="translate(0,0)"></path>
<path d="M 0 1104.84 C 2.21557 1109.65 2.2962 1113.69 2.92108 1118.97 C 4.035 1153.44 12.6623 1191.18 19.0271 1225 C 50.9234 1389.69 123.365 1543.82 229.801 1673.47 C 262.868 1713.39 298.541 1751.07 336.586 1786.27 C 478.679 1919.65 682.398 2020.38 876.16 2044.44 C 882.881 2046.47 887.517 2047.01 894.46 2048 L 0 2048 L 0 1104.84 z" fill="rgb(0,33,49)" transform="translate(0,0)"></path>
<path d="M 0 1062.43 C 2.04843 1070.91 1.81947 1088.83 2.65934 1098.53 C 3.19571 1104.72 4.58469 1113.51 4.89517 1119.17 C 7.32132 1156.73 12.3021 1177.46 19.0884 1213.01 C 61.1299 1437.64 176.74 1641.9 347.693 1793.57 C 476.553 1906.95 621.625 1985.92 789.063 2025.55 C 820.3 2032.95 848.251 2036.55 878.811 2042.55 L 876.16 2044.44 C 682.398 2020.38 478.679 1919.65 336.586 1786.27 C 298.541 1751.07 262.868 1713.39 229.801 1673.47 C 123.365 1543.82 50.9234 1389.69 19.0271 1225 C 12.6623 1191.18 4.035 1153.44 2.92108 1118.97 C 2.2962 1113.69 2.21557 1109.65 0 1104.84 L 0 1062.43 z" fill="rgb(77,134,112)" transform="translate(0,0)"></path>
<path d="M 5.76637 895.055 C 5.72212 887.617 7.64571 877.312 8.84102 869.8 C 52.1858 600.617 201.672 360.06 423.829 201.993 C 460.627 175.464 498.917 153.827 538.23 131.952 C 635.908 77.6005 740.673 39.6397 850.803 20.3033 C 857.434 19.139 908.638 11.0474 912.204 11.6193 L 913.204 14.1633 L 908.73 14.6471 C 651.447 41.5596 381.482 193.876 221.116 395.792 C 120.849 522.027 51.5473 669.994 18.764 827.836 C 16.8075 837.502 6.25159 889.76 7.54517 896.384 L 5.76637 895.055 z" fill="rgb(77,134,112)" transform="translate(0,0)"></path>
<path d="M 1149.97 2041.75 C 1185.14 2036.68 1219.73 2029.79 1254.53 2022.64 C 1255.17 2023.04 1255.82 2023.44 1256.47 2023.84 C 1243.98 2029.2 1164.5 2043.89 1149.42 2044.33 L 1149.97 2041.75 z" fill="rgb(63,147,107)" transform="translate(0,0)"></path>
<path d="M 2011.1 1300.8 C 2011.24 1293.21 2022.73 1254.91 2025.01 1244.03 C 2029.56 1222.21 2033.05 1201.06 2036.77 1179.06 L 2038.75 1180.81 C 2037.03 1195.01 2018.52 1292.16 2011.1 1300.8 z" fill="rgb(127,175,147)" transform="translate(0,0)"></path>
<path d="M 2036.77 1179.06 C 2037.51 1167.86 2040.92 1149.63 2042.18 1136.33 C 2043.52 1122.85 2044.59 1109.35 2045.4 1095.82 C 2045.85 1087.9 2046.03 1069.19 2048 1062.53 L 2048 1102.55 C 2045.9 1112.29 2046.09 1121.02 2045.12 1131.04 C 2043.63 1147.71 2041.5 1164.31 2038.75 1180.81 L 2036.77 1179.06 z" fill="rgb(127,175,147)" transform="translate(0,0)"></path>
<path d="M 2038.58 884.429 C 2040.51 896.619 2045.19 948.215 2048 955.315 L 2048 986.367 C 2047 985.275 2045.8 983.62 2045.81 981.998 C 2046.06 955.157 2043.23 928.759 2039.05 902.271 C 2038.11 896.278 2037.23 891.11 2036.87 885.151 L 2038.58 884.429 z" fill="rgb(77,134,112)" transform="translate(0,0)"></path>
<path d="M 878.811 2042.55 C 887.328 2043.39 923.451 2046.05 929.477 2048 L 894.46 2048 C 887.517 2047.01 882.881 2046.47 876.16 2044.44 L 878.811 2042.55 z" fill="rgb(27,94,59)" transform="translate(0,0)"></path>
<path d="M 5.76637 895.055 L 7.54517 896.384 C 6.53321 904.074 3.00308 947.703 1.18857 949.773 L 0 950.126 L 0 935.191 C 4.12713 929.084 2.81819 903.113 5.76637 895.055 z" fill="rgb(77,134,112)" transform="translate(0,0)"></path>
<path d="M 1103.62 2048 C 1112.1 2045.81 1140.34 2042.88 1149.97 2041.75 L 1149.42 2044.33 C 1141.86 2046.19 1131.28 2046 1124.75 2048 L 1103.62 2048 z" fill="rgb(63,147,107)" transform="translate(0,0)"></path>
<path d="M 2033.07 860.739 C 2036.49 863.612 2037.82 879.041 2038.58 884.429 L 2036.87 885.151 C 2035.18 880.795 2033.44 865.926 2033.07 860.739 z" fill="rgb(77,134,112)" transform="translate(0,0)"></path>
<path d="M 126.522 928.534 C 133.871 750.142 191.314 577.426 292.27 430.166 C 350.109 345.917 424.108 266.834 505.868 206.013 C 616.969 123.364 748.509 70.4357 885.117 50.029 C 1002.37 31.2246 1112.89 34.8781 1228.82 60.5498 C 1294.19 75.0267 1360.91 98.468 1421.56 126.721 C 1588.72 202.579 1733.42 327.19 1837.46 478.035 C 1977.24 675.522 2039.61 919.054 2008.23 1159.43 C 1988.61 1308.36 1933.64 1450.43 1847.9 1573.77 C 1828.74 1601.1 1808.33 1627.53 1786.72 1652.96 C 1779.44 1661.67 1766.57 1674.83 1760.43 1682.98 C 1751.94 1691.46 1743.77 1700.25 1735.91 1709.31 C 1727.48 1723.43 1715.01 1730.89 1703.86 1742.42 C 1700.65 1744.5 1682.94 1760.02 1678.38 1763.97 C 1669.09 1772.02 1650.9 1784.04 1643.03 1791.65 C 1629.76 1800.28 1616.53 1811.43 1603.44 1820.55 C 1591.71 1826.27 1576.4 1835.99 1565.32 1843 L 1543.09 1855.62 C 1520.74 1867.32 1496.48 1880.36 1473.43 1890.34 C 1391.73 1925.42 1304.99 1947.35 1216.44 1955.33 C 1195.05 1957.03 1173.61 1958.12 1152.15 1958.59 C 1141.67 1958.78 1122.3 1958.35 1112.64 1959.51 C 1110.95 1960.12 1107.18 1961.17 1105.37 1961.21 C 946.325 1964.53 788.433 1920.22 648.602 1845.75 C 602.494 1821.2 560.132 1791.95 518.449 1760.85 C 308.365 1601.85 168.954 1366.86 130.115 1106.27 C 124.162 1055.43 119.653 1009.17 122.089 957.903 C 122.635 946.406 126.589 938.706 126.522 928.534 z" fill="rgb(77,134,112)" transform="translate(0,0)"></path>
<path d="M 126.522 928.534 C 127.752 967.376 130.508 1006.15 134.784 1044.78 C 136.657 1061.33 141.193 1086.74 142.163 1101.48 C 152.845 1152.32 163.204 1201.24 179.608 1250.91 C 240.578 1438.44 354.457 1604.35 507.532 1728.66 C 530.36 1747.09 555.866 1766.81 580.416 1782.84 C 735.777 1884.41 915.671 1942.16 1101.12 1950 C 1126.13 1948.34 1152.31 1951.28 1177.49 1949.62 C 1194.65 1948.48 1211.68 1946.94 1228.78 1945.15 C 1367.95 1929.67 1501.31 1880.81 1617.53 1802.72 C 1660.25 1773.41 1696.29 1741.95 1735.91 1709.31 C 1727.48 1723.43 1715.01 1730.89 1703.86 1742.42 C 1700.65 1744.5 1682.94 1760.02 1678.38 1763.97 C 1669.09 1772.02 1650.9 1784.04 1643.03 1791.65 C 1629.76 1800.28 1616.53 1811.43 1603.44 1820.55 C 1591.71 1826.27 1576.4 1835.99 1565.32 1843 L 1543.09 1855.62 C 1520.74 1867.32 1496.48 1880.36 1473.43 1890.34 C 1391.73 1925.42 1304.99 1947.35 1216.44 1955.33 C 1195.05 1957.03 1173.61 1958.12 1152.15 1958.59 C 1141.67 1958.78 1122.3 1958.35 1112.64 1959.51 C 1110.95 1960.12 1107.18 1961.17 1105.37 1961.21 C 946.325 1964.53 788.433 1920.22 648.602 1845.75 C 602.494 1821.2 560.132 1791.95 518.449 1760.85 C 308.365 1601.85 168.954 1366.86 130.115 1106.27 C 124.162 1055.43 119.653 1009.17 122.089 957.903 C 122.635 946.406 126.589 938.706 126.522 928.534 z" fill="rgb(27,94,59)" transform="translate(0,0)"></path>
<path d="M 1014.3 148.306 C 1057.07 143.661 1123.17 147.299 1166.13 153.085 C 1196.51 156.934 1226.67 162.322 1256.5 169.23 C 1379.02 198.867 1494.58 259.366 1592.55 338.011 C 1717.43 439.73 1812.52 573.285 1867.79 724.573 C 1895.9 800.618 1912.15 881.756 1912.79 963.499 C 1912.88 974.979 1911.95 987.396 1911.49 998.945 C 1911.37 1003.72 1912.05 1023.56 1908.8 1025.84 C 1906.54 1034.75 1906.28 1062.47 1905.33 1073.5 C 1903.51 1094.41 1901.5 1113.56 1898.56 1134.56 C 1887.13 1216.25 1861.38 1292.79 1828.08 1367.95 C 1822.56 1380.41 1813.74 1394.74 1807.58 1407.24 C 1801.39 1418.93 1796.25 1431.66 1788.95 1442.72 C 1760.19 1486.26 1729.55 1531.28 1695.31 1570.56 C 1654.38 1617.53 1608.36 1656.76 1558.78 1693.96 C 1427.41 1790.8 1269.41 1844.83 1106.26 1848.71 C 1097.32 1848.88 1087.72 1847.89 1078.65 1847.78 C 813.885 1844.71 561.411 1703.96 404.26 1493.58 C 293.026 1342.75 234.25 1159.63 236.917 972.239 C 237.38 944.201 242.084 916.102 244.184 887.94 C 248.372 831.781 262.338 772.861 279.994 719.581 C 327.353 574.138 414.434 444.834 531.405 346.272 C 541.364 337.865 553.462 326.242 563.589 318.717 C 572.896 309.34 612.881 282.399 624.607 274.709 C 743.564 196.687 872.794 156.658 1014.3 148.306 z" fill="rgb(0,33,49)" transform="translate(0,0)"></path>
<path d="M 1014.3 148.306 C 1057.07 143.661 1123.17 147.299 1166.13 153.085 C 1196.51 156.934 1226.67 162.322 1256.5 169.23 C 1379.02 198.867 1494.58 259.366 1592.55 338.011 C 1717.43 439.73 1812.52 573.285 1867.79 724.573 C 1895.9 800.618 1912.15 881.756 1912.79 963.499 C 1912.88 974.979 1911.95 987.396 1911.49 998.945 C 1911.37 1003.72 1912.05 1023.56 1908.8 1025.84 C 1904.38 1015.62 1903.51 987.023 1904.22 975.416 C 1902.71 947.164 1897.73 917.87 1893.72 889.884 C 1833.21 467.281 1438.88 141.911 1013.23 155.921 L 1014.3 148.306 z" fill="rgb(27,94,59)" transform="translate(0,0)"></path>
<path d="M 563.589 318.717 C 572.896 309.34 612.881 282.399 624.607 274.709 C 743.564 196.687 872.794 156.658 1014.3 148.306 L 1013.23 155.921 C 994.237 157.141 972.018 158.469 953.206 160.77 C 874.264 171.087 797.294 193.076 724.817 226.018 C 693.751 240.098 663.527 255.966 634.297 273.542 C 613.847 285.739 587.104 304.616 566.669 318.477 C 565.642 318.557 564.616 318.637 563.589 318.717 z" fill="rgb(82,86,20)" transform="translate(0,0)"></path>
<path d="M 1788.74 1092.56 C 1785.42 1121.64 1785.53 1150.56 1781.57 1179.49 C 1780.48 1187.49 1779.21 1195.51 1777.87 1203.46 C 1757.66 1322.66 1709.75 1435.44 1638 1532.74 C 1623.69 1552.39 1606.39 1575.5 1589.71 1593.16 C 1546.85 1639.03 1499.2 1680.17 1447.56 1715.87 C 1427.46 1729.95 1406.37 1745.06 1383.94 1754.99 C 1305.97 1789.51 1205.44 1814.74 1120.23 1816.86 C 1072.62 1817.63 1025.03 1814.08 978.061 1806.26 C 809.149 1779.96 652.391 1702.41 528.996 1584.11 C 363.557 1426.08 268.896 1207.98 266.459 979.209 C 266.086 958.137 268.588 930.191 270.321 908.686 C 283.868 727.991 360.02 557.68 485.655 427.104 C 548.68 362.377 622.691 309.346 704.245 270.479 C 714.908 265.294 737.285 253.918 747.198 250.589 C 784.081 238.72 824.609 234.005 862.957 228.996 C 910.039 222.847 964.353 222.411 1011.74 226.479 C 1204.24 242.686 1385.13 325.24 1523.51 460.033 C 1676.01 607.933 1784.78 814.523 1788.11 1030.11 C 1790.38 1034.37 1789.29 1085.56 1788.74 1092.56 z" fill="rgb(27,94,59)" transform="translate(0,0)"></path>
<path d="M 884.775 483.156 C 891.868 477.236 898.196 470.397 906.065 465.448 C 925.119 453.464 1025.74 423.849 1049.89 420.376 C 1061.05 418.771 1070.86 418.691 1081.87 421.167 C 1088.93 421.552 1095.39 422.751 1102.28 424.373 C 1103.18 428.612 1102.23 426.89 1104.86 429.927 C 1111.07 430.956 1124.81 439.812 1130.14 443.622 C 1164.77 471.362 1197.42 502.013 1230.69 531.355 C 1314.89 605.621 1402.3 677.093 1485.97 751.887 C 1512.11 774.917 1537.91 798.318 1563.38 822.082 C 1578.87 836.604 1618.32 874.127 1634.85 884.967 C 1637.87 890.155 1640.78 895.364 1641.76 901.384 C 1644.71 919.4 1645.42 1073.22 1640.75 1090.7 C 1635.95 1108.69 1623.54 1126.82 1610.9 1140.22 C 1595.86 1156.18 1577.61 1169.97 1561.25 1184.64 L 1444.68 1288.86 C 1354.09 1371.54 1262.44 1453.06 1169.76 1533.38 C 1148.39 1551.59 1127.61 1571.69 1105.37 1588.78 C 1066.44 1618.69 1007.81 1632.82 960.217 1618.61 C 948.002 1615.07 936.58 1609.22 926.567 1601.38 C 917.022 1593.87 907.799 1585.15 898.544 1577.24 C 852.403 1537.79 808.068 1496.14 762.288 1456.33 L 570.301 1287.36 L 474.754 1204.89 C 461.374 1193.14 442.475 1179.42 433.469 1163.74 C 427.553 1153.44 421.654 1138.54 419.32 1126.86 C 416.649 1100.63 417.974 1073.32 417.796 1046.9 C 417.591 1016.3 417.688 985.063 418.446 954.543 C 418.83 939.055 431.917 900.048 441.307 887.763 C 444.169 881.821 447.475 875.596 450.481 869.681 C 451.604 867.204 453.422 864.534 455.518 862.803 C 483.058 840.051 509.963 815.798 537.174 792.756 L 543.807 786.18 C 545.657 783.598 571.327 761.898 575.476 758.312 L 650.21 693.195 C 723.077 628.965 796.501 559.15 870.15 496.783 C 874.819 492.052 879.846 487.622 884.775 483.156 z" fill="rgb(0,33,49)" transform="translate(0,0)"></path>
<path d="M 533.926 1053.46 C 535.327 1020.35 532.87 982.517 534.239 948.925 C 535.059 928.81 532.855 906.149 539.068 886.337 C 540.38 882.153 544.278 878.374 547.319 875.183 C 564.021 857.665 583.332 844.027 601.473 827.568 L 758.779 686.588 L 934.937 529.237 C 948.206 517.526 961.371 505.698 974.43 493.753 C 1001.87 468.838 1017.37 454.559 1056.4 453.474 C 1107.79 452.044 1136.63 491.827 1172.16 521.937 C 1206.63 551.149 1240.3 581.134 1274.31 610.739 L 1451 764.611 C 1493.46 801.206 1536.58 837.544 1577.79 875.542 C 1594.39 890.859 1610.28 913.324 1611.81 936.426 C 1612.49 946.688 1611.87 961.728 1612.12 972.797 C 1612 979.191 1610.9 1002.57 1613.24 1006.91 C 1607.08 1028.98 1619.31 1072.89 1606.92 1091.09 C 1582.97 1126.28 1544.67 1158.66 1513.23 1187.75 C 1467.62 1230.64 1421.2 1272.65 1374 1313.76 L 1288.84 1387.65 L 1203.32 1463.54 C 1185.47 1479.41 1167.1 1496.39 1147.66 1510.16 C 1136.29 1518.22 1094.24 1530 1082.09 1524.96 C 1069 1530.64 1041.68 1525.42 1028.82 1519.3 C 1008.62 1509.7 993.857 1494.23 977.339 1479.66 C 964.524 1468.48 951.65 1457.37 938.717 1446.33 L 833.798 1358.22 C 825.286 1350.99 797.758 1325.52 789.548 1320.83 C 782.711 1314.09 760.332 1296.05 752.164 1289.29 C 722.085 1264.41 690.615 1236.44 660.242 1212.33 C 658.497 1209.87 639.199 1193.06 636.133 1190.41 C 623.258 1179.39 610.308 1168.46 597.286 1157.61 C 580.401 1143.69 560.053 1128.54 546.65 1111.08 C 542.362 1105.49 538.094 1092.07 535.299 1085.34 L 534.68 1080.17 C 533.056 1076.02 534.266 1068.41 534.904 1063.84 L 533.926 1053.46 z" fill="rgb(77,134,112)" transform="translate(0,0)"></path>
<path d="M 534.904 1063.84 C 539.63 1072.01 541.906 1079.94 547.016 1087.76 C 550.198 1091.51 554.717 1097.8 558.139 1100.9 C 568.819 1110.56 580.86 1119.24 591.521 1128.92 C 619.263 1154.12 649.724 1176.26 678.04 1200.63 L 936.627 1418.83 C 966.225 1443.47 994.623 1469.68 1024.54 1493.94 C 1031.96 1499.95 1043.19 1506.69 1051.78 1511.05 C 1058.19 1514.3 1076.76 1520.6 1082.09 1524.96 C 1069 1530.64 1041.68 1525.42 1028.82 1519.3 C 1008.62 1509.7 993.857 1494.23 977.339 1479.66 C 964.524 1468.48 951.65 1457.37 938.717 1446.33 L 833.798 1358.22 C 825.286 1350.99 797.758 1325.52 789.548 1320.83 C 782.711 1314.09 760.332 1296.05 752.164 1289.29 C 722.085 1264.41 690.615 1236.44 660.242 1212.33 C 658.497 1209.87 639.199 1193.06 636.133 1190.41 C 623.258 1179.39 610.308 1168.46 597.286 1157.61 C 580.401 1143.69 560.053 1128.54 546.65 1111.08 C 542.362 1105.49 538.094 1092.07 535.299 1085.34 L 534.68 1080.17 C 533.056 1076.02 534.266 1068.41 534.904 1063.84 z" fill="rgb(27,94,59)" transform="translate(0,0)"></path>
<path d="M 1072.17 546.022 C 1076.86 541.402 1079.77 537.376 1086.35 536.795 C 1097.62 540.332 1162.57 601.876 1176.69 613.673 C 1214.73 645.463 1253.31 679.514 1290.89 712.099 C 1293.51 714.376 1306.18 724.459 1307.16 725.995 C 1312.09 729.891 1317.02 734.033 1321.7 738.227 C 1349.83 763.476 1380.78 788.007 1408.14 813.925 L 1407.77 938.344 C 1407.93 979.11 1409.93 1019.87 1408.03 1060.65 C 1406.66 1090.07 1410.27 1123.89 1405.82 1152.63 C 1404.31 1162.41 1361.88 1196.18 1353.52 1203.52 C 1329.73 1224.72 1306.05 1246.05 1282.49 1267.51 C 1246.37 1301.29 1209.73 1334.5 1172.57 1367.14 C 1156.92 1380.91 1139.68 1397.38 1122.87 1409.4 C 1101.91 1424.4 1052.03 1440.09 1029.55 1421.62 C 1016.02 1410.51 1001.53 1397.56 988.002 1386.1 L 864.058 1279.66 C 846.491 1264.63 752.991 1189.08 746.756 1178.83 C 746.567 1178.52 746.391 1178.2 746.209 1177.88 C 744.065 1174.23 745.192 1153.29 745.311 1147.78 C 744.513 1113.44 745.377 1076.51 745.437 1041.98 L 744.814 839.261 L 745.622 838.213 C 751.605 830.298 763.049 821.542 770.54 814.549 C 791.412 795.066 814.108 777.284 835.485 758.469 C 854.64 741.609 873.614 724.676 892.993 708.029 C 904.085 698.5 914.777 687.214 926.153 677.901 L 935.608 669.896 C 950.053 653.221 974.182 637.979 989.812 622.833 C 1016.69 596.784 1046 572.524 1072.17 546.022 z" fill="rgb(0,33,49)" transform="translate(0,0)"></path>
<path d="M 1072.17 546.022 C 1076.86 541.402 1079.77 537.376 1086.35 536.795 C 1097.62 540.332 1162.57 601.876 1176.69 613.673 C 1214.73 645.463 1253.31 679.514 1290.89 712.099 C 1293.51 714.376 1306.18 724.459 1307.16 725.995 C 1313.22 735.09 1332.04 749.734 1340.78 757.263 L 1393.09 802.409 C 1397.94 806.532 1406.1 812.922 1406.6 819.081 C 1404.79 823.109 1406.1 821.533 1402.68 824.109 C 1395.26 824.244 1332.8 769.097 1321.16 759.507 C 1264.81 713.314 1209.04 666.407 1153.88 618.796 C 1128.76 596.732 1098.91 564.045 1072.17 546.022 z" fill="rgb(27,94,59)" transform="translate(0,0)"></path>
<path d="M 999.924 654.814 C 1005.39 656.35 1261.22 871.058 1277.9 888.297 L 1278.04 1091.15 C 1278.09 1117.99 1279.69 1145.22 1278.96 1172.03 C 1271.33 1183.43 1224.86 1223.15 1212.58 1234.24 L 1050.99 1381.33 C 1048.63 1383.4 1048.84 1383.32 1045.79 1384.06 C 1039.66 1381.49 1021.99 1365.6 1016 1360.59 L 936.729 1293.15 L 836.975 1209.53 C 823.872 1198.59 785.66 1169.29 777.318 1157.44 C 776.929 1148.76 776.854 1140.05 776.812 1131.36 C 776.36 1037.85 778.314 944.707 776.011 851.199 C 793.168 837.824 821.081 811.037 838.193 795.8 L 940.657 706.014 C 956.286 692.155 983.974 665.637 999.924 654.814 z" fill="rgb(77,134,112)" transform="translate(0,0)"></path>
<path d="M 967.92 684.616 C 973.793 678.626 994.216 659.192 1001.49 657.82 L 1004.97 660.36 C 1046.34 695.341 1089.52 728.854 1130.07 764.915 C 1133.48 767.948 1153.86 784.349 1155.16 786.107 C 1169.28 797.813 1183.32 809.623 1197.27 821.534 C 1206.49 828.02 1225.06 844.427 1234.12 852.158 C 1244.45 860.978 1268.01 879.862 1275.9 889.215 L 1275.99 1077.65 C 1276.1 1106.74 1277.89 1144.7 1276.88 1172.65 C 1255.59 1194.43 1227.24 1218.92 1204.4 1239.23 L 1128.71 1307.68 L 1072.09 1359.7 C 1065.84 1365.4 1052.38 1378.46 1046.12 1382.76 C 1001.07 1349.55 956.325 1307.19 912.873 1271.06 C 896.115 1257.1 879.495 1242.97 863.014 1228.69 L 808.678 1183.32 C 800.138 1176.23 786.73 1166.03 779.647 1158.02 C 779.146 1149.07 779.054 1141.84 779.19 1132.87 C 778.914 1093.84 778.986 1054.8 779.404 1015.77 C 778.867 1002.55 779.432 984.535 779.45 970.952 L 779.249 889.434 C 779.326 877.166 779.145 864.899 778.706 852.639 L 789.621 842.483 C 792.794 838.439 824.424 810.749 829.527 806.614 L 845.66 792.348 C 848.088 789.392 860.87 778.498 864.302 775.468 C 878.072 763.263 891.91 751.135 905.816 739.085 L 943.491 706.081 C 951.276 699.129 959.738 690.877 967.92 684.616 z" fill="rgb(0,33,49)" transform="translate(0,0)"></path>
<path d="M 1067.15 590.897 C 1072.59 591.802 1076.45 598.034 1080.52 601.61 C 1129.67 644.856 1180.1 690.518 1230.93 731.471 C 1257.8 752.689 1284.16 774.548 1309.97 797.03 C 1322.56 807.809 1339.48 821.647 1350.65 833.305 C 1335.84 840.455 1319.9 850.203 1304.46 858.013 C 1290.34 864.355 1279.85 846.794 1269.81 838.408 L 1165.79 751.205 L 1074.71 675.532 C 1061.26 664.363 1032.88 642.267 1022.68 629.925 C 1035.99 619.427 1055.64 598.562 1067.15 590.897 z" fill="rgb(27,94,59)" transform="translate(0,0)"></path>
<path d="M 1371.23 855.123 C 1371.62 855.616 1372.01 856.108 1372.4 856.6 C 1373.65 929.419 1373.87 1007.28 1373.13 1079.6 C 1372.86 1106.37 1374 1109.23 1373.59 1124.06 C 1362.61 1133.62 1330.05 1147.46 1316.19 1152.06 C 1313.01 1153.07 1311.5 1153.27 1308.93 1152.04 C 1306.97 1147.79 1307.93 913.93 1307.91 888.146 C 1320.15 880.606 1358.33 860.822 1371.23 855.123 z" fill="rgb(27,94,59)" transform="translate(0,0)"></path>
<path d="M 1114.32 1373.06 C 1127.09 1357.42 1142.23 1341.79 1157.13 1328.03 C 1205.16 1283.69 1252.73 1238.34 1302.66 1196.17 C 1310.36 1189.66 1321.71 1183.8 1330.66 1179.16 L 1332.09 1180.26 C 1297.12 1211.47 1262.84 1244.96 1227.91 1276.43 C 1220.45 1283.14 1187.84 1311.78 1183.76 1317.68 C 1169.6 1330.4 1155.27 1342.93 1140.78 1355.27 C 1131.72 1362.31 1124.24 1367.42 1114.32 1373.06 z" fill="rgb(63,147,107)" transform="translate(0,0)"></path>
<path d="M 1330.66 1179.16 C 1333.21 1177.41 1336.6 1175.76 1339.4 1174.27 L 1337.3 1177.73 L 1332.09 1180.26 L 1330.66 1179.16 z" fill="rgb(27,94,59)" transform="translate(0,0)"></path>
<path d="M 503.373 898.873 C 499.477 949.192 503.773 1001.52 502.392 1051.2 C 500.68 1112.84 520.034 1142.74 568.629 1178.58 C 584.674 1190.42 601.353 1205.52 617.257 1218.01 C 626.832 1225.67 672.209 1267.63 679.282 1271.16 C 695.594 1284.9 719.714 1306.03 736.485 1318.56 C 738.875 1321.56 752.024 1333.43 755.149 1334.69 C 764.125 1342.41 786.678 1363.73 794.621 1368.66 C 797.3 1372.23 805.617 1378.98 809.483 1381.93 C 848.095 1411.43 883.627 1448.09 921.669 1477.76 L 936.884 1490.75 C 944.96 1498.8 960.082 1510.24 969.391 1518.17 C 1002.38 1546.27 1023.3 1565.48 1068.29 1568.54 C 1056.32 1577.47 1047 1584.71 1031.95 1587.46 C 1009.06 1591.65 986.668 1592.48 964.221 1585.73 C 959.972 1584.45 955.6 1583.74 951.847 1581.33 C 926.772 1565.25 905.748 1544.73 883.083 1525.51 C 840.929 1489.76 799.621 1451.05 757.878 1414.98 C 676.098 1345.68 595.292 1275.24 515.483 1203.68 C 498.928 1188.61 466.264 1162.3 455.804 1145.71 C 438.613 1118.45 441.517 1061.73 441.863 1029.84 C 442.198 998.993 439.835 955.316 446.514 926.427 C 448.543 924.694 451.741 920.83 454.307 918.574 C 462.755 911.144 470.003 907.364 479.981 902.255 C 490.05 899.334 492.985 898.84 503.373 898.873 z" fill="rgb(27,94,59)" transform="translate(0,0)"></path>
<path d="M 543.284 840.845 C 542.17 837.653 542.391 837.704 539.993 835.401 L 536.123 835.564 L 535.543 834.617 C 547.842 819.547 587.533 787.691 602.932 773.894 C 633.953 746.099 666.044 718.318 697.277 690.708 L 830.48 571.01 C 855.92 547.955 880.444 524.106 907.363 502.57 C 920.413 492.13 929.757 487.099 945.51 482.266 C 936.155 489.43 923.484 501.25 914.336 509.283 L 837.053 578.259 L 569.938 816.302 C 560.609 823.611 551.716 832.474 543.284 840.845 z" fill="rgb(63,147,107)" transform="translate(0,0)"></path>
<path d="M 523.974 843.563 C 529.079 843.119 532.883 845.717 536.337 849.234 C 536.262 849.964 536.186 850.694 536.111 851.424 C 531.288 849.146 525.871 847.657 523.974 843.563 z" fill="rgb(27,94,59)" transform="translate(0,0)"></path>
<path d="M 949.714 194.063 C 1186.07 158.434 1446.25 258.721 1618.16 420.288 C 1737.03 532.828 1819.24 678.574 1854.05 838.522 C 1857.84 855.861 1862.74 874.41 1865.36 891.825 C 1883.36 1004.44 1876.87 1119.61 1846.33 1229.49 C 1840.76 1249.95 1832.93 1270.65 1826.28 1290.8 C 1824.09 1297.39 1817.88 1312.38 1816.57 1317.93 C 1788.55 1382.49 1754.57 1444.81 1713.99 1502.48 C 1703.54 1517.32 1691.35 1530.47 1679.88 1544.44 C 1676.1 1549.04 1666.83 1559.31 1664.12 1563.78 C 1658.7 1567.14 1654.01 1573.47 1650.17 1578.45 C 1663.69 1552.61 1679.83 1528.33 1695.24 1503.52 C 1759.81 1399.57 1800.4 1278.85 1813.36 1157.24 C 1814.95 1142.36 1813.9 1126.83 1814.29 1111.9 C 1830.37 890.092 1743.4 673.392 1600.01 505.772 C 1481.3 364.255 1320.63 264.195 1141.26 220.079 C 1103.58 211.116 1065.38 204.462 1026.88 200.152 C 1013.17 198.703 988.896 199.687 977.362 197.094 C 971.007 196.911 936.865 198.5 934.615 197.242 C 939.208 194.566 944.486 194.358 949.714 194.063 z" fill="rgb(27,94,59)" transform="translate(0,0)"></path>
<path d="M 308.139 356.399 C 307.394 366.503 273.492 410.58 265.908 422.318 C 178.089 558.248 112.864 714.996 101.245 877.677 C 99.0495 908.422 93.7013 943.655 92.9248 974.225 C 90.6908 1062.18 107.496 1152.4 129.323 1237.31 C 139.499 1274.05 159.684 1340.67 177.022 1373.98 C 182.919 1390.1 193.347 1410.28 201.275 1425.85 C 207.138 1437.36 216.872 1457.24 223.599 1467.88 C 256.535 1530.32 301.82 1590.11 347.625 1643.61 C 360.781 1658.98 373.318 1673.81 388.564 1687.24 C 395.591 1694.31 417.993 1716.98 424.885 1721.86 C 433.63 1733.37 460.39 1754.57 471.946 1763.83 C 526.771 1807.76 586.04 1848.39 648.681 1880.45 C 657.368 1884.76 673.03 1893.55 680.739 1896.84 C 688.407 1901.03 699.361 1905.78 707.592 1908.97 C 716.887 1912.93 735.004 1921.22 744.194 1923.87 C 751.195 1927.14 765.188 1932.37 772.815 1934.44 C 780.536 1937.57 814.443 1949.42 822.315 1950.85 C 845.737 1960.2 875.971 1965.88 900.436 1971.27 C 953.625 1982.77 1008.05 1991.45 1062.62 1990.51 C 1072.62 1990.19 1084.91 1992.84 1094.69 1992.1 C 1111.98 1990.8 1130.67 1991.12 1147.78 1989.49 C 1184.82 1985.97 1229.39 1986.15 1265.37 1978.72 C 1267.84 1980.27 1268.15 1980.26 1269.97 1982.47 C 1231.44 1997.19 1180.68 2005.25 1139.83 2010.03 C 1063 2019.02 970.435 2021.94 893.933 2012.18 C 756.407 1994.63 612.953 1943.71 496.429 1866.91 C 289.311 1732.71 137.388 1528.46 68.4138 1291.5 C 59.5196 1260.3 53.9262 1228.56 47.5361 1196.8 C 4.27357 981.792 47.1952 751.196 151.769 559.522 C 168.771 528.36 188.551 499.371 208.215 469.895 C 242.997 425.399 264.094 394.384 308.139 356.399 z" fill="rgb(27,94,59)" transform="translate(0,0)"></path>
<path d="M 914.971 12.7199 L 916.311 10.6855 C 938.439 7.80773 964.208 7.039 986.793 5.9542 C 1070.76 1.92098 1155.83 10.6416 1238.07 27.5212 C 1314.47 43.2002 1388.37 72.726 1459.32 104.697 C 1475.31 111.901 1490.83 122.063 1506.38 130.23 C 1556.41 156.351 1600.55 187.535 1645.16 221.866 C 1806.96 348.064 1928.82 518.362 1996.05 712.237 C 2006.08 741.33 2014.75 770.875 2022.02 800.777 C 2023.85 808.071 2033.28 843.644 2030.97 849.279 C 2028.59 846.41 2026.09 830.806 2025.17 826.334 C 2018.36 793.317 2010.2 760.4 1999.28 728.472 C 1976.18 658.805 1946.11 591.649 1909.52 528.026 C 1879.49 476.349 1850.88 437.543 1813.74 391.792 C 1688.28 234.396 1519.06 117.638 1327.38 56.2174 C 1321.63 54.4247 1316.18 51.6024 1310.17 49.7511 C 1213.72 20.0379 1111.74 7.44266 1011.02 6.99472 C 996.114 6.92841 919.972 15.1705 914.971 12.7199 z" fill="rgb(63,147,107)" transform="translate(0,0)"></path>
<path d="M 1646.66 1831.74 C 1643.06 1836.92 1621.93 1851.42 1615.58 1856.11 C 1539.62 1912.28 1456.26 1957.68 1367.87 1991.02 C 1359.46 1994.22 1310.06 2011.83 1305.63 2010.13 L 1308.27 2007.62 C 1338.3 2000.95 1371.53 1987.24 1399.84 1975.07 C 1461.64 1948.5 1518.11 1919.6 1574.38 1882.58 C 1585.24 1875.44 1640.95 1833.54 1646.66 1831.74 z" fill="rgb(77,134,112)" transform="translate(0,0)"></path>
<path d="M 2011.14 1301.41 C 2011.89 1307.63 2002.77 1328.96 2000.5 1336.25 C 1971.33 1429.88 1925.71 1518.76 1868.8 1598.51 C 1867.78 1599.95 1865.75 1601.84 1864.38 1602.92 C 1866.37 1597.13 1880.72 1577.95 1885.24 1571.28 C 1892.3 1560.72 1899.17 1550.04 1905.87 1539.25 C 1927.11 1504.36 1951.1 1458.41 1967.26 1420.77 C 1973.87 1405.02 1980.17 1389.15 1986.16 1373.16 C 1989.04 1365.26 2008 1304.69 2011.14 1301.41 z" fill="rgb(77,134,112)" transform="translate(0,0)"></path>
<path d="M 1647.4 1831.42 C 1649.79 1827.26 1657.24 1821.75 1661.21 1818.55 C 1694.98 1791.36 1725.83 1760.48 1756.86 1730.24 C 1761.5 1725.72 1765.35 1720.83 1770.6 1716.98 C 1766.61 1728.3 1660.33 1826.34 1647.4 1831.42 z" fill="rgb(77,134,112)" transform="translate(0,0)"></path>
<path d="M 1771.69 1714.84 C 1773.03 1712.59 1788.48 1697.06 1791.85 1693.17 C 1811.77 1670.5 1830.84 1647.11 1849.04 1623.04 C 1852.47 1618.42 1860.79 1604.12 1864.38 1602.92 C 1864.38 1613.08 1784.54 1705.11 1773.9 1715.23 L 1771.69 1714.84 z" fill="rgb(77,134,112)" transform="translate(0,0)"></path>
<path d="M 1257.28 2023.68 C 1257.89 2022.45 1258.16 2022.36 1259.12 2021.31 C 1265.48 2019.43 1301.3 2008.75 1305.21 2010.23 C 1301.03 2014.28 1263.46 2023.47 1257.28 2023.68 z" fill="rgb(63,147,107)" transform="translate(0,0)"></path>
<path d="M 1265.37 1978.72 C 1269.83 1978.04 1301.4 1971.24 1302.68 1971.51 C 1293.66 1975.74 1277.93 1978.85 1269.97 1982.47 C 1268.15 1980.26 1267.84 1980.27 1265.37 1978.72 z" fill="rgb(63,147,107)" transform="translate(0,0)"></path>
<path d="M 2031.16 850.41 C 2033.98 853.918 2034.36 856.109 2033.25 860.355 C 2031.35 855.864 2031.15 855.269 2031.16 850.41 z" fill="rgb(127,175,147)" transform="translate(0,0)"></path>
<metadata><recraft-signature>{"signed_by": "recraft", "signature_b64": "TnUfbiDnquWJVJfeg0ZXtyNcFQWbvPEmA4V/w368jZB7ry6gomQr4BRCquJNfp7MtBNpQO6W0bhDTfZ6adgSCw==", "signing_algo": "Ed25519", "generation_timestamp": 1777676010, "identifier": "bac899de-ea8c-4018-ae83-8a24ee2d3bae"}</recraft-signature></metadata></svg>