<svg xmlns="http://www.w3.org/2000/svg" height="1024" preserveAspectRatio="none" style="display: block;" version="1.1" viewBox="0 0 2048 2048" width="1024">
<path d="M 0 0 L 2048 0 L 2048 2048 L 0 2048 L 0 0 z" fill="rgb(250,159,176)" transform="translate(0,0)"></path>
<path d="M 182.658 493.057 C 198.591 468.668 215.041 454.642 235.119 434.119 L 321.139 347.21 L 400.68 265.478 C 413.044 252.757 431.544 232.022 444.562 221.722 C 460.176 209.321 478.444 200.693 497.941 196.514 C 519.596 191.883 579.191 196.218 603.946 197.088 L 815.093 205.016 L 970.722 210.558 C 1000.46 211.565 1032.87 212.092 1062.32 215.145 C 1072.15 216.164 1087.41 229.363 1093.17 237.539 C 1101.19 248.931 1102.44 262.411 1103.31 276.16 C 1121.63 260.368 1150.59 224.397 1171.47 218.769 C 1197.39 211.784 1250.32 216.126 1278.95 216.983 L 1442.41 222.765 C 1509.76 224.186 1577.1 226.216 1644.42 228.854 C 1659.46 229.51 1674.49 229.226 1689.89 229.848 C 1741.97 231.951 1789 257.286 1823.59 295.551 C 1837.57 311.019 1849.79 333.339 1852.27 354.415 C 1855.71 383.642 1855.75 415.275 1856.96 445.001 C 1859.68 503.979 1861.85 562.98 1863.46 621.999 L 1881.43 1070.05 C 1885.56 1180.04 1891.55 1290.04 1895.31 1400.06 C 1896.05 1421.78 1896.14 1445.92 1897.69 1467.31 C 1900.34 1503.83 1894.91 1534.11 1873.18 1564.73 C 1860.19 1583.03 1841.44 1599.99 1825.3 1616.2 L 1760.33 1682.05 L 1678.22 1764.9 C 1660.36 1782.91 1645.63 1802.12 1622.69 1814.17 C 1605.14 1834.66 1567.91 1855.45 1541.06 1859.08 C 1510.76 1863.17 1476.48 1860.55 1445.68 1859.71 L 1337.99 1857.67 L 1142.1 1853.9 C 1107.81 1853.33 1073.24 1852.74 1039.12 1852.11 C 1015.39 1851.68 994.16 1833.6 977.514 1818.89 C 969.484 1811.8 959.91 1804.17 952.632 1796.16 L 946.819 1799.56 C 935.865 1809 894.867 1843.7 882.459 1847.03 C 872.002 1849.83 830.833 1847.65 817.896 1847.29 L 728.027 1845.28 L 294.294 1833.58 C 237.197 1832.12 184.591 1782.06 175.807 1726.12 C 173.428 1710.97 174.01 1691.02 173.519 1675.35 L 170.268 1593.28 L 158.947 1279.5 L 140.901 808.405 L 136.015 683.736 C 134.192 643.917 128.402 599.281 142.002 561.318 C 149.708 539.809 165.829 508.668 182.658 493.057 z" fill="rgb(27,94,59)" transform="translate(0,0)"></path>
<path d="M 1219.7 236.385 L 1520.6 245.798 L 1617.52 248.712 C 1659.52 249.682 1696.07 247.387 1735.69 265.05 C 1780.76 285.139 1825.43 321.622 1828.62 374.531 C 1830.52 406.022 1831.08 437.135 1832.19 468.483 C 1834.93 531.979 1837.1 595.499 1838.71 659.034 L 1849.95 949.967 L 1867.49 1345.44 C 1869.41 1394.58 1873.01 1443.85 1873.32 1493.03 C 1873.4 1506.34 1872.86 1518.99 1867.58 1531.38 C 1856.8 1556.66 1831.75 1577.81 1806.61 1587.94 C 1787.02 1595.85 1765.04 1597.37 1744.1 1598.01 C 1705.91 1599.17 1667.2 1597.83 1629.01 1596.74 C 1592.8 1595.71 1238.43 1583.73 1232.98 1580.37 C 1230.09 1578.58 1228.25 1574.66 1227.61 1571.47 C 1224.01 1553.61 1224.96 1532.94 1224.16 1514.7 L 1219.39 1386.12 C 1218.27 1353.9 1214.98 1320.2 1216.21 1288.09 C 1216.46 1281.62 1220.51 1275.96 1223.98 1270.65 C 1222.32 1286.04 1225.57 1318.98 1225.98 1336.2 C 1227.22 1387.34 1230.7 1439.04 1231.25 1490.18 C 1232.54 1506.49 1230.86 1522.54 1236.32 1538.28 C 1245.87 1565.83 1269.38 1572.67 1295.49 1574.39 C 1366.83 1579.1 1438.28 1576.85 1509.67 1578.07 L 1643.56 1580.19 C 1671.66 1580.74 1699.74 1581.09 1727.84 1581.36 C 1734.36 1581.43 1745.51 1579.66 1748.42 1573.23 C 1747.13 1565.04 1738.13 1563.84 1731.28 1563.7 C 1701.01 1563.12 1670.29 1562.41 1640.07 1561.89 L 1529 1559.65 C 1484.3 1559.11 1439.81 1560.64 1395.01 1558.35 C 1361.95 1556.66 1328.52 1557.89 1295.48 1554.93 C 1277.03 1553.27 1257.02 1543.3 1255.24 1522.84 C 1253.55 1504.88 1252.87 1486.67 1252.08 1468.7 L 1248.14 1374.43 C 1247.56 1358.69 1246.84 1342.95 1245.98 1327.22 C 1245.09 1311.59 1243.31 1296.12 1245.23 1280.61 C 1249.63 1275.18 1250.08 1274.55 1255.83 1270.38 C 1269.12 1268.02 1296.36 1269.34 1311.3 1269.55 C 1350.18 1270.32 1389.06 1271.32 1427.93 1272.55 C 1460.54 1273.43 1500.49 1276.2 1531.77 1269.28 C 1567.85 1261.31 1587.48 1227.96 1587.29 1192.69 C 1587.11 1160.29 1585.36 1128.84 1583.89 1096.67 L 1575.63 914.67 L 1566.55 695.124 L 1563.81 633.573 C 1563.09 618.352 1562.82 602.716 1559.78 588.401 C 1555.88 569.859 1534.4 543.157 1515.5 537.866 C 1496.97 532.676 1458.84 533.334 1438.59 533.039 L 1295.38 529.538 C 1283.51 529.179 1253.83 529.774 1244.5 528.574 C 1238.84 527.875 1233.39 525.959 1228.54 522.956 C 1220.94 518.258 1211.04 507.09 1209.78 498.198 C 1207.6 482.854 1207.19 465.688 1206.4 450.116 L 1202.2 361.247 L 1199.65 298.609 C 1198.99 285.465 1197.74 271.895 1197.97 258.798 C 1198.22 243.904 1206.42 238.495 1219.7 236.385 z" fill="rgb(94,148,111)" transform="translate(0,0)"></path>
<path d="M 435.066 359.094 C 434.174 348.446 433.735 337.764 433.75 327.079 C 433.89 296.615 441.597 272.433 463.788 250.923 C 490.209 225.312 521.086 217.413 556.987 218.158 C 605.651 219.169 654.446 221.373 703.045 223.404 L 887.218 230.427 L 999.056 234.322 C 1015.81 234.896 1032.92 234.405 1049.48 236.174 C 1058.77 236.999 1064.37 240.288 1070.98 246.501 C 1084.16 258.889 1082.59 275.196 1083.73 292.443 C 1084.92 310.31 1086 328.184 1086.96 346.064 L 1092.1 436.787 C 1093.59 462.171 1095.56 485.224 1094.94 510.701 C 1091.62 515.895 1084.81 524.265 1078.75 525.54 C 1064.04 528.631 1043.1 526.05 1027.75 525.655 L 870.052 520.353 C 844.934 519.506 816.741 517.607 791.867 519.445 C 769.009 521.134 740.82 547.315 741.486 571.145 C 745.874 728.03 755.344 885.062 758.814 1042.04 L 760.638 1128.02 C 761.241 1157.03 758.366 1207.73 777.315 1229.95 C 804.088 1261.36 856.817 1256.02 893.929 1257.18 L 1031.34 1261.09 C 1057.18 1261.75 1083.41 1261.93 1109.22 1263.51 C 1115.79 1263.36 1127.78 1267.56 1131.41 1273.82 C 1142.91 1293.71 1142.35 1330.24 1143.39 1351.95 L 1147.02 1427.28 C 1148.38 1456.65 1150.86 1487.35 1149.49 1516.58 C 1148.82 1530.87 1128.98 1536.21 1117.52 1536.41 C 1083.15 1537.01 1048.58 1535.95 1014.23 1535.46 L 807.992 1532 L 663.197 1529.46 C 636.968 1528.92 596.146 1529.69 572.01 1524.11 C 549 1518.18 524.763 1492.93 520.321 1469.54 C 513.201 1432.06 513.542 1388.6 512.643 1350.42 C 511.668 1316.95 510.466 1283.49 509.035 1250.03 L 473.066 484.636 C 472.004 459.756 471.308 434.862 470.978 409.961 C 470.908 393.699 471.31 376.946 470.677 360.747 C 470.147 347.194 457.964 347.347 449.083 354.366 C 443.553 356.651 441.043 357.726 435.066 359.094 z" fill="rgb(94,148,111)" transform="translate(0,0)"></path>
<path d="M 1088.48 575.286 C 1109.81 574.392 1146.55 576.728 1169.03 577.493 L 1322.36 582.686 L 1421.3 585.467 C 1438.94 585.877 1457.83 585.984 1475.34 587.363 C 1481.84 587.875 1495.02 595.644 1498.59 601.402 C 1502.43 607.603 1504.12 614.748 1504.56 622.119 C 1505.91 644.752 1507.4 667.927 1508.43 690.576 C 1511.29 753.032 1514.12 815.505 1516.99 877.958 L 1521.01 961.277 C 1521.73 975.309 1522.71 989.491 1523.08 1003.53 C 1523.5 1019.49 1524.38 1034.86 1509.66 1044.67 C 1494.91 1047.36 1469.23 1044.57 1453.12 1044.33 C 1388.12 1043.23 1323.13 1041.57 1258.16 1039.35 L 1188.16 1037.41 C 1159.15 1036.76 1133.16 1040.18 1110.78 1017.64 C 1102.1 1008.84 1096.21 997.667 1093.87 985.531 C 1091.21 971.606 1090.39 937.8 1089.71 922.692 C 1087.9 883.961 1086.33 845.219 1085 806.469 L 1080.31 679.798 C 1079.02 650.029 1076.91 614.712 1076.98 585.282 C 1080.64 579.538 1082.18 577.748 1088.48 575.286 z" fill="rgb(94,148,111)" transform="translate(0,0)"></path>
<path d="M 449.083 354.366 C 458.552 619.112 470.069 883.781 483.635 1148.35 C 486.908 1217.74 490.234 1288.83 492.448 1358.23 L 494.17 1427.86 C 495.187 1465.18 494.709 1495.32 524.165 1523.09 C 551.435 1548.79 585.66 1548.08 620.604 1549.34 C 643.499 1550.03 666.403 1550.33 689.308 1550.22 C 669.939 1553.98 657.057 1552.03 637.898 1551.44 C 648.146 1553.62 660.299 1560.35 671.407 1563.21 C 684.891 1566.68 703.211 1561.98 714.136 1566.88 C 667.418 1566.34 618.973 1564.66 572.168 1563.5 C 562.801 1563.27 529.235 1562.21 521.181 1560.54 C 514.512 1559.13 508.383 1555.85 503.513 1551.08 C 495.104 1542.86 488.872 1522.32 487.935 1510.97 C 485.438 1480.69 483.832 1449.82 482.634 1419.49 L 478.067 1323.21 L 463.711 999.071 L 445.062 598.35 C 441.232 519.372 436.546 438.063 435.066 359.094 C 441.043 357.726 443.553 356.651 449.083 354.366 z" fill="rgb(2,147,88)" transform="translate(0,0)"></path>
<path d="M 1178.69 239.046 L 1179.41 240.09 C 1178.24 243.898 1176.37 251.986 1176.47 255.906 C 1177.28 287.053 1178.98 318.58 1180.11 349.683 L 1183.72 455.48 C 1186.08 513.095 1187.01 549.485 1257.65 549.109 C 1306.7 548.847 1358.23 552.426 1407.59 553.392 L 1460.84 554.471 C 1479.79 554.892 1491.93 553.386 1509.6 561.901 C 1546.23 579.553 1540.68 628.555 1542.23 663.897 L 1546.56 770.87 L 1559.89 1088.89 C 1560.68 1112.54 1561.63 1136.18 1562.74 1159.82 C 1563.42 1173.6 1570.36 1222.52 1554.63 1226.57 L 1553.76 1225.07 C 1553.87 1222.84 1553.93 1220.61 1553.95 1218.38 C 1554 1206.87 1552.48 1189.99 1551.77 1178.17 L 1548.28 1112.67 L 1541.39 935.79 L 1532.2 733.502 C 1530.43 693.494 1528.97 652.93 1526.3 613.439 C 1523.28 568.854 1484.91 565.524 1449.64 565.509 C 1441.31 565.506 1432.07 564.862 1423.65 564.645 L 1257.53 560.425 C 1235.01 559.83 1211.03 560.318 1188.62 558.105 C 1179.89 557.242 1171.57 549.826 1170.82 540.635 C 1169.76 527.616 1169.35 514.326 1168.82 501.108 L 1165.8 422.278 C 1163.55 368.097 1158.51 311.281 1159.06 257.146 C 1164.95 247.18 1168.86 244.125 1178.69 239.046 z" fill="rgb(2,147,88)" transform="translate(0,0)"></path>
<path d="M 1054.44 581.774 L 1055.37 582.862 C 1054.45 598.653 1056.36 628.435 1056.91 645.231 L 1062.04 780.696 L 1066.98 927.815 C 1067.8 948.06 1067.02 973.167 1070.24 993.42 C 1083.17 1074.88 1175.61 1054.55 1226.82 1058.61 C 1261.71 1061.37 1499.98 1061.6 1511.6 1070.27 L 1511.2 1071.89 C 1506.68 1074.9 1504.95 1075.29 1499.78 1076.85 C 1476.18 1077.5 1451.45 1075.82 1427.74 1075.28 L 1251.54 1070.14 C 1220.16 1069.18 1188.77 1068.48 1157.38 1068.03 C 1135.27 1067.79 1113.08 1067.72 1091.01 1066.38 C 1077.89 1065.59 1063.49 1053.52 1061.65 1040.37 C 1059.17 1022.73 1058.58 1004.15 1057.61 986.315 C 1055.55 948.559 1053.87 910.783 1052.57 872.994 L 1040.38 601.103 C 1044.66 591.945 1047.59 588.752 1054.44 581.774 z" fill="rgb(2,147,88)" transform="translate(0,0)"></path>
<path d="M 689.308 1550.22 C 726.115 1550.1 763.915 1551.63 800.803 1552.4 L 1000.62 1556.11 C 1028.18 1556.66 1055.75 1557.05 1083.32 1557.27 C 1097.92 1557.4 1113.15 1557.82 1127.7 1556.84 C 1134.95 1556.34 1141.99 1552.78 1148.75 1549.86 C 1144.81 1558.63 1134.42 1573.21 1126.05 1574.9 C 1099.96 1580.16 1056.51 1575.6 1029.5 1575.02 L 789.355 1569.39 C 765.104 1568.87 737.893 1566.9 714.136 1566.88 C 703.211 1561.98 684.891 1566.68 671.407 1563.21 C 660.299 1560.35 648.146 1553.62 637.898 1551.44 C 657.057 1552.03 669.939 1553.98 689.308 1550.22 z" fill="rgb(94,148,111)" transform="translate(0,0)"></path>
<path d="M 831.725 539.765 C 885.992 540.867 940.243 542.661 994.464 545.146 C 1016.86 545.965 1039.21 547.19 1061.61 547.286 C 1066.12 547.305 1070.49 547.602 1074.98 548.05 C 1072.78 550.638 1069.61 554.621 1067.22 556.855 C 1042.07 557.94 1014.24 556.521 989.011 555.795 C 935.51 554.256 882.222 550.505 828.685 549.783 C 836.176 546.543 849.986 553.844 851.483 543.587 C 848.001 539.974 836.884 541.411 830.857 540.784 L 831.725 539.765 z" fill="rgb(94,148,111)" transform="translate(0,0)"></path>
<path d="M 770.708 770.157 C 784.107 768.242 810.864 769.213 825.507 769.306 C 807.566 786.601 790.949 803.659 772.599 820.811 C 771.141 810.604 770.91 801.077 770.495 790.811 L 770.708 770.157 z" fill="rgb(250,159,176)" transform="translate(0,0)"></path>
<path d="M 763.449 576.279 C 765.954 565.214 767.731 556.604 777.044 548.843 C 792.414 536.035 813.077 537.819 831.725 539.765 L 830.857 540.784 C 836.884 541.411 848.001 539.974 851.483 543.587 C 849.986 553.844 836.176 546.543 828.685 549.783 C 819.804 550.36 811.775 548.063 800.929 550.26 C 781.449 554.205 774.104 561.247 763.449 576.279 z" fill="rgb(2,147,88)" transform="translate(0,0)"></path>
<metadata><recraft-signature>{"signed_by": "recraft", "signature_b64": "lluo3kqtGvNgPt/wHMlr+AYLrOmY2YiGCjY+Gm+HRoVKW1f4DFfUXUCV0oJcBnzGqs63IEmvf27SwscJgfmeDA==", "signing_algo": "Ed25519", "generation_timestamp": 1777675941, "identifier": "ce3ea733-2292-4be4-8362-6168cdfd086b"}</recraft-signature></metadata></svg>